<ttFont>
        <CharString name=".notdef">
          -1200 -211 449 rmoveto
          122 574 123 -286 rlineto
          200 -549 rmoveto
          -389 hlineto
          270 354 rlineto
          83 389 rmoveto
          -120 355 rlineto
          389 hlineto
          -66 -839 rmoveto
          -120 290 243 288 rlineto
          -151 -1042 rmoveto
          46 0 39 15 32 29 32 29 19 30 7 30 177 833 89 420 0 9 0 23 -8 23 -14 22 -20 29 -33 14 -46 0 rrcurveto
          -756 hlineto
          -45 0 -38 -14 -32 -28 -32 -29 -19 -31 -7 -34 -177 -833 -89 -420 0 -7 0 -22 8 -22 14 -22 19 -29 33 -15 45 0 rrcurveto
          endchar
        </CharString>
        <CharString name="A">
          0 875 532 rmoveto
          -332 hlineto
          -4 0 -2 3 0 6 0 4 1 5 2 4 rrcurveto
          281 538 rlineto
          5 10 7 5 7 0 3 0 1 -3 1 -6 rrcurveto
          51 -538 rlineto
          -4 vlineto
          0 -8 -3 -5 -4 -5 -5 -4 -4 -2 -5 0 rrcurveto
          168 -582 rmoveto
          33 0 30 11 26 23 33 28 16 33 0 39 rrcurveto
          -120 1228 rlineto
          -5 40 -16 33 -29 26 -29 26 -35 13 -43 0 -40 0 -40 -12 -37 -25 -38 -24 -30 -32 -22 -39 rrcurveto
          -638 -1221 rlineto
          -9 -18 -5 -19 0 -17 0 -20 7 -19 13 -18 18 -24 27 -12 35 0 26 0 24 7 23 14 23 14 17 19 12 24 rrcurveto
          142 265 rlineto
          7 13 10 7 11 0 rrcurveto
          462 hlineto
          7 0 4 -5 1 -9 rrcurveto
          28 -266 rlineto
          4 -24 11 -20 18 -16 17 -15 23 -8 28 0 rrcurveto
          endchar
        </CharString>
        <CharString name="B">
          0 676 200 rmoveto
          -224 hlineto
          -3 0 -2 1 -2 3 -2 2 -1 4 0 5 0 2 26 124 53 247 1 8 4 6 6 4 5 5 6 2 5 0 rrcurveto
          225 1 rlineto
          69 -4 48 -17 29 -32 28 -32 15 -33 0 -36 0 -11 -1 -11 -3 -11 -15 -63 -34 -54 -55 -44 -54 -44 -60 -22 -64 0 rrcurveto
          135 634 rmoveto
          -225 hlineto
          -6 0 -3 4 0 9 0 3 23 109 46 215 1 8 4 6 6 4 5 5 5 2 5 0 rrcurveto
          225 hlineto
          47 0 35 -13 24 -25 24 -26 12 -30 0 -34 0 -11 -1 -12 -3 -12 -13 -53 -29 -47 -45 -41 -45 -41 -46 -20 -46 0 rrcurveto
          -174 -854 rmoveto
          85 0 81 20 77 40 77 40 66 53 54 66 55 66 36 73 19 82 6 28 3 27 0 26 0 91 -38 72 -76 52 rrcurveto
          -14 10 rlineto
          -1 0 0 1 0 0 0 1 1 2 4 3 3 2 4 3 5 3 6 3 3 3 3 2 88 61 55 94 25 127 4 22 2 22 0 21 0 39 -7 38 -14 38 -23 58 -38 50 -54 40 rrcurveto
          -54 41 -67 20 -79 0 rrcurveto
          -353 hlineto
          -33 0 -30 -11 -26 -22 -26 -22 -17 -26 -7 -30 -172 -814 -87 -412 0 -8 0 -22 7 -20 14 -18 18 -23 27 -12 35 0 rrcurveto
          endchar
        </CharString>
        <CharString name="C">
          0 729 -50 rmoveto
          91 0 88 13 84 27 71 23 35 45 0 68 0 55 -30 28 -59 0 -13 0 -13 -3 -12 -6 -46 -21 -65 -10 -86 0 -103 2 -75 45 -46 85 -26 52 -14 65 0 78 0 59 8 67 16 74 rrcurveto
          37 176 65 133 92 90 93 90 93 47 95 2 100 0 61 -7 22 -14 13 -8 13 -4 14 0 24 0 23 8 21 16 36 27 18 34 0 40 0 83 -105 41 -209 0 -176 0 -156 -69 -135 -138 rrcurveto
          -128 -135 -90 -183 -53 -231 -17 -82 -9 -77 0 -71 0 -115 22 -100 46 -88 78 -141 128 -70 179 0 rrcurveto
          endchar
        </CharString>
        <CharString name="D">
          0 483 200 rmoveto
          -32 hlineto
          -2 0 -3 1 -1 3 -2 2 -1 4 0 4 0 3 68 320 135 637 1 8 4 6 6 4 5 5 6 2 5 0 51 0 47 -1 43 -3 44 -3 39 -8 35 -13 79 -30 39 -67 0 -103 rrcurveto
          0 -73 -15 -105 -32 -138 -33 -163 -57 -116 -82 -71 -81 -70 -116 -35 -150 0 rrcurveto
          -38 -220 rmoveto
          147 0 127 23 105 45 106 45 86 72 66 98 67 99 50 129 33 158 rrcurveto
          29 136 rlineto
          17 81 9 73 0 65 0 167 -60 117 -121 66 -80 44 -108 22 -136 0 rrcurveto
          -201 hlineto
          -32 0 -30 -11 -26 -22 -26 -22 -17 -26 -7 -30 -173 -814 -87 -412 0 -8 0 -22 7 -20 14 -18 18 -23 27 -12 35 0 rrcurveto
          endchar
        </CharString>
        <CharString name="E">
          0 967 -20 rmoveto
          32 0 29 10 24 21 35 28 17 33 0 37 0 21 -6 18 -13 16 -19 24 -26 12 -34 0 rrcurveto
          -525 hlineto
          -6 0 -3 4 0 9 0 3 25 117 49 232 1 8 4 6 6 4 5 5 6 2 5 0 rrcurveto
          468 hlineto
          32 0 28 10 24 21 35 28 17 33 0 37 0 21 -7 19 -13 17 -18 23 -25 11 -35 0 rrcurveto
          -468 hlineto
          -3 0 -2 1 -2 3 -2 2 -1 4 0 5 0 2 25 116 50 231 1 8 4 6 6 5 5 5 5 2 5 0 rrcurveto
          525 hlineto
          32 0 28 10 24 21 35 28 17 33 0 37 0 21 -7 19 -13 17 -18 23 -25 11 -35 0 rrcurveto
          -653 hlineto
          -33 0 -29 -11 -27 -21 -26 -22 -17 -26 -7 -30 -173 -816 -87 -412 0 -8 0 -21 7 -20 14 -18 18 -23 27 -12 35 0 rrcurveto
          endchar
        </CharString>
        <CharString name="F">
          0 304 -50 rmoveto
          32 0 28 10 25 21 26 21 16 25 7 30 rrcurveto
          108 508 rlineto
          1 8 4 6 6 4 5 5 6 2 5 0 rrcurveto
          460 hlineto
          32 0 28 10 24 21 35 28 17 33 0 37 0 21 -7 19 -13 17 -18 23 -25 11 -35 0 rrcurveto
          -460 hlineto
          -3 0 -2 1 -2 3 -2 2 -1 4 0 5 0 2 25 116 50 231 1 8 4 6 6 5 5 5 5 2 5 0 rrcurveto
          537 hlineto
          32 0 28 10 24 21 35 28 17 33 0 37 0 21 -7 19 -13 17 -18 23 -25 11 -35 0 rrcurveto
          -665 hlineto
          -33 0 -29 -11 -27 -21 -26 -22 -17 -26 -7 -30 -178 -838 -89 -423 0 -7 0 -22 7 -18 13 -16 18 -24 26 -12 34 0 rrcurveto
          endchar
        </CharString>
        <CharString name="G">
          0 600 -50 rmoveto
          153 0 140 57 127 115 33 31 21 37 10 44 64 303 32 155 0 5 0 12 -3 11 -6 9 -12 16 -16 8 -22 0 rrcurveto
          -320 hlineto
          -27 0 -26 -9 -26 -18 -33 -26 -17 -33 0 -42 0 -24 7 -19 14 -16 21 -24 25 -12 29 0 rrcurveto
          150 hlineto
          5 0 3 -2 0 -5 0 -3 -18 -83 -35 -164 -3 -18 -10 -14 -15 -11 -60 -39 -63 -20 -64 0 -96 0 -62 38 -29 75 -16 43 -9 51 0 60 0 53 7 59 13 65 rrcurveto
          35 167 rlineto
          15 71 23 68 31 66 38 83 45 62 50 39 51 39 57 20 64 0 98 0 54 -63 8 -125 3 -56 33 -28 62 0 31 0 27 11 24 22 32 27 15 32 0 38 rrcurveto
          13 vlineto
          -11 233 -116 116 -221 0 -133 0 -109 -35 -86 -70 -153 -125 -105 -186 -57 -248 rrcurveto
          -35 -165 rlineto
          -12 -65 -6 -63 0 -63 0 -164 39 -127 78 -88 60 -67 88 -34 117 0 rrcurveto
          endchar
        </CharString>
        <CharString name="H">
          0 944 -50 rmoveto
          32 0 28 10 25 21 26 21 16 25 7 30 182 860 92 434 0 8 0 21 -7 19 -13 17 -18 23 -25 11 -35 0 -32 0 -28 -10 -25 -21 -26 -21 -16 -25 -7 -30 rrcurveto
          -108 -507 rlineto
          -1 -8 -4 -6 -6 -5 -6 -5 -5 -2 -5 0 rrcurveto
          -434 hlineto
          -2 0 -3 1 -1 3 -2 2 -1 4 0 4 0 2 18 86 36 171 37 177 19 92 0 7 0 21 -7 19 -13 17 -18 23 -25 11 -35 0 -32 0 -28 -10 -25 -21 -26 -21 -16 -25 -7 -30 rrcurveto
          -182 -860 -92 -434 0 -7 0 -22 7 -18 13 -16 18 -24 26 -12 34 0 32 0 29 10 25 21 25 21 16 25 7 30 rrcurveto
          108 508 rlineto
          1 8 4 6 6 4 5 5 6 2 5 0 rrcurveto
          434 hlineto
          3 0 2 -1 2 -2 2 -3 1 -3 0 -4 0 -2 -18 -87 -37 -171 -37 -177 -19 -91 0 -7 0 -22 7 -18 13 -16 18 -24 26 -12 34 0 rrcurveto
          endchar
        </CharString>
        <CharString name="I">
          0 920 -20 rmoveto
          32 0 28 10 24 21 35 28 17 33 0 37 0 21 -6 18 -13 16 -19 24 -26 12 -34 0 rrcurveto
          -187 hlineto
          -3 0 -2 1 -2 3 -2 2 -1 4 0 5 0 2 68 320 136 637 1 8 4 6 6 4 5 5 6 2 5 0 rrcurveto
          187 hlineto
          32 0 28 10 24 21 35 28 17 33 0 37 0 22 -7 19 -13 17 -18 23 -25 11 -35 0 rrcurveto
          -640 hlineto
          -32 0 -28 -10 -24 -21 -35 -28 -17 -33 0 -37 0 -22 7 -18 13 -16 18 -24 26 -12 34 0 rrcurveto
          187 hlineto
          3 0 2 -1 2 -2 2 -3 1 -3 0 -4 0 -3 -68 -320 -136 -637 -1 -8 -4 -6 -6 -5 -6 -5 -5 -2 -5 0 rrcurveto
          -187 hlineto
          -32 0 -28 -10 -24 -21 -35 -28 -17 -32 0 -37 0 -22 7 -18 13 -16 18 -24 26 -12 34 0 rrcurveto
          endchar
        </CharString>
        <CharString name="J">
          0 583 -50 rmoveto
          117 0 107 38 97 77 97 76 62 98 29 119 135 638 68 323 0 7 0 22 -7 19 -13 17 -20 24 -27 12 -34 0 rrcurveto
          -403 hlineto
          -32 0 -28 -10 -25 -20 -34 -29 -18 -32 0 -37 0 -21 7 -19 13 -16 18 -25 26 -12 34 0 rrcurveto
          276 hlineto
          5 0 3 -3 0 -7 0 -3 -58 -274 -116 -548 -11 -53 -29 -46 -46 -39 -31 -26 -30 -16 -29 -8 -28 -7 -35 -4 -39 0 -56 0 -42 13 -29 25 -28 25 -16 33 -3 40 -3 24 -10 20 -18 16 rrcurveto
          -18 15 -23 8 -28 0 -32 0 -29 -11 -25 -21 -35 -29 -18 -38 0 -47 0 -54 24 -55 47 -54 51 -64 69 -38 87 -14 40 -6 44 -3 50 0 rrcurveto
          endchar
        </CharString>
        <CharString name="K">
          0 995 -50 rmoveto
          33 0 29 10 24 21 33 29 17 32 0 35 0 10 -2 11 -3 10 -180 458 -90 230 0 2 0 8 4 8 8 7 rrcurveto
          426 451 rlineto
          25 27 13 28 0 30 0 20 -6 18 -11 17 -18 25 -26 13 -36 0 -36 0 -32 -14 -29 -28 rrcurveto
          -519 -543 rlineto
          -7 -6 -5 -3 -5 0 -3 0 -3 1 -2 2 -2 3 -1 3 0 4 0 2 17 79 33 156 34 162 17 84 0 7 0 21 -7 19 -13 17 -18 23 -25 11 -35 0 -32 0 -28 -10 -25 -21 rrcurveto
          -26 -21 -16 -25 -7 -30 -183 -860 -92 -434 0 -8 0 -21 7 -19 15 -18 18 -22 25 -11 34 0 32 0 29 10 25 21 25 21 16 25 7 29 rrcurveto
          77 362 rlineto
          3 17 8 16 15 15 rrcurveto
          117 129 rlineto
          7 6 6 3 6 0 3 0 3 -3 2 -5 rrcurveto
          236 -586 rlineto
          19 -40 31 -20 44 0 rrcurveto
          endchar
        </CharString>
        <CharString name="L">
          0 982 -20 rmoveto
          32 0 28 10 24 21 33 28 17 33 0 37 0 21 -6 19 -13 17 -16 23 -27 11 -37 0 rrcurveto
          -462 hlineto
          -15 0 -11 5 -8 9 -7 10 -3 11 0 13 0 5 38 185 77 363 77 364 39 186 0 7 0 20 -5 18 -11 16 -17 25 -27 13 -37 0 -34 0 -29 -10 -25 -21 -25 -21 -15 -26 -7 -29 rrcurveto
          -172 -812 -86 -411 0 -12 0 -30 9 -26 18 -22 25 -33 37 -17 48 0 rrcurveto
          endchar
        </CharString>
        <CharString name="M">
          0 962 -50 rmoveto
          31 0 28 11 26 21 25 21 17 25 7 30 180 848 90 429 0 9 0 25 -7 22 -15 19 -23 27 -30 13 -38 0 -27 0 -25 -7 -25 -14 -24 -15 -20 -18 -15 -23 -224 -376 -114 -189 -4 -4 rrcurveto
          -4 -3 -3 -2 -4 0 -1 0 -1 1 -1 1 0 2 -33 188 -65 376 -5 24 -13 20 -20 16 -20 15 -24 8 -29 0 -36 0 -33 -12 -30 -25 -30 -24 -18 -30 -8 -35 -180 -846 -90 -428 0 -7 rrcurveto
          0 -22 7 -18 13 -16 18 -25 26 -12 34 0 30 0 28 11 26 21 25 21 17 25 8 29 rrcurveto
          177 833 rlineto
          0 3 0 2 -1 0 -6 0 -3 2 -1 3 rrcurveto
          58 -348 rlineto
          6 -27 14 -22 22 -15 22 -15 25 -8 29 0 28 0 28 7 27 15 27 15 21 20 16 25 rrcurveto
          205 347 rlineto
          1 1 -1 0 -1 0 -6 0 -2 2 0 4 rrcurveto
          -89 -420 rlineto
          -61 -285 -30 -146 0 -7 0 -22 7 -18 13 -16 18 -25 26 -12 34 0 rrcurveto
          endchar
        </CharString>
        <CharString name="N">
          0 934 -50 rmoveto
          37 0 33 12 30 25 30 24 19 30 9 36 180 847 90 427 0 8 0 21 -7 19 -13 17 -18 23 -25 11 -35 0 -32 0 -28 -10 -25 -21 -26 -21 -16 -25 -7 -30 rrcurveto
          -187 -880 rlineto
          0 -3 0 -1 0 0 6 0 4 -1 0 -2 rrcurveto
          -279 916 rlineto
          -20 52 -36 26 -54 0 -37 0 -33 -12 -30 -25 -30 -24 -19 -30 -9 -35 -180 -846 -90 -428 0 -7 0 -22 7 -18 13 -16 18 -25 26 -12 34 0 32 0 29 11 25 21 25 21 16 25 7 30 rrcurveto
          188 880 rlineto
          0 2 0 1 -2 0 -5 0 -2 2 -1 3 rrcurveto
          278 -917 rlineto
          20 -53 37 -26 53 0 rrcurveto
          endchar
        </CharString>
        <CharString name="O">
          0 632 170 rmoveto
          -40 0 -31 10 -24 19 -24 20 -17 28 -12 36 -12 36 -7 32 -1 29 -1 28 -1 20 0 11 0 73 11 86 20 98 30 142 43 119 56 96 68 118 81 59 95 0 39 0 31 -10 24 -20 rrcurveto
          24 -20 17 -28 12 -36 12 -37 7 -32 1 -28 1 -28 0 -18 0 -10 0 -81 -10 -87 -20 -92 -28 -138 -43 -118 -56 -98 -68 -119 -82 -60 -95 0 rrcurveto
          -38 -220 rmoveto
          83 0 74 16 64 33 64 33 56 43 46 53 47 53 40 59 32 64 33 65 27 66 22 68 21 67 17 65 13 62 13 62 10 57 6 54 5 53 3 46 0 38 0 295 -121 148 -244 0 rrcurveto
          -153 0 -129 -59 -104 -118 -87 -98 -67 -125 -49 -152 -59 -184 -29 -168 0 -152 0 -104 15 -87 32 -71 55 -121 106 -61 158 0 rrcurveto
          endchar
        </CharString>
        <CharString name="P">
          0 835 760 rmoveto
          -235 hlineto
          -2 0 -3 1 -1 3 -2 2 -1 4 0 4 0 3 28 133 57 264 1 8 4 6 5 4 6 5 5 2 5 0 rrcurveto
          235 hlineto
          46 0 35 -14 22 -27 22 -27 11 -33 0 -38 0 -20 -2 -21 -5 -23 -18 -87 -31 -60 -44 -34 -44 -37 -46 -18 -48 0 rrcurveto
          -531 -810 rmoveto
          32 0 28 10 25 21 26 21 16 25 7 30 rrcurveto
          97 456 rlineto
          2 9 4 6 5 5 6 5 5 2 5 0 rrcurveto
          234 hlineto
          112 0 103 41 95 83 95 83 63 108 32 135 9 42 4 39 0 35 0 72 -22 64 -44 54 -64 83 -90 41 -114 0 rrcurveto
          -364 hlineto
          -32 0 -29 -11 -26 -22 -26 -22 -17 -26 -8 -30 -178 -837 -89 -423 0 -7 0 -22 7 -18 13 -16 18 -24 26 -12 34 0 rrcurveto
          endchar
        </CharString>
        <CharString name="Q">
          0 632 170 rmoveto
          -40 0 -31 10 -24 19 -24 20 -17 28 -12 36 -12 36 -7 32 -1 29 -1 28 -1 20 0 11 0 73 11 86 20 98 30 142 43 119 56 96 68 118 81 59 95 0 39 0 31 -10 24 -20 rrcurveto
          24 -20 17 -28 12 -36 12 -37 7 -32 1 -28 1 -28 0 -18 0 -10 0 -81 -10 -87 -20 -92 -28 -138 -43 -118 -56 -98 -68 -119 -82 -60 -95 0 rrcurveto
          -38 -220 rmoveto
          83 0 74 16 64 33 64 33 56 43 46 53 47 53 40 59 32 64 33 65 27 66 22 68 21 67 17 65 13 62 13 62 10 57 6 54 5 53 3 46 0 38 0 295 -121 148 -244 0 rrcurveto
          -153 0 -129 -59 -104 -118 -87 -98 -67 -125 -49 -152 -59 -184 -29 -168 0 -152 0 -104 15 -87 32 -71 55 -121 106 -61 158 0 rrcurveto
          303 -391 rmoveto
          32 0 28 11 25 21 34 28 17 33 0 36 0 41 -19 28 -38 15 rrcurveto
          -360 142 rlineto
          -13 5 -13 3 -14 0 -32 0 -28 -11 -25 -21 -34 -29 -18 -31 0 -35 0 -14 3 -14 7 -13 9 -21 16 -15 22 -9 rrcurveto
          360 -142 rlineto
          14 -5 13 -3 14 0 rrcurveto
          endchar
        </CharString>
        <CharString name="R">
          0 798 770 rmoveto
          -224 hlineto
          -3 0 -2 1 -2 3 -2 2 -1 4 0 5 0 2 28 130 55 257 1 8 4 6 5 4 6 5 5 2 5 0 rrcurveto
          225 hlineto
          31 0 28 -7 25 -14 35 -20 18 -38 0 -55 0 -20 -3 -23 -5 -25 -17 -74 -31 -57 -45 -38 -44 -39 -46 -19 -46 0 rrcurveto
          163 -820 rmoveto
          33 0 29 11 24 21 34 29 17 34 0 38 0 10 -2 8 -3 8 -126 295 -62 147 0 1 rrcurveto
          1 8 rlineto
          3 12 6 9 10 4 77 30 68 50 61 69 60 70 42 85 24 102 9 45 5 40 0 35 0 69 -22 62 -45 55 -65 82 -90 41 -114 0 rrcurveto
          -353 hlineto
          -33 0 -30 -11 -26 -22 -26 -22 -17 -26 -7 -30 -178 -836 -89 -423 0 -8 0 -22 7 -19 13 -16 19 -23 27 -12 34 0 31 0 28 11 25 21 26 21 16 25 7 30 rrcurveto
          99 466 rlineto
          1 8 4 6 6 5 6 5 6 2 5 0 rrcurveto
          108 hlineto
          3 0 3 -3 2 -5 rrcurveto
          216 -532 rlineto
          19 -40 30 -20 44 0 rrcurveto
          endchar
        </CharString>
        <CharString name="S">
          0 604 -50 rmoveto
          86 0 76 15 66 30 66 30 63 45 60 60 61 60 39 74 19 88 6 28 3 27 0 27 0 110 -53 91 -106 73 -46 33 -67 32 -86 32 -116 43 -59 64 0 85 0 13 2 14 3 15 rrcurveto
          13 61 30 48 48 33 48 34 55 17 63 0 53 0 43 -10 35 -20 34 -20 21 -26 5 -30 8 -61 32 -30 55 0 65 0 40 35 15 70 2 10 1 11 0 12 -1 79 -33 66 -66 53 rrcurveto
          -66 53 -93 26 -121 0 -78 0 -74 -16 -69 -31 -69 -31 -62 -47 -54 -63 -55 -62 -38 -80 -22 -96 -5 -27 -3 -26 0 -25 0 -157 107 -120 216 -82 36 -14 37 -17 37 -21 70 -36 36 -44 0 -53 rrcurveto
          0 -9 -2 -10 -2 -10 -16 -76 -44 -56 -74 -36 -45 -21 -45 -11 -46 0 -95 3 -76 48 -56 93 -23 40 -30 20 -39 0 -34 0 -28 -11 -24 -23 -23 -23 -15 -27 -7 -32 -1 -7 -1 -7 0 -6 rrcurveto
          0 -7 1 -6 1 -6 15 -65 46 -61 77 -58 77 -59 91 -29 105 0 rrcurveto
          endchar
        </CharString>
        <CharString name="T">
          0 594 -50 rmoveto
          32 0 28 10 25 21 26 21 16 25 7 30 rrcurveto
          237 1116 rlineto
          2 9 4 7 5 4 6 5 5 2 5 0 rrcurveto
          248 hlineto
          31 0 29 10 24 20 35 28 17 33 0 37 0 22 -6 18 -13 16 -19 24 -26 12 -34 0 rrcurveto
          -761 hlineto
          -32 0 -28 -10 -24 -21 -35 -28 -17 -33 0 -37 0 -21 7 -19 13 -16 18 -23 26 -12 34 0 rrcurveto
          248 hlineto
          6 0 3 -4 0 -7 0 -3 -40 -190 -80 -377 -80 -378 -40 -192 0 -7 0 -22 7 -18 13 -16 18 -24 26 -12 34 0 rrcurveto
          endchar
        </CharString>
        <CharString name="U">
          0 593 -50 rmoveto
          145 0 124 50 102 99 102 100 69 133 36 166 120 569 61 288 0 8 0 21 -7 19 -13 17 -18 23 -25 11 -35 0 -32 0 -28 -10 -25 -21 -26 -21 -16 -25 -7 -30 rrcurveto
          -179 -843 rlineto
          -13 -65 -22 -57 -29 -49 -29 -50 -35 -39 -41 -27 -41 -28 -47 -14 -52 0 -50 0 -38 13 -28 27 -27 27 -17 31 -5 34 -5 34 -3 28 0 21 0 34 4 36 8 38 121 569 61 288 0 8 rrcurveto
          0 21 -6 18 -13 16 -19 24 -26 12 -34 0 -32 0 -28 -10 -26 -21 -25 -21 -17 -25 -7 -30 rrcurveto
          -179 -843 rlineto
          -12 -60 -7 -55 0 -52 0 -142 45 -105 89 -70 60 -47 79 -23 98 0 rrcurveto
          endchar
        </CharString>
        <CharString name="V">
          0 597 -33 rmoveto
          33 0 30 10 28 19 28 19 21 25 15 29 420 847 210 428 1 8 1 8 1 7 0 7 0 20 -6 19 -11 17 -19 25 -26 12 -35 0 -26 0 -25 -8 -23 -15 -23 -15 -17 -19 -11 -23 rrcurveto
          -482 -984 rlineto
          0 0 0 0 1 0 6 0 3 -3 0 -4 rrcurveto
          -65 985 rlineto
          -2 25 -10 20 -18 16 -17 17 -22 8 -28 0 -29 0 -28 -10 -26 -21 -27 -20 -17 -25 -7 -30 -2 -6 -1 -7 0 -9 rrcurveto
          76 -1264 rlineto
          2 -34 13 -27 24 -19 23 -19 30 -9 37 0 rrcurveto
          endchar
        </CharString>
        <CharString name="W">
          0 900 -50 rmoveto
          36 0 33 12 29 23 29 23 19 28 9 33 227 851 114 430 0 9 0 21 -7 18 -13 17 -20 23 -27 12 -34 0 -31 0 -28 -10 -25 -20 -26 -20 -17 -25 -7 -29 -152 -581 -75 -290 0 0 rrcurveto
          0 0 1 0 3 0 6 0 3 -1 1 -3 rrcurveto
          -26 458 rlineto
          -3 26 -12 21 -21 17 -20 17 -25 8 -29 0 -27 0 -27 -8 -25 -15 -25 -15 -19 -19 -13 -25 -151 -307 -75 -154 0 0 0 0 2 0 2 0 8 0 5 -3 0 -5 rrcurveto
          71 439 rlineto
          48 295 24 150 0 6 0 22 -7 21 -14 17 -18 22 -25 11 -34 0 -31 0 -29 -10 -26 -20 -26 -20 -17 -25 -7 -29 -135 -852 -68 -429 0 -7 0 -27 8 -23 17 -19 22 -26 30 -13 37 0 rrcurveto
          29 0 27 8 25 16 25 15 21 21 15 26 rrcurveto
          323 635 rlineto
          0 1 -1 0 -4 0 -7 0 -4 2 -1 3 rrcurveto
          52 -632 rlineto
          3 -28 13 -22 21 -18 21 -18 25 -9 30 0 rrcurveto
          endchar
        </CharString>
        <CharString name="X">
          0 955 -50 rmoveto
          34 0 29 11 25 23 33 31 17 33 0 35 0 10 -2 11 -3 10 -134 390 -66 196 0 2 0 7 2 7 5 7 rrcurveto
          418 557 rlineto
          18 24 9 25 0 26 0 20 -6 19 -11 17 -17 26 -28 13 -36 0 -43 0 -38 -20 -32 -40 rrcurveto
          -336 -459 rlineto
          -1 -1 1 0 3 0 6 0 4 -1 1 -3 rrcurveto
          -141 459 rlineto
          -16 43 -33 22 -48 0 -34 0 -29 -11 -25 -23 -33 -31 -17 -33 0 -36 0 -10 2 -10 3 -11 122 -373 61 -188 0 -3 0 -7 -3 -6 -4 -6 rrcurveto
          -449 -583 rlineto
          -17 -26 -9 -25 0 -26 0 -21 7 -19 13 -17 18 -23 27 -12 36 0 41 0 37 19 33 39 rrcurveto
          371 506 rlineto
          0 -1 -2 0 -2 0 -7 0 -3 2 -2 5 rrcurveto
          155 -506 rlineto
          18 -43 32 -21 46 0 rrcurveto
          endchar
        </CharString>
        <CharString name="Y">
          0 594 -50 rmoveto
          32 0 29 11 25 21 25 21 16 25 7 30 rrcurveto
          134 632 rlineto
          2 11 6 12 8 11 rrcurveto
          435 562 rlineto
          18 24 9 24 0 26 0 19 -6 18 -11 17 -18 24 -26 12 -35 0 -20 0 -21 -5 -20 -9 -21 -10 -16 -13 -13 -17 rrcurveto
          -313 -404 rlineto
          -6 -7 -6 -4 -6 0 -3 0 -2 2 -2 4 rrcurveto
          -137 404 rlineto
          -14 39 -33 20 -50 0 -32 0 -29 -10 -24 -21 -33 -28 -16 -32 0 -35 0 -12 2 -11 4 -10 133 -382 67 -193 0 -6 0 -6 -23 -111 -46 -216 -46 -216 -23 -111 0 -7 0 -22 7 -18 13 -17 rrcurveto
          19 -24 26 -12 34 0 rrcurveto
          endchar
        </CharString>
        <CharString name="Z">
          0 940 -20 rmoveto
          32 0 29 10 24 21 34 28 17 33 0 37 0 21 -7 19 -13 17 -18 23 -25 11 -35 0 rrcurveto
          -482 hlineto
          -6 0 -3 4 0 9 0 8 2 8 5 7 rrcurveto
          792 943 rlineto
          27 34 13 38 0 41 0 30 -8 26 -18 22 -26 33 -37 17 -48 0 rrcurveto
          -630 hlineto
          -31 0 -28 -10 -25 -20 -34 -29 -18 -32 0 -37 0 -22 7 -18 13 -17 19 -24 26 -12 33 0 rrcurveto
          482 hlineto
          7 0 4 -4 0 -7 0 -8 -2 -7 -5 -6 rrcurveto
          -792 -944 rlineto
          -28 -35 -14 -37 0 -39 0 -31 10 -27 19 -25 26 -33 36 -16 48 0 rrcurveto
          endchar
        </CharString>
        <CharString name="a">
          0 478 186 rmoveto
          -63 0 -31 40 0 79 0 29 4 34 9 40 20 91 35 79 48 67 48 68 49 52 52 37 52 37 46 19 40 0 44 0 31 -27 18 -55 7 -22 3 -24 0 -26 0 -19 -2 -19 -4 -20 rrcurveto
          -30 -141 -53 -112 -76 -83 -76 -81 -82 -41 -89 -2 rrcurveto
          493 -236 rmoveto
          90 0 65 23 41 46 12 13 6 15 0 17 0 15 -6 15 -11 14 -12 14 -16 7 -20 0 -13 0 -13 -3 -13 -6 -10 -5 -7 -2 -4 0 -13 0 -7 26 -1 52 0 74 9 82 19 89 rrcurveto
          47 221 49 187 50 151 3 9 1 8 0 6 0 18 -7 16 -13 12 -22 25 -27 12 -32 0 -63 0 -43 -29 -22 -57 -1 -4 0 -2 3 0 2 0 2 0 0 -1 -39 60 -55 31 -71 2 rrcurveto
          -94 0 -93 -34 -90 -67 -91 -67 -80 -85 -71 -103 -71 -103 -49 -113 -27 -124 -12 -56 -6 -52 0 -46 0 -72 15 -60 30 -48 51 -80 79 -40 107 0 78 0 79 22 79 43 79 43 56 44 33 43 rrcurveto
          1 3 1 1 -1 0 -4 0 -1 -3 0 -6 4 -75 16 -51 30 -29 24 -24 31 -12 39 0 rrcurveto
          endchar
        </CharString>
        <CharString name="ampersand">
          0 776 373 rmoveto
          65 46 62 73 59 100 rrcurveto
          -228 286 rlineto
          -51 61 -26 58 0 52 0 12 2 11 2 11 9 45 19 35 29 25 29 25 32 13 36 0 29 0 24 -8 19 -15 19 -15 14 -27 11 -39 10 -39 34 -20 57 0 38 0 33 12 28 25 rrcurveto
          34 30 17 31 0 31 0 7 0 9 -2 11 -13 76 -36 58 -57 41 -57 40 -74 20 -90 0 -105 0 -97 -34 -89 -69 -89 -69 -57 -90 -23 -111 -5 -23 -2 -23 0 -24 0 -89 36 -90 74 -89 rrcurveto
          6 -797 rmoveto
          103 0 106 35 109 69 109 69 94 90 80 111 80 111 49 99 19 88 1 6 1 6 0 6 0 18 -6 18 -12 17 -17 23 -29 11 -41 0 -65 0 -49 -37 -31 -74 -52 -119 -67 -98 -82 -78 rrcurveto
          -91 -85 -83 -42 -75 0 -83 0 -41 39 0 77 0 19 3 22 5 24 17 79 31 75 46 70 -43 47 -45 60 -49 73 -114 -128 -72 -135 -30 -141 -8 -37 -4 -35 0 -34 0 -72 19 -65 36 -57 rrcurveto
          53 -83 93 -42 135 0 rrcurveto
          510 hmoveto
          40 0 34 12 28 25 35 31 18 34 0 36 0 39 -16 67 -32 94 -79 -109 -65 -75 -51 -41 -2 -11 -1 -10 0 -9 0 -55 31 -28 60 0 rrcurveto
          endchar
        </CharString>
        <CharString name="ampersand_ampersand">
          0 -364 373 rmoveto
          65 46 62 73 59 100 rrcurveto
          -228 286 rlineto
          -51 61 -26 58 0 52 0 12 2 11 2 11 9 45 19 35 29 25 29 25 32 13 36 0 29 0 24 -8 19 -15 19 -15 14 -27 11 -39 10 -39 34 -20 57 0 38 0 33 12 28 25 rrcurveto
          34 30 17 31 0 31 0 7 0 9 -2 11 -13 76 -36 58 -57 41 -57 40 -74 20 -90 0 -105 0 -97 -34 -89 -69 -89 -69 -57 -90 -23 -111 -5 -23 -2 -23 0 -24 0 -89 36 -90 74 -89 rrcurveto
          6 -797 rmoveto
          103 0 106 35 109 69 109 69 94 90 80 111 80 111 49 99 19 88 1 6 1 6 0 6 0 18 -6 18 -12 17 -17 23 -29 11 -41 0 -65 0 -49 -37 -31 -74 -52 -119 -67 -98 -82 -78 rrcurveto
          -91 -85 -83 -42 -75 0 -83 0 -41 39 0 77 0 19 3 22 5 24 17 79 31 75 46 70 -43 47 -45 60 -49 73 -114 -128 -72 -135 -30 -141 -8 -37 -4 -35 0 -34 0 -72 19 -65 36 -57 rrcurveto
          53 -83 93 -42 135 0 rrcurveto
          510 hmoveto
          40 0 34 12 28 25 35 31 18 34 0 36 0 39 -16 67 -32 94 -79 -109 -65 -75 -51 -41 -2 -11 -1 -10 0 -9 0 -55 31 -28 60 0 rrcurveto
          844 427 rmoveto
          65 46 62 73 59 100 rrcurveto
          -228 286 rlineto
          -51 61 -26 58 0 52 0 12 2 11 2 11 9 45 19 35 29 25 29 25 32 13 36 0 29 0 24 -8 19 -15 19 -15 14 -27 11 -39 10 -39 34 -20 57 0 38 0 33 12 28 25 rrcurveto
          34 30 17 31 0 31 0 7 0 9 -2 11 -13 76 -36 58 -57 41 -57 40 -74 20 -90 0 -105 0 -97 -34 -89 -69 -89 -69 -57 -90 -23 -111 -5 -23 -2 -23 0 -24 0 -89 36 -90 74 -89 rrcurveto
          6 -797 rmoveto
          103 0 106 35 109 69 109 69 94 90 80 111 80 111 49 99 19 88 1 6 1 6 0 6 0 18 -6 18 -12 17 -17 23 -29 11 -41 0 -65 0 -49 -37 -31 -74 -52 -119 -67 -98 -82 -78 rrcurveto
          -91 -85 -83 -42 -75 0 -83 0 -41 39 0 77 0 19 3 22 5 24 17 79 31 75 46 70 -43 47 -45 60 -49 73 -114 -128 -72 -135 -30 -141 -8 -37 -4 -35 0 -34 0 -72 19 -65 36 -57 rrcurveto
          53 -83 93 -42 135 0 rrcurveto
          510 hmoveto
          40 0 34 12 28 25 35 31 18 34 0 36 0 39 -16 67 -32 94 -79 -109 -65 -75 -51 -41 -2 -11 -1 -10 0 -9 0 -55 31 -28 60 0 rrcurveto
          endchar
        </CharString>
        <CharString name="asciicircum">
          0 1061 550 rmoveto
          19 0 19 5 19 9 53 31 26 39 0 47 0 12 -2 10 -5 10 rrcurveto
          -227 519 rlineto
          -20 39 -31 20 -40 0 -40 0 -37 -18 -35 -36 rrcurveto
          -449 -519 rlineto
          -19 -26 -9 -25 0 -23 0 -27 12 -25 24 -21 20 -13 21 -7 22 0 39 0 36 18 32 35 rrcurveto
          317 379 rlineto
          3 3 3 2 1 0 -2 0 0 0 0 0 rrcurveto
          157 -377 rlineto
          19 -41 31 -20 43 0 rrcurveto
          endchar
        </CharString>
        <CharString name="asciitilde">
          0 890 462 rmoveto
          90 0 79 35 68 71 58 63 37 65 15 67 1 9 1 8 0 8 0 60 -31 30 -62 0 -56 0 -40 -32 -23 -63 -22 -62 -29 -31 -37 0 -17 0 -12 3 -7 6 -24 20 -24 32 -24 44 rrcurveto
          -54 95 -73 48 -92 0 -94 0 -82 -36 -69 -72 -56 -60 -35 -64 -15 -68 -2 -11 -1 -10 0 -10 0 -19 5 -16 9 -14 15 -24 25 -12 34 0 32 0 28 9 23 18 23 18 16 24 7 29 rrcurveto
          18 61 30 31 45 0 29 0 34 -36 41 -71 58 -95 72 -48 88 0 rrcurveto
          endchar
        </CharString>
        <CharString name="asciitilde_at">
          0 1098 268 rmoveto
          72 0 44 30 16 60 27 104 21 89 16 74 59 278 -13 204 -83 130 -94 142 -133 71 -172 0 -213 -1 -196 -86 -178 -169 -134 -125 -105 -143 -74 -161 -55 -117 -66 -58 -79 0 -44 0 -26 3 -7 6 rrcurveto
          -24 20 -23 32 -24 44 -54 95 -73 48 -92 0 -94 0 -82 -36 -69 -72 -56 -60 -38 -78 -21 -95 -7 -33 4 -28 15 -23 15 -22 24 -11 34 0 32 0 28 9 23 18 23 18 15 24 8 29 rrcurveto
          23 89 34 45 44 0 29 0 35 -36 41 -71 58 -95 86 -48 114 0 96 0 83 28 71 56 81 61 59 73 38 86 62 147 89 125 116 104 74 63 66 44 59 24 58 24 63 12 68 0 rrcurveto
          239 -5 94 -175 -51 -347 -10 -53 -17 -92 -26 -129 -17 -93 26 -47 68 0 rrcurveto
          -170 -318 rmoveto
          24 0 22 2 20 5 39 9 24 29 11 50 7 32 -4 25 -14 18 -16 20 -21 10 -26 0 -42 0 -32 2 -21 4 -45 10 -8 82 27 154 18 94 18 89 15 82 16 83 -10 74 -35 66 rrcurveto
          -34 65 -61 33 -87 0 -166 -1 -140 -108 -113 -214 -47 -92 -34 -95 -20 -96 -61 -288 45 -144 153 0 142 2 83 60 25 117 4 22 -2 20 -9 19 -9 18 -16 9 -25 0 -26 0 -23 -10 -19 -20 rrcurveto
          -21 -20 -17 -10 -15 0 -28 0 1 73 31 146 19 88 25 72 32 56 63 112 60 56 58 0 15 0 12 -10 10 -21 9 -21 1 -32 -8 -43 rrcurveto
          -45 -250 rlineto
          -47 -243 48 -139 143 -36 41 -10 42 -5 44 0 rrcurveto
          endchar
        </CharString>
        <CharString name="asterisk">
          0 616 76 rmoveto
          39 0 34 12 29 24 29 24 17 26 7 29 rrcurveto
          41 197 137 -85 rlineto
          20 -11 22 -6 23 0 39 0 35 12 29 24 36 30 18 33 0 36 0 29 -13 24 -27 22 rrcurveto
          -164 104 209 104 rlineto
          53 32 27 39 0 45 0 21 -7 19 -14 18 -19 24 -30 12 -39 0 -23 0 -24 -6 -24 -11 rrcurveto
          -174 -86 rlineto
          29 138 15 73 0 7 0 20 -7 20 -14 18 -19 24 -28 12 -39 0 -39 0 -34 -12 -29 -24 -29 -24 -18 -26 -6 -29 rrcurveto
          -42 -197 -135 86 rlineto
          -20 11 -22 6 -24 0 -39 0 -34 -12 -29 -24 -37 -30 -19 -34 0 -37 0 -30 14 -24 28 -19 rrcurveto
          164 -104 -210 -104 rlineto
          -53 -34 -27 -39 0 -44 0 -20 7 -20 15 -18 19 -24 29 -12 39 0 24 0 24 6 24 11 rrcurveto
          172 86 rlineto
          -29 -140 -15 -72 0 -7 0 -20 8 -19 14 -18 19 -24 28 -12 39 0 rrcurveto
          endchar
        </CharString>
        <CharString name="asterisk_slash">
          0 -611 -54 rmoveto
          39 0 34 12 29 24 29 24 17 26 6 29 rrcurveto
          42 197 137 -85 rlineto
          19 -11 22 -6 23 0 39 0 35 12 29 24 36 30 18 33 0 36 0 29 -13 25 -26 21 rrcurveto
          -165 104 209 104 rlineto
          53 32 27 39 0 45 0 21 -7 19 -14 18 -19 24 -29 12 -39 0 -23 0 -24 -6 -25 -11 rrcurveto
          -173 -86 rlineto
          29 138 15 73 0 7 0 20 -7 20 -14 18 -19 24 -29 12 -39 0 -39 0 -33 -12 -29 -24 -29 -24 -18 -26 -6 -29 rrcurveto
          -42 -197 -136 86 rlineto
          -19 11 -22 6 -24 0 -39 0 -34 -12 -29 -24 -38 -30 -19 -34 0 -37 0 -30 14 -24 28 -19 rrcurveto
          164 -104 -209 -104 rlineto
          -54 -34 -27 -39 0 -44 0 -20 7 -20 15 -18 19 -24 29 -12 39 0 24 0 24 6 25 11 rrcurveto
          172 86 rlineto
          -29 -138 -15 -72 0 -7 0 -21 7 -20 15 -18 19 -24 28 -12 39 0 rrcurveto
          603 -171 rmoveto
          27 0 26 7 25 14 25 14 20 18 14 21 rrcurveto
          1065 1623 rlineto
          13 21 7 20 0 20 0 13 -3 14 -6 15 -15 35 -33 18 -51 0 -27 0 -26 -7 -25 -13 -25 -14 -20 -18 -13 -21 rrcurveto
          -1065 -1623 rlineto
          -13 -21 -7 -20 0 -19 0 -14 3 -14 7 -15 14 -36 32 -18 51 0 rrcurveto
          endchar
        </CharString>
        <CharString name="at">
          0 1098 268 rmoveto
          72 0 44 30 16 60 27 104 21 89 16 74 59 278 -13 204 -83 130 -94 142 -133 71 -172 0 -214 -1 -186 -88 -157 -173 -16 -18 -11 -23 -6 -26 -9 -41 5 -32 19 -23 18 -23 24 -12 31 0 rrcurveto
          32 0 29 11 24 22 63 58 58 46 52 33 52 33 60 16 66 0 239 -5 94 -175 -51 -347 -10 -53 -17 -92 -26 -129 -17 -93 26 -47 68 0 rrcurveto
          -170 -318 rmoveto
          24 0 22 2 20 5 39 9 24 29 11 50 7 32 -4 25 -14 18 -16 20 -21 10 -26 0 -42 0 -32 2 -21 4 -45 10 -8 82 27 154 18 94 18 89 15 82 16 83 -10 74 -35 66 rrcurveto
          -34 65 -61 33 -87 0 -166 -1 -140 -108 -113 -214 -47 -92 -34 -95 -20 -96 -61 -288 45 -144 153 0 142 2 83 60 25 117 4 22 -2 20 -9 19 -9 18 -16 9 -25 0 -26 0 -23 -10 -19 -20 rrcurveto
          -21 -20 -17 -10 -15 0 -28 0 1 73 31 146 19 88 25 72 32 56 63 112 60 56 58 0 15 0 12 -10 10 -21 9 -21 1 -32 -8 -43 rrcurveto
          -45 -250 rlineto
          -47 -243 48 -139 143 -36 41 -10 42 -5 44 0 rrcurveto
          endchar
        </CharString>
        <CharString name="b">
          0 651 171 rmoveto
          -14 hlineto
          -46 0 -38 17 -32 35 -31 34 -16 40 0 44 0 19 2 20 5 22 rrcurveto
          45 213 rlineto
          12 57 36 56 59 54 52 44 56 22 60 0 74 0 48 -20 22 -39 21 -40 11 -44 0 -49 0 -44 -6 -51 -13 -59 -50 -217 -103 -110 -154 -4 rrcurveto
          -5 -221 rmoveto
          150 0 119 50 87 100 88 99 64 143 41 184 15 71 7 65 0 59 0 86 -16 73 -32 61 -57 106 -97 53 -136 0 -78 0 -83 -31 -86 -62 -11 -7 -8 -4 -4 0 -1 0 0 1 0 2 rrcurveto
          0 3 14 68 29 134 35 161 17 85 0 9 0 21 -7 19 -13 15 -19 24 -26 12 -32 0 -29 0 -29 -11 -27 -21 -28 -21 -17 -26 -6 -32 -197 -926 -98 -467 0 -8 0 -20 6 -17 12 -15 rrcurveto
          18 -24 26 -12 34 0 62 0 43 35 25 71 5 13 2 7 -1 0 -2 0 -1 0 1 -1 68 -83 80 -42 93 0 rrcurveto
          endchar
        </CharString>
        <CharString name="backslash">
          0 917 -220 rmoveto
          42 0 35 17 29 34 20 25 10 25 0 25 0 9 -126 548 -251 1088 -6 21 -11 17 -18 12 -18 13 -20 6 -23 0 -41 0 -35 -17 -29 -33 -21 -24 -10 -26 0 -27 0 -8 126 -548 252 -1087 rrcurveto
          6 -21 12 -17 17 -13 17 -13 20 -6 23 0 rrcurveto
          endchar
        </CharString>
        <CharString name="bar">
          0 551 -250 rmoveto
          31 0 29 11 26 21 26 22 16 25 6 28 239 1128 120 567 0 8 0 20 -6 18 -13 17 -20 23 -26 12 -33 0 -31 0 -28 -11 -26 -21 -26 -21 -16 -25 -7 -29 -239 -1126 -120 -567 0 -7 rrcurveto
          0 -21 7 -19 14 -18 18 -23 26 -12 33 0 rrcurveto
          endchar
        </CharString>
        <CharString name="bar_bar">
          0 -454 -254 rmoveto
          35 0 33 12 31 25 31 25 18 25 5 27 239 1127 120 566 0 6 0 20 -8 20 -15 19 -21 24 -27 12 -35 0 -35 0 -32 -12 -31 -24 -31 -25 -19 -26 -6 -27 -239 -1125 -120 -566 0 -5 rrcurveto
          0 -21 9 -20 16 -20 20 -25 27 -12 35 0 rrcurveto
          800 hmoveto
          35 0 33 12 31 25 31 25 18 25 5 27 239 1127 120 566 0 6 0 20 -8 20 -15 19 -21 24 -27 12 -35 0 -35 0 -32 -12 -31 -24 -31 -25 -19 -26 -6 -27 -239 -1125 -120 -566 0 -5 rrcurveto
          0 -21 9 -20 16 -20 20 -25 27 -12 35 0 rrcurveto
          endchar
        </CharString>
        <CharString name="boxdrawingsdoubledownandhorizontal">
          0 520 -1000 rmoveto
          1620 -530 -160 370 -1460 vlineto
          850 1780 rmoveto
          160 -1220 -160 vlineto
          850 -1780 rmoveto
          1460 370 160 -530 -1620 vlineto
          endchar
        </CharString>
        <CharString name="boxdrawingsdoubledownandleft">
          0 520 -1000 rmoveto
          1620 -530 -160 370 -1460 vlineto
          480 hmoveto
          1940 -850 -160 690 -1780 vlineto
          endchar
        </CharString>
        <CharString name="boxdrawingsdoubledownandright">
          0 840 -1000 rmoveto
          1460 370 160 -530 -1620 vlineto
          -160 hmoveto
          1780 690 160 -850 -1940 vlineto
          endchar
        </CharString>
        <CharString name="boxdrawingsdoublehorizontal">
          0 1210 460 rmoveto
          160 -1220 -160 vlineto
          1220 320 rmoveto
          160 -1220 -160 vlineto
          endchar
        </CharString>
        <CharString name="boxdrawingsdoubleupandhorizontal">
          0 1210 460 rmoveto
          160 -1220 -160 vlineto
          1220 320 rmoveto
          160 -370 1060 -160 -1220 vlineto
          -160 hmoveto
          1220 -160 -1060 -370 -160 vlineto
          endchar
        </CharString>
        <CharString name="boxdrawingsdoubleupandleft">
          0 520 780 rmoveto
          1220 -160 -1060 -370 -160 vlineto
          850 -320 rmoveto
          1540 -160 -1380 -690 -160 vlineto
          endchar
        </CharString>
        <CharString name="boxdrawingsdoubleupandright">
          0 1210 780 rmoveto
          160 -370 1060 -160 -1220 vlineto
          530 -320 rmoveto
          160 -690 1380 -160 -1540 vlineto
          endchar
        </CharString>
        <CharString name="boxdrawingsdoublevertical">
          0 520 -1000 rmoveto
          3000 -160 -3000 vlineto
          480 hmoveto
          3000 -160 -3000 vlineto
          endchar
        </CharString>
        <CharString name="boxdrawingsdoubleverticalandhorizontal">
          0 520 -1000 rmoveto
          1620 -530 -160 370 -1460 vlineto
          160 1780 rmoveto
          1220 -160 -1060 -370 -160 vlineto
          1220 hmoveto
          160 -370 1060 -160 -1220 vlineto
          160 -1780 rmoveto
          1460 370 160 -530 -1620 vlineto
          endchar
        </CharString>
        <CharString name="boxdrawingsdoubleverticalandleft">
          0 520 -1000 rmoveto
          1620 -530 -160 370 -1460 vlineto
          480 hmoveto
          3000 -160 -3000 vlineto
          -160 1780 rmoveto
          1220 -160 -1060 -370 -160 vlineto
          endchar
        </CharString>
        <CharString name="boxdrawingsdoubleverticalandright">
          0 840 -1000 rmoveto
          1460 370 160 -530 -1620 vlineto
          -160 hmoveto
          3000 -160 -3000 vlineto
          850 1780 rmoveto
          160 -370 1060 -160 -1220 vlineto
          endchar
        </CharString>
        <CharString name="boxdrawingsdowndoubleandhorizontalsingle">
          0 840 -1000 rmoveto
          1620 370 160 -1220 -160 370 -1620 160 1620 160 -1620 vlineto
          endchar
        </CharString>
        <CharString name="boxdrawingsdowndoubleandleftsingle">
          0 840 -1000 rmoveto
          1780 -850 -160 370 -1620 160 1620 160 -1620 vlineto
          endchar
        </CharString>
        <CharString name="boxdrawingsdowndoubleandrightsingle">
          0 840 -1000 rmoveto
          1620 370 160 -850 -1780 160 1620 160 -1620 vlineto
          endchar
        </CharString>
        <CharString name="boxdrawingsdownheavyandhorizontallight">
          0 840 -1000 rmoveto
          1620 370 160 -1220 -160 370 -1620 vlineto
          endchar
        </CharString>
        <CharString name="boxdrawingsdownheavyandleftlight">
          0 840 -1000 rmoveto
          1780 -850 -160 370 -1620 vlineto
          endchar
        </CharString>
        <CharString name="boxdrawingsdownheavyandleftuplight">
          0 840 -1000 rmoveto
          1780 -160 1220 -160 -1220 -530 -160 370 -1620 vlineto
          endchar
        </CharString>
        <CharString name="boxdrawingsdownheavyandrightlight">
          0 840 -1000 rmoveto
          1620 370 160 -850 -1780 vlineto
          endchar
        </CharString>
        <CharString name="boxdrawingsdownheavyandrightuplight">
          0 840 -1000 rmoveto
          1620 370 160 -530 1220 -160 -1220 -160 -1780 vlineto
          endchar
        </CharString>
        <CharString name="boxdrawingsdownheavyanduphorizontallight">
          0 840 -1000 rmoveto
          1620 370 160 -530 1220 -160 -1220 -530 -160 370 -1620 vlineto
          endchar
        </CharString>
        <CharString name="boxdrawingsdownlightandhorizontalheavy">
          0 680 -1000 rmoveto
          1460 530 480 -1220 -480 530 -1460 vlineto
          endchar
        </CharString>
        <CharString name="boxdrawingsdownlightandleftheavy">
          0 680 -1000 rmoveto
          1940 -690 -480 530 -1460 vlineto
          endchar
        </CharString>
        <CharString name="boxdrawingsdownlightandleftupheavy">
          0 680 -1000 rmoveto
          1460 160 1540 -480 -1060 -370 -480 530 -1460 vlineto
          endchar
        </CharString>
        <CharString name="boxdrawingsdownlightandrightheavy">
          0 680 -1000 rmoveto
          1460 530 480 -690 -1940 vlineto
          endchar
        </CharString>
        <CharString name="boxdrawingsdownlightandrightupheavy">
          0 680 -1000 rmoveto
          1460 530 480 -370 1060 -480 -1540 160 -1460 vlineto
          endchar
        </CharString>
        <CharString name="boxdrawingsdownlightanduphorizontalheavy">
          0 680 -1000 rmoveto
          1460 530 480 -370 1060 -480 -1060 -370 -480 530 -1460 vlineto
          endchar
        </CharString>
        <CharString name="boxdrawingsdownsingleandhorizontaldouble">
          0 680 -1000 rmoveto
          1460 530 160 -1220 -160 530 -1460 vlineto
          690 1780 rmoveto
          160 -1220 -160 vlineto
          endchar
        </CharString>
        <CharString name="boxdrawingsdownsingleandleftdouble">
          0 680 -1000 rmoveto
          1940 -690 -160 530 -160 -530 -160 530 -1460 vlineto
          endchar
        </CharString>
        <CharString name="boxdrawingsdownsingleandrightdouble">
          0 680 -1000 rmoveto
          1460 530 160 -530 160 530 160 -690 -1940 vlineto
          endchar
        </CharString>
        <CharString name="boxdrawingsheavydoubledashhorizontal">
          0 520 460 rmoveto
          480 -440 -480 vlineto
          1040 hmoveto
          480 -440 -480 vlineto
          endchar
        </CharString>
        <CharString name="boxdrawingsheavydoubledashvertical">
          0 840 -360 rmoveto
          960 -480 -960 vlineto
          480 1440 rmoveto
          960 -480 -960 vlineto
          endchar
        </CharString>
        <CharString name="boxdrawingsheavydown">
          0 840 -1000 rmoveto
          1780 -480 -1780 vlineto
          endchar
        </CharString>
        <CharString name="boxdrawingsheavydownandhorizontal">
          0 840 -1000 rmoveto
          1460 370 480 -1220 -480 370 -1460 vlineto
          endchar
        </CharString>
        <CharString name="boxdrawingsheavydownandleft">
          0 840 -1000 rmoveto
          1940 -850 -480 370 -1460 vlineto
          endchar
        </CharString>
        <CharString name="boxdrawingsheavydownandright">
          0 840 -1000 rmoveto
          1460 370 480 -850 -1940 vlineto
          endchar
        </CharString>
        <CharString name="boxdrawingsheavyhorizontal">
          0 1210 460 rmoveto
          480 -1220 -480 vlineto
          endchar
        </CharString>
        <CharString name="boxdrawingsheavyleft">
          0 680 460 rmoveto
          480 -690 -480 vlineto
          endchar
        </CharString>
        <CharString name="boxdrawingsheavyleftandlightright">
          0 680 460 rmoveto
          160 530 160 -530 160 -690 -480 vlineto
          endchar
        </CharString>
        <CharString name="boxdrawingsheavyquadrupledashhorizontal">
          0 1125 460 rmoveto
          480 -150 -480 vlineto
          -450 hmoveto
          480 -150 -480 vlineto
          450 hmoveto
          480 -150 -480 vlineto
          -450 hmoveto
          480 -150 -480 vlineto
          endchar
        </CharString>
        <CharString name="boxdrawingsheavyquadrupledashvertical">
          0 840 -520 rmoveto
          540 -480 -540 vlineto
          480 2100 rmoveto
          540 -480 -540 vlineto
          480 -700 rmoveto
          540 -480 -540 vlineto
          480 -700 rmoveto
          540 -480 -540 vlineto
          endchar
        </CharString>
        <CharString name="boxdrawingsheavyright">
          0 1210 460 rmoveto
          480 -690 -480 vlineto
          endchar
        </CharString>
        <CharString name="boxdrawingsheavytripledashhorizontal">
          0 1120 460 rmoveto
          480 -240 -480 vlineto
          -560 hmoveto
          480 -240 -480 vlineto
          640 hmoveto
          480 -240 -480 vlineto
          endchar
        </CharString>
        <CharString name="boxdrawingsheavytripledashvertical">
          0 840 -520 rmoveto
          800 -480 -800 vlineto
          480 1920 rmoveto
          800 -480 -800 vlineto
          480 -960 rmoveto
          800 -480 -800 vlineto
          endchar
        </CharString>
        <CharString name="boxdrawingsheavyup">
          0 840 620 rmoveto
          1380 -480 -1380 vlineto
          endchar
        </CharString>
        <CharString name="boxdrawingsheavyupandhorizontal">
          0 1210 460 rmoveto
          480 -370 1060 -480 -1060 -370 -480 vlineto
          endchar
        </CharString>
        <CharString name="boxdrawingsheavyupandleft">
          0 840 460 rmoveto
          1540 -480 -1060 -370 -480 vlineto
          endchar
        </CharString>
        <CharString name="boxdrawingsheavyupandlightdown">
          0 680 -1000 rmoveto
          1620 160 1380 -480 -1380 160 -1620 vlineto
          endchar
        </CharString>
        <CharString name="boxdrawingsheavyupandright">
          0 1210 460 rmoveto
          480 -370 1060 -480 -1540 vlineto
          endchar
        </CharString>
        <CharString name="boxdrawingsheavyvertical">
          0 840 -1000 rmoveto
          3000 -480 -3000 vlineto
          endchar
        </CharString>
        <CharString name="boxdrawingsheavyverticalandhorizontal">
          0 840 -1000 rmoveto
          1460 370 480 -370 1060 -480 -1060 -370 -480 370 -1460 vlineto
          endchar
        </CharString>
        <CharString name="boxdrawingsheavyverticalandleft">
          0 840 -1000 rmoveto
          3000 -480 -1060 -370 -480 370 -1460 vlineto
          endchar
        </CharString>
        <CharString name="boxdrawingsheavyverticalandright">
          0 840 -1000 rmoveto
          1460 370 480 -370 1060 -480 -3000 vlineto
          endchar
        </CharString>
        <CharString name="boxdrawingsleftdownheavyandrightuplight">
          0 840 -1000 rmoveto
          1620 370 160 -370 160 -160 1060 -160 -1060 -530 -480 370 -1460 vlineto
          endchar
        </CharString>
        <CharString name="boxdrawingsleftheavyandrightdownlight">
          0 680 -1000 rmoveto
          1620 530 160 -530 160 -690 -480 530 -1460 vlineto
          endchar
        </CharString>
        <CharString name="boxdrawingsleftheavyandrightuplight">
          0 680 460 rmoveto
          160 530 160 -530 1220 -160 -1060 -530 -480 vlineto
          endchar
        </CharString>
        <CharString name="boxdrawingsleftheavyandrightverticallight">
          0 680 -1000 rmoveto
          1620 530 160 -530 1220 -160 -1060 -530 -480 530 -1460 vlineto
          endchar
        </CharString>
        <CharString name="boxdrawingsleftlightandrightdownheavy">
          0 840 -1000 rmoveto
          1460 370 480 -850 -160 -370 -160 370 -1620 vlineto
          endchar
        </CharString>
        <CharString name="boxdrawingsleftlightandrightupheavy">
          0 1210 460 rmoveto
          480 -370 1060 -480 -1220 -370 -160 370 -160 vlineto
          endchar
        </CharString>
        <CharString name="boxdrawingsleftlightandrightverticalheavy">
          0 840 -1000 rmoveto
          1460 370 480 -370 1060 -480 -1220 -370 -160 370 -1620 vlineto
          endchar
        </CharString>
        <CharString name="boxdrawingsleftupheavyandrightdownlight">
          0 680 -1000 rmoveto
          1460 160 160 370 160 -370 1220 -480 -1060 -370 -480 530 -1460 vlineto
          endchar
        </CharString>
        <CharString name="boxdrawingslightarcdownandleft">
          0 680 -1000 rmoveto
          1240 vlineto
          0 75 -14 70 -28 65 -28 65 -39 57 -49 50 -50 49 -57 39 -65 28 -65 28 -70 14 -75 0 rrcurveto
          -150 -160 150 hlineto
          69 0 64 -17 58 -34 57 -35 46 -46 35 -57 34 -58 17 -64 0 -69 rrcurveto
          -1240 vlineto
          endchar
        </CharString>
        <CharString name="boxdrawingslightarcdownandright">
          0 680 -1000 rmoveto
          1240 vlineto
          0 69 17 64 35 58 34 57 46 46 58 35 57 34 64 17 69 0 rrcurveto
          150 160 -150 hlineto
          -75 0 -69 -14 -65 -28 -65 -28 -58 -39 -49 -49 -50 -50 -39 -57 -28 -65 -28 -65 -14 -70 0 -75 rrcurveto
          -1240 vlineto
          endchar
        </CharString>
        <CharString name="boxdrawingslightarcupandleft">
          0 140 620 rmoveto
          75 0 70 14 65 28 65 28 57 39 50 50 49 49 39 58 28 65 28 65 14 69 0 75 rrcurveto
          1240 -160 -1240 vlineto
          0 -69 -17 -64 -34 -57 -35 -58 -46 -46 -57 -34 -58 -35 -64 -17 -69 0 rrcurveto
          -150 -160 hlineto
          endchar
        </CharString>
        <CharString name="boxdrawingslightarcupandright">
          0 1210 620 rmoveto
          160 -150 vlineto
          -69 0 -64 17 -57 35 -58 34 -46 46 -34 58 -35 57 -17 64 0 69 rrcurveto
          1240 -160 -1240 vlineto
          0 -75 14 -69 28 -65 28 -65 39 -58 50 -49 49 -50 58 -39 65 -28 65 -28 69 -14 75 0 rrcurveto
          endchar
        </CharString>
        <CharString name="boxdrawingslightdiagonalcross">
          0 1130 -635 rmoveto
          -530 1060 -530 -1060 -145 72 585 1169 -580 1160 144 71 526 -1051 526 1051 144 -71 -580 -1160 585 -1169 rlineto
          endchar
        </CharString>
        <CharString name="boxdrawingslightdiagonalupperlefttolowerright">
          0 1130 -635 rmoveto
          -1200 2401 144 71 1201 -2400 rlineto
          endchar
        </CharString>
        <CharString name="boxdrawingslightdiagonalupperrighttolowerleft">
          0 70 -635 rmoveto
          1200 2401 -144 71 -1201 -2400 rlineto
          endchar
        </CharString>
        <CharString name="boxdrawingslightdoubledashhorizontal">
          0 520 620 rmoveto
          160 -440 -160 vlineto
          1040 hmoveto
          160 -440 -160 vlineto
          endchar
        </CharString>
        <CharString name="boxdrawingslightdoubledashvertical">
          0 680 -520 rmoveto
          1280 -160 -1280 vlineto
          160 1440 rmoveto
          1280 -160 -1280 vlineto
          endchar
        </CharString>
        <CharString name="boxdrawingslightdown">
          0 680 -1000 rmoveto
          1780 -160 -1780 vlineto
          endchar
        </CharString>
        <CharString name="boxdrawingslightdownandhorizontal">
          0 680 -1000 rmoveto
          1620 530 160 -1220 -160 530 -1620 vlineto
          endchar
        </CharString>
        <CharString name="boxdrawingslightdownandleft">
          0 680 -1000 rmoveto
          1780 -690 -160 530 -1620 vlineto
          endchar
        </CharString>
        <CharString name="boxdrawingslightdownandright">
          0 680 -1000 rmoveto
          1620 530 160 -690 -1780 vlineto
          endchar
        </CharString>
        <CharString name="boxdrawingslighthorizontal">
          0 1210 620 rmoveto
          160 -1220 -160 vlineto
          endchar
        </CharString>
        <CharString name="boxdrawingslightleft">
          0 680 620 rmoveto
          160 -690 -160 vlineto
          endchar
        </CharString>
        <CharString name="boxdrawingslightleftandheavyright">
          0 1210 460 rmoveto
          480 -690 -160 -530 -160 530 -160 vlineto
          endchar
        </CharString>
        <CharString name="boxdrawingslightquadrupledashhorizontal">
          0 1125 620 rmoveto
          160 -150 -160 vlineto
          -450 hmoveto
          160 -150 -160 vlineto
          450 hmoveto
          160 -150 -160 vlineto
          -450 hmoveto
          160 -150 -160 vlineto
          endchar
        </CharString>
        <CharString name="boxdrawingslightquadrupledashvertical">
          0 680 -520 rmoveto
          540 -160 -540 vlineto
          160 2100 rmoveto
          540 -160 -540 vlineto
          160 -700 rmoveto
          540 -160 -540 vlineto
          160 -700 rmoveto
          540 -160 -540 vlineto
          endchar
        </CharString>
        <CharString name="boxdrawingslightright">
          0 1210 620 rmoveto
          160 -690 -160 vlineto
          endchar
        </CharString>
        <CharString name="boxdrawingslighttripledashhorizontal">
          0 1120 620 rmoveto
          160 -240 -160 vlineto
          -560 hmoveto
          160 -240 -160 vlineto
          640 hmoveto
          160 -240 -160 vlineto
          endchar
        </CharString>
        <CharString name="boxdrawingslighttripledashvertical">
          0 680 -520 rmoveto
          800 -160 -800 vlineto
          160 1920 rmoveto
          800 -160 -800 vlineto
          160 -960 rmoveto
          800 -160 -800 vlineto
          endchar
        </CharString>
        <CharString name="boxdrawingslightup">
          0 680 620 rmoveto
          1380 -160 -1380 vlineto
          endchar
        </CharString>
        <CharString name="boxdrawingslightupandheavydown">
          0 840 -1000 rmoveto
          1780 -160 1220 -160 -1220 -160 -1780 vlineto
          endchar
        </CharString>
        <CharString name="boxdrawingslightupandhorizontal">
          0 1210 620 rmoveto
          160 -530 1220 -160 -1220 -530 -160 vlineto
          endchar
        </CharString>
        <CharString name="boxdrawingslightupandleft">
          0 680 620 rmoveto
          1380 -160 -1220 -530 -160 vlineto
          endchar
        </CharString>
        <CharString name="boxdrawingslightupandright">
          0 1210 620 rmoveto
          160 -530 1220 -160 -1380 vlineto
          endchar
        </CharString>
        <CharString name="boxdrawingslightvertical">
          0 680 -1000 rmoveto
          3000 -160 -3000 vlineto
          endchar
        </CharString>
        <CharString name="boxdrawingslightverticalandhorizontal">
          0 680 -1000 rmoveto
          1620 530 160 -530 1220 -160 -1220 -530 -160 530 -1620 vlineto
          endchar
        </CharString>
        <CharString name="boxdrawingslightverticalandleft">
          0 680 -1000 rmoveto
          3000 -160 -1220 -530 -160 530 -1620 vlineto
          endchar
        </CharString>
        <CharString name="boxdrawingslightverticalandright">
          0 680 -1000 rmoveto
          1620 530 160 -530 1220 -160 -3000 vlineto
          endchar
        </CharString>
        <CharString name="boxdrawingsrightdownheavyandleftuplight">
          0 840 -1000 rmoveto
          1460 370 480 -530 1060 -160 -1060 -160 -160 -370 -160 370 -1620 vlineto
          endchar
        </CharString>
        <CharString name="boxdrawingsrightheavyandleftdownlight">
          0 680 -1000 rmoveto
          1460 530 480 -690 -160 -530 -160 530 -1620 vlineto
          endchar
        </CharString>
        <CharString name="boxdrawingsrightheavyandleftuplight">
          0 1210 460 rmoveto
          480 -530 1060 -160 -1220 -530 -160 530 -160 vlineto
          endchar
        </CharString>
        <CharString name="boxdrawingsrightheavyandleftverticallight">
          0 680 -1000 rmoveto
          1460 530 480 -530 1060 -160 -1220 -530 -160 530 -1620 vlineto
          endchar
        </CharString>
        <CharString name="boxdrawingsrightlightandleftdownheavy">
          0 840 -1000 rmoveto
          1620 370 160 -370 160 -850 -480 370 -1460 vlineto
          endchar
        </CharString>
        <CharString name="boxdrawingsrightlightandleftupheavy">
          0 840 460 rmoveto
          160 370 160 -370 1220 -480 -1060 -370 -480 vlineto
          endchar
        </CharString>
        <CharString name="boxdrawingsrightlightandleftverticalheavy">
          0 840 -1000 rmoveto
          1620 370 160 -370 1220 -480 -1060 -370 -480 370 -1460 vlineto
          endchar
        </CharString>
        <CharString name="boxdrawingsrightupheavyandleftdownlight">
          0 680 -1000 rmoveto
          1460 530 480 -370 1060 -480 -1220 -370 -160 370 -160 160 -1460 vlineto
          endchar
        </CharString>
        <CharString name="boxdrawingsupdoubleandhorizontalsingle">
          0 1210 620 rmoveto
          160 -370 1220 -160 -1220 -160 1220 -160 -1220 -370 -160 vlineto
          endchar
        </CharString>
        <CharString name="boxdrawingsupdoubleandleftsingle">
          0 840 620 rmoveto
          1380 -160 -1220 -160 1220 -160 -1220 -370 -160 vlineto
          endchar
        </CharString>
        <CharString name="boxdrawingsupdoubleandrightsingle">
          0 1210 620 rmoveto
          160 -370 1220 -160 -1220 -160 1220 -160 -1380 vlineto
          endchar
        </CharString>
        <CharString name="boxdrawingsupheavyanddownhorizontallight">
          0 680 -1000 rmoveto
          1620 530 160 -370 1220 -480 -1220 -370 -160 530 -1620 vlineto
          endchar
        </CharString>
        <CharString name="boxdrawingsupheavyandhorizontallight">
          0 1210 620 rmoveto
          160 -370 1220 -480 -1220 -370 -160 vlineto
          endchar
        </CharString>
        <CharString name="boxdrawingsupheavyandleftdownlight">
          0 680 -1000 rmoveto
          1620 160 1380 -480 -1220 -370 -160 530 -1620 vlineto
          endchar
        </CharString>
        <CharString name="boxdrawingsupheavyandleftlight">
          0 840 620 rmoveto
          1380 -480 -1220 -370 -160 vlineto
          endchar
        </CharString>
        <CharString name="boxdrawingsupheavyandrightdownlight">
          0 680 -1000 rmoveto
          1620 530 160 -370 1220 -480 -1380 160 -1620 vlineto
          endchar
        </CharString>
        <CharString name="boxdrawingsupheavyandrightlight">
          0 1210 620 rmoveto
          160 -370 1220 -480 -1380 vlineto
          endchar
        </CharString>
        <CharString name="boxdrawingsuplightanddownhorizontalheavy">
          0 840 -1000 rmoveto
          1460 370 480 -530 1060 -160 -1060 -530 -480 370 -1460 vlineto
          endchar
        </CharString>
        <CharString name="boxdrawingsuplightandhorizontalheavy">
          0 1210 460 rmoveto
          480 -530 1060 -160 -1060 -530 -480 vlineto
          endchar
        </CharString>
        <CharString name="boxdrawingsuplightandleftdownheavy">
          0 840 -1000 rmoveto
          1940 -160 1060 -160 -1060 -530 -480 370 -1460 vlineto
          endchar
        </CharString>
        <CharString name="boxdrawingsuplightandleftheavy">
          0 680 460 rmoveto
          1540 -160 -1060 -530 -480 vlineto
          endchar
        </CharString>
        <CharString name="boxdrawingsuplightandrightdownheavy">
          0 840 -1000 rmoveto
          1460 370 480 -530 1060 -160 -1060 -160 -1940 vlineto
          endchar
        </CharString>
        <CharString name="boxdrawingsuplightandrightheavy">
          0 1210 460 rmoveto
          480 -530 1060 -160 -1540 vlineto
          endchar
        </CharString>
        <CharString name="boxdrawingsupsingleandhorizontaldouble">
          0 1210 460 rmoveto
          160 -1220 -160 vlineto
          1220 320 rmoveto
          160 -530 1060 -160 -1060 -530 -160 vlineto
          endchar
        </CharString>
        <CharString name="boxdrawingsupsingleandleftdouble">
          0 680 460 rmoveto
          1540 -160 -1060 -530 -160 530 -160 -530 -160 vlineto
          endchar
        </CharString>
        <CharString name="boxdrawingsupsingleandrightdouble">
          0 1210 460 rmoveto
          160 -530 160 530 160 -530 1060 -160 -1540 vlineto
          endchar
        </CharString>
        <CharString name="boxdrawingsverticaldoubleandhorizontalsingle">
          0 840 -1000 rmoveto
          1620 370 160 -370 1220 -160 -1220 -160 1220 -160 -1220 -370 -160 370 -1620 160 1620 160 -1620 vlineto
          endchar
        </CharString>
        <CharString name="boxdrawingsverticaldoubleandleftsingle">
          0 840 -1000 rmoveto
          3000 -160 -3000 vlineto
          -160 hmoveto
          3000 -160 -1220 -370 -160 370 -1620 vlineto
          endchar
        </CharString>
        <CharString name="boxdrawingsverticaldoubleandrightsingle">
          0 520 -1000 rmoveto
          3000 -160 -3000 vlineto
          480 hmoveto
          1620 370 160 -370 1220 -160 -3000 vlineto
          endchar
        </CharString>
        <CharString name="boxdrawingsverticalheavyandhorizontallight">
          0 840 -1000 rmoveto
          1620 370 160 -370 1220 -480 -1220 -370 -160 370 -1620 vlineto
          endchar
        </CharString>
        <CharString name="boxdrawingsverticalheavyandleftlight">
          0 840 -1000 rmoveto
          3000 -480 -1220 -370 -160 370 -1620 vlineto
          endchar
        </CharString>
        <CharString name="boxdrawingsverticalheavyandrightlight">
          0 840 -1000 rmoveto
          1620 370 160 -370 1220 -480 -3000 vlineto
          endchar
        </CharString>
        <CharString name="boxdrawingsverticallightandhorizontalheavy">
          0 680 -1000 rmoveto
          1460 530 480 -530 1060 -160 -1060 -530 -480 530 -1460 vlineto
          endchar
        </CharString>
        <CharString name="boxdrawingsverticallightandleftheavy">
          0 680 -1000 rmoveto
          3000 -160 -1060 -530 -480 530 -1460 vlineto
          endchar
        </CharString>
        <CharString name="boxdrawingsverticallightandrightheavy">
          0 680 -1000 rmoveto
          1460 530 480 -530 1060 -160 -3000 vlineto
          endchar
        </CharString>
        <CharString name="boxdrawingsverticalsingleandhorizontaldouble">
          0 680 -1000 rmoveto
          1460 530 160 -530 160 530 160 -530 1060 -160 -1060 -530 -160 530 -160 -530 -160 530 -1460 vlineto
          endchar
        </CharString>
        <CharString name="boxdrawingsverticalsingleandleftdouble">
          0 680 -1000 rmoveto
          3000 -160 -1060 -530 -160 530 -160 -530 -160 530 -1460 vlineto
          endchar
        </CharString>
        <CharString name="boxdrawingsverticalsingleandrightdouble">
          0 680 -1000 rmoveto
          1460 530 160 -530 160 530 160 -530 1060 -160 -3000 vlineto
          endchar
        </CharString>
        <CharString name="braceleft">
          0 872 -283 rmoveto
          29 0 26 9 24 19 23 18 16 26 7 34 1 8 1 8 0 7 0 19 -5 17 -12 15 -19 22 -24 11 -30 0 rrcurveto
          -68 hlineto
          -123 0 -62 40 0 79 0 17 9 41 17 62 rrcurveto
          47 209 rlineto
          11 53 6 47 0 41 0 72 -18 55 -36 37 -3 3 -1 3 0 3 0 9 4 7 9 6 78 57 55 100 31 145 rrcurveto
          41 208 rlineto
          6 40 5 28 4 17 11 55 33 44 55 32 34 20 52 10 71 0 rrcurveto
          69 hlineto
          28 0 26 9 23 19 33 27 17 34 0 41 0 21 -6 17 -11 14 -19 21 -25 10 -30 0 -105 0 -65 -1 -27 -1 -76 -5 -67 -23 -59 -41 -103 -68 -65 -98 -28 -130 -6 -27 -10 -56 -14 -83 rrcurveto
          -15 -84 -9 -51 -4 -20 -15 -69 -27 -50 -39 -32 -24 -21 -29 -10 -32 0 -83 0 -50 -36 -15 -73 -3 -12 -1 -10 0 -10 0 -57 37 -28 75 0 30 0 23 -9 15 -19 15 -19 7 -27 0 -34 rrcurveto
          0 -20 -2 -23 -6 -25 -4 -20 -13 -51 -21 -83 -21 -84 -14 -55 -6 -28 -7 -34 -3 -33 0 -30 0 -84 27 -68 56 -51 43 -42 59 -24 76 -4 26 -2 65 -1 104 0 rrcurveto
          endchar
        </CharString>
        <CharString name="braceright">
          0 307 -283 rmoveto
          43 0 36 1 28 2 27 1 33 7 37 10 37 11 34 17 32 22 103 68 66 98 27 130 6 27 10 56 14 83 15 83 9 52 5 20 14 69 27 50 39 32 25 21 29 10 32 0 rrcurveto
          83 0 50 36 15 73 3 12 1 10 0 10 0 57 -37 28 -75 0 -30 0 -23 9 -15 19 -15 18 -8 27 0 34 0 20 3 23 6 26 4 20 12 51 21 84 21 83 14 55 6 28 rrcurveto
          7 35 4 33 0 30 0 84 -28 67 -56 51 -42 42 -59 24 -76 5 -27 1 -65 1 -105 0 -29 0 -26 -9 -23 -19 -24 -18 -15 -26 -7 -34 -1 -8 -1 -7 0 -8 0 -19 6 -17 12 -15 rrcurveto
          18 -22 24 -11 30 0 rrcurveto
          69 hlineto
          123 0 61 -40 0 -80 0 -18 -8 -40 -17 -61 rrcurveto
          -47 -209 rlineto
          -11 -53 -6 -47 0 -41 0 -72 18 -55 35 -37 3 -3 2 -3 0 -4 0 -8 -5 -7 -8 -6 -78 -57 -55 -100 -31 -145 rrcurveto
          -41 -208 rlineto
          -6 -40 -5 -28 -4 -17 -12 -55 -33 -44 -55 -32 -33 -20 -52 -10 -71 0 rrcurveto
          -68 hlineto
          -28 0 -26 -9 -23 -19 -33 -27 -17 -34 0 -41 0 -21 6 -17 11 -13 18 -21 24 -11 31 0 rrcurveto
          endchar
        </CharString>
        <CharString name="bracketleft">
          0 783 -290 rmoveto
          32 0 28 10 25 21 34 28 17 33 0 38 0 20 -6 18 -13 17 -19 23 -26 12 -34 0 rrcurveto
          -336 hlineto
          -2 0 -1 1 0 2 0 2 107 507 215 1012 4 11 5 5 7 0 rrcurveto
          337 hlineto
          32 0 28 10 25 21 34 28 17 33 0 38 0 20 -6 18 -13 17 -19 23 -26 12 -34 0 rrcurveto
          -456 hlineto
          -33 0 -30 -11 -26 -22 -27 -22 -16 -25 -7 -30 -250 -1177 -125 -592 0 -7 0 -21 7 -19 13 -17 20 -25 27 -12 35 0 rrcurveto
          endchar
        </CharString>
        <CharString name="bracketright">
          0 759 -290 rmoveto
          33 0 30 11 26 22 26 22 16 25 7 30 250 1177 125 593 0 7 0 21 -6 19 -13 16 -20 25 -27 12 -35 0 rrcurveto
          -456 hlineto
          -32 0 -28 -10 -25 -21 -34 -28 -17 -33 0 -38 0 -20 6 -18 13 -16 19 -24 26 -12 34 0 rrcurveto
          336 hlineto
          2 0 1 -1 0 -2 0 -2 -108 -507 -215 -1011 -3 -11 -5 -6 -7 0 rrcurveto
          -337 hlineto
          -32 0 -28 -10 -25 -21 -34 -28 -17 -33 0 -38 0 -20 6 -18 13 -16 19 -24 26 -12 34 0 rrcurveto
          endchar
        </CharString>
        <CharString name="bracketright_numbersign">
          0 1173 1145 rmoveto
          29 137 15 71 0 6 0 21 -8 20 -16 19 -21 24 -28 12 -35 0 -35 0 -32 -12 -31 -25 -31 -25 -19 -25 -6 -27 rrcurveto
          -42 -196 rlineto
          226 -820 rmoveto
          35 0 33 12 31 25 38 30 20 32 0 32 0 21 -9 21 -16 20 -21 25 -27 12 -35 0 rrcurveto
          -100 hlineto
          -49 -230 rlineto
          -1485 -619 rmoveto
          36 0 34 13 31 25 31 25 19 26 6 28 rrcurveto
          107 502 rlineto
          881 hlineto
          49 230 rlineto
          -881 hlineto
          62 290 rlineto
          481 hlineto
          48 230 rlineto
          -481 hlineto
          73 341 36 174 0 6 0 21 -8 20 -16 20 -21 25 -29 12 -36 0 rrcurveto
          -456 hlineto
          -35 0 -32 -12 -31 -24 -38 -30 -19 -32 0 -34 0 -21 8 -19 16 -19 21 -25 27 -12 35 0 rrcurveto
          331 hlineto
          -326 -1532 rlineto
          -331 hlineto
          -35 0 -32 -12 -31 -24 -38 -30 -19 -32 0 -34 0 -21 8 -19 16 -19 21 -25 27 -12 35 0 rrcurveto
          2152 1139 rmoveto
          35 0 33 13 31 25 38 30 19 32 0 34 0 20 -8 20 -16 19 -21 25 -28 12 -35 0 rrcurveto
          -500 hlineto
          -48 -230 rlineto
          -361 -900 rmoveto
          35 0 33 12 31 25 31 25 19 26 6 27 rrcurveto
          41 195 rlineto
          -261 hlineto
          -29 -136 -14 -71 0 -6 0 -21 8 -20 17 -19 21 -25 27 -12 35 0 rrcurveto
          275 680 rmoveto
          103 484 51 244 0 6 0 21 -8 20 -17 19 -21 24 -28 12 -35 0 -35 0 -32 -12 -31 -25 -31 -25 -19 -25 -6 -27 rrcurveto
          -152 -716 rlineto
          386 -680 rmoveto
          35 0 33 12 31 25 31 25 18 26 6 27 rrcurveto
          152 715 rlineto
          -260 hlineto
          -103 -483 -51 -244 0 -6 0 -21 8 -20 17 -19 21 -25 27 -12 35 0 rrcurveto
          endchar
        </CharString>
        <CharString name="c">
          0 652 -50 rmoveto
          116 0 120 42 124 83 39 25 19 35 0 45 0 19 -5 17 -9 13 -15 23 -24 12 -31 0 -24 0 -21 -6 -17 -11 -82 -51 -74 -25 -66 0 -149 0 -74 75 0 151 0 35 5 39 9 42 rrcurveto
          25 119 45 89 66 59 65 59 78 29 89 0 50 0 47 -14 44 -28 3 -2 2 -5 0 -7 0 -8 -17 -8 -35 -8 -37 -8 -19 -20 0 -32 1 -45 24 -23 47 0 91 1 74 38 58 74 rrcurveto
          21 26 10 34 0 40 0 46 -18 42 -35 37 -69 68 -91 34 -114 0 -97 0 -93 -22 -90 -45 -90 -44 -78 -63 -65 -82 -66 -82 -47 -108 -30 -135 -12 -57 -6 -53 0 -49 0 -154 56 -114 113 -72 rrcurveto
          73 -47 86 -23 100 0 rrcurveto
          endchar
        </CharString>
        <CharString name="colon">
          0 763 731 rmoveto
          50 0 47 18 43 36 55 47 27 56 0 66 0 33 -10 29 -19 26 -29 39 -41 19 -53 0 -53 0 -48 -18 -43 -36 -56 -46 -28 -56 0 -65 0 -34 10 -30 21 -26 29 -39 43 -19 55 0 rrcurveto
          -166 -781 rmoveto
          50 0 47 18 43 37 55 47 27 56 0 65 0 33 -10 29 -19 26 -29 39 -41 20 -53 0 -53 0 -48 -18 -43 -36 -56 -47 -28 -55 0 -65 0 -34 10 -30 21 -27 29 -39 43 -19 55 0 rrcurveto
          endchar
        </CharString>
        <CharString name="colon_center">
          0 754 707 rmoveto
          57 0 52 19 45 39 58 49 29 56 0 64 0 34 -10 31 -21 28 -29 38 -44 19 -57 0 -60 0 -53 -19 -45 -38 -59 -50 -30 -56 0 -62 0 -34 11 -32 22 -28 29 -39 45 -19 60 0 rrcurveto
          -125 -591 rmoveto
          57 0 52 19 45 39 58 50 29 56 0 61 0 35 -11 31 -21 29 -29 39 -43 19 -57 0 -60 0 -53 -19 -46 -39 -59 -49 -29 -57 0 -63 0 -34 11 -31 22 -28 29 -39 45 -19 60 0 rrcurveto
          endchar
        </CharString>
        <CharString name="colon_center_left">
          0 454 707 rmoveto
          57 0 52 19 45 39 58 49 29 56 0 64 0 34 -10 31 -21 28 -29 38 -44 19 -57 0 -60 0 -53 -19 -45 -38 -59 -50 -30 -56 0 -62 0 -34 11 -32 22 -28 29 -39 45 -19 60 0 rrcurveto
          -125 -591 rmoveto
          57 0 52 19 45 39 58 50 29 56 0 61 0 35 -11 31 -21 29 -29 39 -43 19 -57 0 -60 0 -53 -19 -46 -39 -59 -49 -29 -57 0 -63 0 -34 11 -31 22 -28 29 -39 45 -19 60 0 rrcurveto
          endchar
        </CharString>
        <CharString name="colon_center_right">
          0 1054 707 rmoveto
          57 0 52 19 45 39 58 49 29 56 0 64 0 34 -10 31 -21 28 -29 38 -44 19 -57 0 -60 0 -53 -19 -45 -38 -59 -50 -30 -56 0 -62 0 -34 11 -32 22 -28 29 -39 45 -19 60 0 rrcurveto
          -125 -591 rmoveto
          57 0 52 19 45 39 58 50 29 56 0 61 0 35 -11 31 -21 29 -29 39 -43 19 -57 0 -60 0 -53 -19 -46 -39 -59 -49 -29 -57 0 -63 0 -34 11 -31 22 -28 29 -39 45 -19 60 0 rrcurveto
          endchar
        </CharString>
        <CharString name="comma">
          0 280 -437 rmoveto
          166 17 137 63 109 108 105 106 52 120 0 133 0 64 -16 52 -33 42 -29 37 -44 19 -57 0 -77 0 -60 -27 -45 -54 -34 -37 -18 -43 0 -49 0 -35 12 -31 22 -27 24 -30 12 -29 0 -28 rrcurveto
          0 -40 -21 -35 -42 -28 -35 -24 -45 -15 -53 -7 -80 -9 -47 -40 -15 -71 rrcurveto
          -1 -16 rlineto
          0 -57 38 -29 75 0 rrcurveto
          endchar
        </CharString>
        <CharString name="d">
          0 628 171 rmoveto
          -124 1 -62 67 0 133 0 36 4 42 9 46 26 125 39 90 53 55 53 55 65 27 78 0 58 0 44 -21 30 -42 27 -39 14 -40 0 -42 0 -14 -2 -14 -3 -15 rrcurveto
          -45 -213 rlineto
          -15 -74 -36 -58 -57 -42 -56 -42 -52 -21 -48 0 rrcurveto
          398 -221 rmoveto
          78 0 60 23 41 47 13 14 6 15 0 17 0 15 -6 15 -11 14 -11 15 -16 7 -23 0 -16 0 -13 -2 -10 -5 -11 -5 -7 -2 -4 0 -12 0 -6 9 0 17 0 7 1 8 2 10 rrcurveto
          175 848 88 429 0 12 0 21 -7 19 -14 16 -20 24 -26 12 -32 0 -29 0 -28 -11 -27 -21 -26 -21 -17 -26 -7 -32 rrcurveto
          -90 -424 rlineto
          -2 -13 -5 -6 -7 0 -4 0 -4 3 -5 5 -63 64 -71 32 -80 0 -133 0 -115 -51 -98 -102 -98 -102 -67 -138 -38 -175 -17 -85 -9 -76 0 -66 0 -78 12 -66 24 -54 49 -105 100 -52 152 0 rrcurveto
          97 0 117 47 137 93 6 4 4 2 1 0 -6 0 -3 -3 0 -6 2 -91 44 -46 85 0 rrcurveto
          endchar
        </CharString>
        <CharString name="dagger">
          0 1125 850 rmoveto
          33 0 29 11 25 22 33 28 16 32 0 37 0 20 -6 18 -13 16 -18 24 -26 12 -35 0 rrcurveto
          -680 hlineto
          -32 0 -28 -11 -27 -21 -33 -27 -16 -32 0 -39 0 -20 6 -18 13 -15 19 -25 26 -12 34 0 rrcurveto
          515 300 rmoveto
          28 132 14 70 0 7 0 21 -7 19 -13 16 -19 23 -26 12 -33 0 -31 0 -28 -11 -26 -21 -26 -21 -16 -25 -7 -29 rrcurveto
          -41 -193 rlineto
          -135 -1200 rmoveto
          31 0 28 11 26 21 26 22 16 25 7 28 rrcurveto
          151 713 rlineto
          -231 hlineto
          -101 -479 -51 -243 0 -7 0 -20 6 -18 13 -16 20 -25 26 -12 33 0 rrcurveto
          endchar
        </CharString>
        <CharString name="darkshade">
          0 -600 vmoveto
          1200 2640 -120 -120 -120 120 -120 -120 -120 120 -120 -120 -120 120 -120 -120 -120 120 -120 -120 -120 -120 120 -120 -120 -120 120 -120 -120 -120 120 -120 -120 -120 120 -120 -120 -120 120 -120 -120 -120 120 -120 -120 -120 120 -120 hlineto
          -120 -120 120 -120 -120 -120 120 -120 -120 -120 120 -120 -120 hlineto
          960 2160 rmoveto
          120 120 -120 vlineto
          -360 hmoveto
          120 120 -120 vlineto
          -360 hmoveto
          120 120 -120 vlineto
          -360 hmoveto
          120 120 -120 vlineto
          600 -240 rmoveto
          120 120 -120 vlineto
          -360 hmoveto
          120 120 -120 vlineto
          -360 hmoveto
          120 120 -120 vlineto
          -360 hmoveto
          120 120 -120 vlineto
          600 -240 rmoveto
          120 120 -120 vlineto
          -360 hmoveto
          120 120 -120 vlineto
          -600 hmoveto
          120 120 -120 vlineto
          120 hmoveto
          120 120 -120 vlineto
          360 -240 rmoveto
          120 120 -120 vlineto
          -840 hmoveto
          120 120 -120 vlineto
          360 hmoveto
          120 120 -120 vlineto
          -360 hmoveto
          120 120 -120 vlineto
          -360 -240 rmoveto
          120 120 -120 vlineto
          600 hmoveto
          120 120 -120 vlineto
          -600 hmoveto
          120 120 -120 vlineto
          120 hmoveto
          120 120 -120 vlineto
          -120 -240 rmoveto
          120 120 -120 vlineto
          -600 hmoveto
          120 120 -120 vlineto
          120 hmoveto
          120 120 -120 vlineto
          360 hmoveto
          120 120 -120 vlineto
          -840 -240 rmoveto
          120 120 -120 vlineto
          120 hmoveto
          120 120 -120 vlineto
          120 hmoveto
          120 120 -120 vlineto
          120 hmoveto
          120 120 -120 vlineto
          -120 -240 rmoveto
          120 120 -120 vlineto
          -360 hmoveto
          120 120 -120 vlineto
          -360 hmoveto
          120 120 -120 vlineto
          -360 hmoveto
          120 120 -120 vlineto
          600 -240 rmoveto
          120 120 -120 vlineto
          -360 hmoveto
          120 120 -120 vlineto
          -360 hmoveto
          120 120 -120 vlineto
          -360 hmoveto
          120 120 -120 vlineto
          -120 -240 rmoveto
          120 120 -120 vlineto
          600 hmoveto
          120 120 -120 vlineto
          -360 hmoveto
          120 120 -120 vlineto
          -360 hmoveto
          120 120 -120 vlineto
          endchar
        </CharString>
        <CharString name="divide">
          0 1048 490 rmoveto
          32 0 29 11 25 21 26 21 16 25 6 28 6 30 -5 27 -19 23 -18 23 -26 11 -33 0 rrcurveto
          -680 hlineto
          -32 0 -29 -11 -25 -21 -26 -21 -16 -25 -6 -28 -6 -30 6 -27 18 -23 18 -23 26 -11 33 0 rrcurveto
          411 320 rmoveto
          40 0 36 14 33 28 33 28 20 33 8 37 9 40 -7 35 -22 30 -23 30 -32 15 -42 0 -43 0 -37 -14 -34 -28 -33 -28 -21 -33 -8 -39 -8 -39 7 -34 23 -30 22 -30 34 -15 45 0 rrcurveto
          -151 -710 rmoveto
          40 0 36 14 33 28 33 28 20 33 8 37 9 40 -7 35 -22 30 -23 30 -32 15 -42 0 -43 0 -37 -14 -34 -28 -33 -28 -20 -33 -9 -39 -8 -39 7 -34 23 -30 22 -30 34 -15 45 0 rrcurveto
          endchar
        </CharString>
        <CharString name="dollar">
          0 1179 1031 rmoveto
          77 0 47 37 16 75 2 10 1 11 0 12 -2 78 -34 66 -65 53 -21 16 -44 23 -68 31 rrcurveto
          -55 -256 rlineto
          25 -22 14 -21 3 -19 9 -63 34 -31 61 0 rrcurveto
          -767 -1062 rmoveto
          58 273 rlineto
          -24 25 -20 26 -15 25 -25 42 -34 21 -43 0 -41 0 -34 -13 -26 -25 -34 -33 -17 -35 0 -36 0 -6 1 -6 1 -6 21 -90 85 -84 147 -78 rrcurveto
          360 -11 rmoveto
          55 22 29 12 5 3 176 87 103 120 32 153 6 29 3 29 0 27 0 110 -52 91 -106 70 -48 31 -73 32 -98 32 -134 47 -67 66 0 87 0 52 21 49 40 46 rrcurveto
          61 285 rlineto
          -123 -61 -86 -60 -50 -59 -55 -63 -38 -79 -20 -95 -6 -26 -2 -26 0 -24 0 -158 114 -120 230 -82 155 -60 78 -65 0 -70 0 -7 -1 -6 -1 -7 -12 -55 -30 -48 -49 -39 rrcurveto
          81 623 rmoveto
          99 466 49 237 0 7 0 21 -6 19 -14 18 -19 23 -28 12 -39 0 -39 0 -33 -12 -29 -23 -29 -24 -18 -26 -6 -29 rrcurveto
          -121 -569 rlineto
          39 -43 78 -40 116 -37 rrcurveto
          -364 -1105 rmoveto
          39 0 33 12 29 24 29 23 17 26 6 29 rrcurveto
          123 578 rlineto
          -34 35 -78 38 -121 42 -100 -469 -50 -238 0 -6 0 -21 7 -19 14 -18 19 -24 28 -12 39 0 rrcurveto
          endchar
        </CharString>
        <CharString name="downwardsarrow">
          0 711 309 rmoveto
          0 6 0 7 1 8 2 31 1 30 0 29 rrcurveto
          1060 -230 -1060 vlineto
          0 -30 1 -30 3 -30 1 -10 1 -8 0 -7 rrcurveto
          -7 7 rlineto
          -19 19 -25 23 -30 26 rrcurveto
          -415 352 rlineto
          -268 vlineto
          603 -513 607 515 rlineto
          268 vlineto
          -413 -352 rlineto
          -36 -31 -27 -24 -18 -18 rrcurveto
          endchar
        </CharString>
        <CharString name="e">
          0 652 606 rmoveto
          -83 0 -46 2 -7 4 -7 4 -3 4 0 3 0 7 3 11 7 13 30 56 51 51 72 45 72 46 67 23 60 0 49 0 36 -7 21 -14 21 -14 10 -18 0 -23 0 -85 -34 -55 -67 -25 rrcurveto
          -56 -19 -84 -9 -112 0 rrcurveto
          -26 -656 rmoveto
          108 0 87 14 65 27 66 28 62 44 60 62 14 13 11 11 8 11 8 10 4 16 0 22 0 26 -10 23 -20 19 -20 19 -24 9 -29 0 -30 0 -25 -10 -19 -21 -83 -81 -84 -40 -86 0 rrcurveto
          -72 0 -60 14 -46 29 -46 28 -23 46 0 64 0 19 2 17 3 16 3 16 5 8 7 0 rrcurveto
          173 -1 rlineto
          99 0 77 4 56 9 127 21 91 43 54 66 53 65 27 95 0 123 0 80 -32 62 -63 46 -64 45 -77 23 -90 0 -275 0 -199 -124 -123 -248 -23 -57 -19 -62 -13 -66 -13 -67 -7 -59 0 -51 rrcurveto
          3 -271 135 -135 267 0 rrcurveto
          endchar
        </CharString>
        <CharString name="eight">
          -10 618 166 rmoveto
          -130 0 -65 45 0 91 0 144 90 111 180 77 151 -35 75 -64 0 -91 0 -21 -3 -21 -5 -23 -29 -142 -98 -71 -166 0 rrcurveto
          -37 -216 rmoveto
          137 0 119 35 101 70 100 71 65 98 30 127 9 36 4 35 0 36 0 124 -59 100 -119 78 2 -1 1 -1 0 0 0 1 0 1 1 1 46 30 57 47 70 62 74 69 38 51 1 33 rrcurveto
          0 27 -21 14 -42 0 -24 0 -130 -73 -235 -147 -6 -4 -8 -2 -10 0 -15 0 -16 3 -17 6 -81 25 -41 43 0 61 0 16 2 16 5 15 37 119 94 64 151 9 15 0 7 -8 0 -16 rrcurveto
          0 -19 -8 -23 -17 -27 -4 -7 -2 -7 0 -9 0 -31 26 -16 51 0 46 0 39 17 33 34 32 34 16 39 0 44 0 65 -17 45 -34 25 -53 43 -62 22 -70 0 -121 0 -108 -36 -94 -72 rrcurveto
          -94 -72 -61 -91 -27 -109 -6 -28 -3 -27 0 -27 0 -99 46 -81 91 -65 -2 1 -1 1 0 1 0 -1 -1 0 -1 -1 -165 -85 -106 -129 -47 -172 -6 -32 -3 -34 0 -35 0 -91 33 -74 66 -57 rrcurveto
          65 -57 98 -28 129 0 rrcurveto
          endchar
        </CharString>
        <CharString name="emdash">
          0 1248 490 rmoveto
          32 0 29 11 25 21 26 21 16 25 6 28 6 30 -5 27 -19 23 -18 23 -26 11 -33 0 rrcurveto
          -1080 hlineto
          -32 0 -29 -11 -25 -21 -26 -21 -16 -25 -6 -28 -6 -30 6 -27 18 -23 18 -23 26 -11 33 0 rrcurveto
          endchar
        </CharString>
        <CharString name="equal">
          0 1006 290 rmoveto
          32 0 28 10 25 21 34 28 17 33 0 38 0 20 -6 18 -13 17 -19 23 -26 12 -34 0 rrcurveto
          -680 hlineto
          -32 0 -28 -10 -25 -21 -34 -28 -17 -33 0 -38 0 -20 6 -18 13 -16 19 -24 26 -12 34 0 rrcurveto
          765 400 rmoveto
          32 0 28 10 25 21 34 28 17 33 0 38 0 20 -6 18 -13 17 -19 23 -26 12 -34 0 rrcurveto
          -680 hlineto
          -32 0 -28 -10 -25 -21 -34 -28 -17 -33 0 -38 0 -20 6 -18 13 -16 19 -24 26 -12 34 0 rrcurveto
          endchar
        </CharString>
        <CharString name="exclam">
          0 695 445 rmoveto
          31 0 30 11 29 22 28 21 17 24 7 25 133 544 66 275 0 8 0 24 -8 22 -18 22 -23 28 -32 14 -39 0 -40 0 -37 -14 -35 -28 -35 -29 -20 -30 -7 -31 -99 -540 -49 -273 0 -4 rrcurveto
          0 -21 8 -19 17 -18 19 -22 26 -11 31 0 rrcurveto
          -102 -499 rmoveto
          57 0 52 19 45 39 57 50 29 56 0 63 0 34 -10 31 -21 28 -29 39 -43 19 -57 0 -60 0 -53 -19 -46 -39 -59 -50 -30 -56 0 -61 0 -35 12 -31 22 -29 29 -39 45 -19 60 0 rrcurveto
          endchar
        </CharString>
        <CharString name="exclam_exclam">
          0 495 445 rmoveto
          31 0 30 11 29 22 28 21 17 24 7 25 133 544 66 275 0 8 0 24 -8 22 -18 22 -23 28 -32 14 -39 0 -40 0 -37 -14 -35 -28 -35 -29 -20 -30 -7 -31 -99 -540 -49 -273 0 -4 rrcurveto
          0 -21 8 -19 17 -18 19 -22 26 -11 31 0 rrcurveto
          -902 -499 rmoveto
          57 0 52 19 45 39 57 50 29 56 0 63 0 34 -10 31 -21 28 -29 39 -43 19 -57 0 -60 0 -53 -19 -46 -39 -59 -50 -30 -56 0 -61 0 -35 12 -31 22 -29 29 -39 45 -19 60 0 rrcurveto
          102 499 rmoveto
          31 0 30 11 29 22 28 21 17 24 7 25 133 544 66 275 0 8 0 24 -8 22 -18 22 -23 28 -32 14 -39 0 -40 0 -37 -14 -35 -28 -35 -29 -20 -30 -7 -31 -99 -540 -49 -273 0 -4 rrcurveto
          0 -21 8 -19 17 -18 19 -22 26 -11 31 0 rrcurveto
          698 -499 rmoveto
          57 0 52 19 45 39 57 50 29 56 0 63 0 34 -10 31 -21 28 -29 39 -43 19 -57 0 -60 0 -53 -19 -46 -39 -59 -50 -30 -56 0 -61 0 -35 12 -31 22 -29 29 -39 45 -19 60 0 rrcurveto
          endchar
        </CharString>
        <CharString name="f">
          0 136 -477 rmoveto
          119 0 103 40 86 79 93 79 66 126 39 172 rrcurveto
          169 786 rlineto
          1 8 4 6 6 4 5 5 6 2 5 0 rrcurveto
          356 hlineto
          32 0 29 11 26 21 33 27 16 33 0 37 0 21 -6 19 -13 15 -18 24 -26 12 -35 0 rrcurveto
          -356 hlineto
          -3 0 -2 1 -2 3 -2 2 -1 2 0 2 rrcurveto
          24 104 rlineto
          10 45 23 39 34 33 35 32 40 16 44 0 rrcurveto
          168 hlineto
          32 0 29 11 26 21 33 27 16 33 0 37 0 21 -6 19 -13 15 -18 24 -26 12 -35 0 rrcurveto
          -206 hlineto
          -66 0 -61 -16 -58 -32 -57 -32 -48 -42 -39 -51 -39 -50 -27 -57 -14 -61 rrcurveto
          -31 -139 rlineto
          -1 -4 -3 -4 -5 -5 -6 -4 -5 -2 -5 0 rrcurveto
          -145 hlineto
          -32 0 -28 -11 -26 -21 -33 -27 -17 -32 0 -37 0 -22 7 -19 13 -16 18 -23 26 -12 34 0 rrcurveto
          144 hlineto
          3 0 2 -1 2 -2 2 -3 1 -3 0 -4 0 -8 -56 -262 -111 -517 -21 -96 -35 -76 -47 -55 -48 -55 -55 -28 -63 0 -81 0 -41 -34 0 -69 0 -63 37 -31 75 0 rrcurveto
          endchar
        </CharString>
        <CharString name="five">
          0 575 -50 rmoveto
          331 0 186 163 41 327 6 49 3 39 0 27 -4 223 -150 111 -294 0 rrcurveto
          -60 hlineto
          -7 0 -3 3 0 7 rrcurveto
          92 290 rlineto
          3 10 5 5 5 0 342 1 185 23 30 43 9 13 5 20 0 25 0 20 -6 16 -12 12 -27 27 -215 15 -404 1 -70 0 -41 -26 -13 -53 -102 -375 -51 -192 0 -7 2 -21 7 -19 13 -17 rrcurveto
          20 -25 28 -13 35 0 rrcurveto
          164 hlineto
          174 -1 88 -55 2 -109 0 -68 -9 -54 -18 -37 -51 -117 -104 -59 -156 -2 -128 0 -89 40 -52 81 -26 44 -28 22 -29 0 -42 0 -21 -32 0 -64 0 -32 4 -25 8 -16 75 -159 142 -79 207 0 rrcurveto
          endchar
        </CharString>
        <CharString name="four">
          0 980 490 rmoveto
          17 105 19 53 21 0 12 0 9 -7 7 -14 11 -20 5 -19 0 -19 -1 -53 -33 -26 -67 0 rrcurveto
          -218 -540 rmoveto
          33 0 29 11 26 21 25 21 17 26 7 30 rrcurveto
          48 214 rlineto
          116 3 78 21 40 40 59 58 30 85 1 112 0 95 -29 75 -57 58 -39 37 -49 19 -60 0 -138 0 -94 -127 -50 -254 -201 2 -100 1 1 -1 1 -1 0 0 0 -1 0 2 1 2 1 1 rrcurveto
          447 532 223 243 rlineto
          19 21 9 27 0 33 0 24 -6 19 -12 15 -17 24 -23 12 -27 0 -49 0 -44 -21 -37 -43 rrcurveto
          -763 -868 rlineto
          -24 -29 -15 -39 -6 -48 0 -36 13 -31 26 -25 26 -25 33 -13 40 0 rrcurveto
          442 hlineto
          -50 -226 rlineto
          0 -26 9 -22 18 -19 18 -19 24 -10 30 0 rrcurveto
          endchar
        </CharString>
        <CharString name="fullblock">
          0 -600 vmoveto
          1200 2640 -1200 hlineto
          endchar
        </CharString>
        <CharString name="g">
          0 603 188 rmoveto
          -70 0 -46 20 -22 41 -22 41 -11 44 0 48 0 38 5 44 11 50 53 230 104 117 155 4 55 0 43 -17 31 -35 31 -35 15 -40 0 -45 0 -18 -2 -20 -5 -22 rrcurveto
          -45 -211 rlineto
          -12 -57 -35 -56 -60 -53 -53 -45 -58 -23 -62 0 rrcurveto
          -141 -688 rmoveto
          137 0 118 39 101 79 100 79 65 107 29 136 150 706 75 357 0 9 0 21 -6 18 -11 13 -16 24 -26 12 -36 0 -63 0 -42 -29 -22 -59 -5 -13 -2 -7 1 0 2 0 1 0 -1 1 rrcurveto
          -52 71 -82 35 -111 0 -135 0 -115 -50 -94 -99 -95 -100 -69 -149 -44 -198 -13 -62 -7 -59 0 -54 0 -85 17 -73 33 -61 56 -106 96 -53 136 0 92 0 81 25 71 49 12 8 9 4 6 0 rrcurveto
          -2 0 -1 -1 0 -1 0 -4 -11 -48 -22 -94 -9 -44 -27 -40 -46 -36 -46 -36 -63 -19 -78 -1 -58 0 -46 8 -33 17 -34 17 -32 27 -31 38 -18 21 -24 10 -30 0 -30 0 -32 -16 -33 -31 rrcurveto
          -25 -23 -12 -27 0 -31 0 -17 5 -16 10 -15 80 -116 129 -58 178 0 rrcurveto
          endchar
        </CharString>
        <CharString name="grave">
          0 973 1000 rmoveto
          29 0 29 11 27 21 33 30 17 32 0 34 0 20 -6 19 -12 18 rrcurveto
          -244 309 rlineto
          -22 24 -26 12 -31 0 -30 0 -29 -11 -29 -22 -32 -28 -17 -31 0 -34 0 -20 7 -20 12 -19 rrcurveto
          243 -308 rlineto
          22 -25 27 -12 32 0 rrcurveto
          endchar
        </CharString>
        <CharString name="greater">
          0 286 127 rmoveto
          17 0 17 4 19 7 rrcurveto
          770 364 rlineto
          55 28 27 39 0 50 0 35 -15 26 -31 17 rrcurveto
          -615 355 rlineto
          -17 9 -18 5 -18 0 -30 0 -28 -10 -25 -21 -35 -28 -17 -32 0 -36 0 -32 16 -27 30 -22 rrcurveto
          420 -250 rlineto
          2 -1 1 -1 0 -1 0 -6 -4 -4 -7 -4 rrcurveto
          -529 -254 rlineto
          -56 -30 -28 -39 0 -48 0 -21 7 -19 14 -17 19 -24 26 -12 33 0 rrcurveto
          endchar
        </CharString>
        <CharString name="greater_greater">
          0 131 123 rmoveto
          22 0 22 5 22 10 rrcurveto
          768 362 rlineto
          23 11 20 14 16 19 20 24 10 24 1 25 0 36 -16 28 -31 18 rrcurveto
          -615 355 rlineto
          -19 11 -21 5 -21 0 -33 0 -32 -12 -31 -24 -38 -30 -19 -31 0 -32 0 -13 2 -13 6 -14 8 -19 13 -16 18 -11 rrcurveto
          421 -250 rlineto
          3 13 4 6 3 0 2 0 0 -1 0 -3 0 -13 -5 -9 -10 -5 rrcurveto
          -530 -254 rlineto
          -23 -11 -19 -16 -16 -19 -22 -25 -10 -24 -1 -23 0 -21 9 -20 17 -20 21 -25 27 -12 34 0 rrcurveto
          -386 474 rmoveto
          3 8 rlineto
          -1 hlineto
          898 -8 rmoveto
          3 8 rlineto
          -1 hlineto
          -1416 -482 rmoveto
          22 0 22 5 22 10 rrcurveto
          768 362 rlineto
          23 11 20 14 16 19 20 24 10 24 1 25 0 36 -16 28 -31 18 rrcurveto
          -615 355 rlineto
          -19 11 -21 5 -21 0 -33 0 -32 -12 -31 -24 -38 -30 -19 -31 0 -32 0 -13 2 -13 6 -14 8 -19 13 -16 18 -11 rrcurveto
          421 -250 rlineto
          3 13 4 6 3 0 2 0 0 -1 0 -3 0 -13 -5 -9 -10 -5 rrcurveto
          -530 -254 rlineto
          -23 -11 -19 -16 -16 -19 -22 -25 -10 -24 -1 -23 0 -21 9 -20 17 -20 21 -25 27 -12 34 0 rrcurveto
          endchar
        </CharString>
        <CharString name="greater_greater_greater">
          0 -1819 123 rmoveto
          22 0 22 5 22 10 rrcurveto
          768 362 rlineto
          23 11 20 14 16 19 20 24 10 24 1 25 0 36 -16 28 -31 18 rrcurveto
          -615 355 rlineto
          -19 11 -21 5 -21 0 -33 0 -32 -12 -31 -24 -38 -30 -19 -31 0 -32 0 -13 2 -13 6 -14 8 -19 13 -16 18 -11 rrcurveto
          421 -250 rlineto
          3 13 4 6 3 0 2 0 0 -1 0 -3 0 -13 -5 -9 -10 -5 rrcurveto
          -530 -254 rlineto
          -23 -11 -19 -16 -16 -19 -22 -25 -10 -24 -1 -23 0 -21 9 -20 17 -20 21 -25 27 -12 34 0 rrcurveto
          1414 474 rmoveto
          3 8 rlineto
          -1 hlineto
          898 -8 rmoveto
          3 8 rlineto
          -1 hlineto
          -1802 -8 rmoveto
          3 8 rlineto
          -1 hlineto
          384 -482 rmoveto
          22 0 22 5 22 10 rrcurveto
          768 362 rlineto
          23 11 20 14 16 19 20 24 10 24 1 25 0 36 -16 28 -31 18 rrcurveto
          -615 355 rlineto
          -19 11 -21 5 -21 0 -33 0 -32 -12 -31 -24 -38 -30 -19 -31 0 -32 0 -13 2 -13 6 -14 8 -19 13 -16 18 -11 rrcurveto
          421 -250 rlineto
          3 13 4 6 3 0 2 0 0 -1 0 -3 0 -13 -5 -9 -10 -5 rrcurveto
          -530 -254 rlineto
          -23 -11 -19 -16 -16 -19 -22 -25 -10 -24 -1 -23 0 -21 9 -20 17 -20 21 -25 27 -12 34 0 rrcurveto
          900 hmoveto
          22 0 22 5 22 10 rrcurveto
          768 362 rlineto
          23 11 20 14 16 19 20 24 10 24 1 25 0 36 -16 28 -31 18 rrcurveto
          -615 355 rlineto
          -19 11 -21 5 -21 0 -33 0 -32 -12 -31 -24 -38 -30 -19 -31 0 -32 0 -13 2 -13 6 -14 8 -19 13 -16 18 -11 rrcurveto
          421 -250 rlineto
          3 13 4 6 3 0 2 0 0 -1 0 -3 0 -13 -5 -9 -10 -5 rrcurveto
          -530 -254 rlineto
          -23 -11 -19 -16 -16 -19 -22 -25 -10 -24 -1 -23 0 -21 9 -20 17 -20 21 -25 27 -12 34 0 rrcurveto
          endchar
        </CharString>
        <CharString name="h">
          0 1054 -50 rmoveto
          50 0 46 11 39 23 51 29 25 29 0 27 0 19 -6 15 -13 12 -12 13 -17 6 -22 0 -18 0 -14 -5 -11 -10 -10 -9 -9 -5 -7 0 -11 0 -5 18 0 36 0 26 4 33 8 38 rrcurveto
          82 386 rlineto
          13 64 7 56 0 50 0 75 -16 60 -31 44 -50 73 -93 36 -134 0 -104 -1 -108 -49 -112 -95 -5 -4 -1 -2 1 0 10 0 5 -2 0 -5 0 2 19 91 38 179 33 154 16 81 0 8 rrcurveto
          0 21 -7 19 -13 16 -19 25 -27 12 -34 0 -31 0 -29 -11 -26 -22 -27 -22 -17 -26 -7 -32 -196 -918 -98 -466 0 -14 0 -20 6 -18 12 -16 19 -23 27 -12 36 0 37 0 30 11 22 21 rrcurveto
          22 21 15 26 7 32 rrcurveto
          117 548 rlineto
          18 84 48 66 77 47 64 37 61 19 56 0 97 0 49 -49 0 -97 0 -24 -3 -26 -6 -30 rrcurveto
          -95 -471 rlineto
          -3 -16 -2 -24 0 -32 0 -40 15 -33 31 -28 31 -28 46 -14 59 0 rrcurveto
          endchar
        </CharString>
        <CharString name="hyphen">
          0 948 490 rmoveto
          32 0 29 11 25 21 26 21 16 25 6 28 6 30 -5 27 -19 23 -18 23 -26 11 -33 0 rrcurveto
          -480 hlineto
          -32 0 -29 -11 -25 -21 -26 -21 -16 -25 -6 -28 -6 -30 6 -27 18 -23 18 -23 26 -11 33 0 rrcurveto
          endchar
        </CharString>
        <CharString name="hyphenminus">
          0 1043 486 rmoveto
          35 0 33 12 31 25 38 29 19 32 0 33 0 21 -8 21 -16 19 -20 24 -28 12 -35 0 rrcurveto
          -680 hlineto
          -35 0 -33 -12 -31 -24 -37 -30 -19 -32 0 -35 0 -20 8 -20 15 -18 20 -25 28 -12 35 0 rrcurveto
          endchar
        </CharString>
        <CharString name="i">
          0 685 -50 rmoveto
          91 0 87 23 83 47 84 47 92 78 101 110 12 14 7 16 0 21 1 20 -8 18 -15 16 -16 16 -21 8 -26 0 -24 0 -20 -7 -16 -15 -65 -63 -53 -45 -41 -26 -41 -26 -46 -13 -50 0 rrcurveto
          -38 0 -20 20 -1 40 1 41 28 120 54 201 48 187 24 97 0 7 0 45 -12 39 -24 34 -24 33 -33 17 -41 0 -11 0 -142 -37 -274 -74 -83 -21 -42 -48 -2 -76 0 -33 9 -25 19 -15 rrcurveto
          19 -16 19 -8 20 0 11 0 60 19 109 37 108 37 56 19 4 0 1 0 0 -3 0 -6 0 -5 -24 -92 -49 -179 -52 -180 -27 -132 -1 -83 -2 -133 65 -66 131 0 rrcurveto
          117 1265 rmoveto
          45 0 42 16 38 33 50 42 26 51 1 60 -1 30 -10 26 -18 22 -25 37 -37 18 -49 0 -48 0 -44 -16 -39 -33 -48 -43 -24 -50 -1 -56 1 -32 9 -27 17 -25 27 -35 38 -18 50 0 rrcurveto
          endchar
        </CharString>
        <CharString name="j">
          0 370 -316 rmoveto
          -42 0 -21 19 0 37 0 92 101 122 203 151 -77 -281 -80 -140 -84 0 rrcurveto
          -29 -184 rmoveto
          94 0 86 33 77 67 77 66 67 114 58 162 20 61 29 112 38 163 rrcurveto
          286 230 rlineto
          20 15 10 20 0 26 0 19 -8 19 -15 17 -15 17 -20 9 -26 0 -22 0 -19 -7 -16 -13 rrcurveto
          -130 -109 rlineto
          61 245 30 127 0 9 -1 45 -12 39 -25 34 -25 33 -32 17 -41 0 -11 0 -142 -37 -273 -74 -83 -21 -41 -48 0 -76 0 -33 10 -25 19 -16 19 -15 19 -8 20 0 11 0 60 19 108 37 rrcurveto
          108 37 56 19 3 0 1 0 1 -3 0 -6 0 -11 -39 -163 -77 -316 -240 -160 -151 -124 -61 -89 -61 -89 -30 -84 0 -81 1 -135 76 -68 151 0 rrcurveto
          569 1715 rmoveto
          45 0 42 16 38 33 49 42 25 51 0 60 -2 30 -9 26 -19 22 -26 37 -37 18 -49 0 -48 0 -43 -17 -39 -33 -47 -42 -24 -50 0 -56 1 -32 10 -28 18 -24 27 -35 39 -18 49 0 rrcurveto
          endchar
        </CharString>
        <CharString name="k">
          0 897 -50 rmoveto
          39 0 37 17 33 34 53 51 37 66 23 81 1 8 1 6 0 6 0 44 -23 22 -47 0 -39 0 -23 -19 -9 -39 -9 -45 -15 -22 -20 0 -12 0 -54 81 -96 161 -8 13 -4 9 0 6 rrcurveto
          0 4 2 3 4 2 249 121 127 158 4 194 0 125 -64 63 -128 0 -103 0 -112 -45 -120 -91 73 312 36 163 0 14 0 26 -9 22 -18 17 -21 21 -29 11 -35 0 -62 0 -38 -31 -17 -63 rrcurveto
          -215 -922 -108 -469 0 -15 0 -23 7 -21 13 -18 18 -24 27 -12 36 0 29 0 25 9 23 18 23 17 14 22 8 26 rrcurveto
          146 591 rlineto
          3 12 9 13 16 14 133 126 95 63 57 0 35 0 18 -12 0 -24 0 -93 -131 -102 -262 -111 -24 -11 -12 -16 0 -22 0 -15 6 -16 11 -16 rrcurveto
          278 -412 rlineto
          30 -42 40 -21 48 0 rrcurveto
          endchar
        </CharString>
        <CharString name="l">
          0 741 821 rmoveto
          62 252 rlineto
          47 187 81 94 115 0 63 -1 31 -30 1 -58 0 -90 -27 -75 -55 -59 -71 -77 -106 -73 -141 -70 rrcurveto
          -129 -871 rmoveto
          64 0 56 11 49 21 81 29 82 67 81 107 13 17 7 19 0 20 -2 26 -10 23 -20 19 -20 19 -24 9 -29 0 -31 0 -27 -14 -24 -29 -39 -53 -34 -36 -30 -21 -29 -20 -33 -10 -36 0 rrcurveto
          -38 0 -19 15 0 30 0 33 25 124 49 215 223 119 152 95 80 70 135 126 68 147 0 165 0 74 -27 62 -55 50 -52 47 -69 24 -85 0 -130 0 -106 -43 -83 -87 -82 -86 -63 -129 -43 -169 rrcurveto
          -89 -351 rlineto
          -110 -47 -78 -31 -44 -16 -40 -14 -21 -28 -1 -42 0 -28 11 -23 22 -17 21 -17 23 -8 23 0 23 0 49 19 74 38 -16 -72 -11 -57 -8 -42 -5 -34 -3 -43 0 -52 3 -147 85 -74 167 0 rrcurveto
          endchar
        </CharString>
        <CharString name="left_arrow_single">
          0 -470 502 rmoveto
          -8 1 -72 90 rlineto
          -1 hlineto
          1 6 113 93 rlineto
          7 -1 hlineto
          72 -93 -1 -3 -110 -91 rlineto
          92 -477 rmoveto
          31 0 29 11 27 23 35 29 18 34 0 37 0 19 -6 21 -12 20 rrcurveto
          -89 113 rlineto
          -1 0 -1 1 0 1 rrcurveto
          2 6 140 119 rlineto
          22 17 22 8 22 0 rrcurveto
          1181 hlineto
          29 0 29 12 29 23 36 29 18 34 0 37 0 21 -6 20 -14 17 -19 23 -24 12 -29 0 rrcurveto
          -1180 hlineto
          -24 0 -19 8 -13 17 rrcurveto
          -90 114 rlineto
          -1 0 0 1 0 1 rrcurveto
          1 5 139 115 rlineto
          35 35 18 35 0 36 0 22 -7 19 -14 16 -19 22 -24 11 -28 0 -27 0 -29 -11 -31 -22 rrcurveto
          -555 -459 rlineto
          -36 -32 -18 -35 0 -39 0 -21 7 -19 13 -17 rrcurveto
          360 -457 rlineto
          18 -21 24 -11 31 0 rrcurveto
          endchar
        </CharString>
        <CharString name="left_right_arrow_double">
          0 618 446 rmoveto
          -2 0 -10 12 -18 23 -20 23 -25 11 -30 0 rrcurveto
          -2008 hlineto
          -30 0 -30 -11 -29 -23 -27 -23 -15 -12 -2 0 -2 0 -21 25 -39 50 -40 50 -20 26 0 2 1 1 31 27 62 51 61 51 32 25 2 0 1 0 11 -12 19 -24 20 -21 24 -11 29 0 rrcurveto
          2006 hlineto
          29 0 30 11 29 22 28 23 15 12 1 0 2 0 21 -25 41 -51 40 -51 20 -27 -1 -1 0 -2 -30 -26 -61 -50 -61 -50 -32 -25 -2 0 rrcurveto
          -229 -419 rmoveto
          28 0 29 11 29 21 rrcurveto
          555 458 rlineto
          36 32 18 35 0 40 0 20 -6 19 -13 17 rrcurveto
          -361 459 rlineto
          -20 21 -24 11 -28 0 -31 0 -29 -11 -27 -22 -36 -29 -17 -34 0 -41 0 -19 5 -20 12 -18 29 -37 15 -19 0 -3 -1 -3 -319 -1 -639 0 -638 0 -319 1 0 3 1 2 23 20 46 37 rrcurveto
          35 33 17 35 0 38 0 21 -6 18 -13 16 -18 22 -25 11 -31 0 -28 0 -29 -11 -29 -21 rrcurveto
          -555 -459 rlineto
          -36 -30 -18 -35 0 -39 0 -21 6 -20 13 -18 rrcurveto
          361 -458 rlineto
          20 -21 24 -11 28 0 31 0 30 11 27 23 35 29 18 35 0 41 0 20 -6 19 -13 16 -31 39 -15 20 0 1 1 4 320 2 641 0 640 0 320 -2 0 -4 -1 -2 -24 -20 -47 -38 rrcurveto
          -35 -30 -18 -35 0 -39 0 -21 7 -19 13 -16 17 -23 25 -11 31 0 rrcurveto
          endchar
        </CharString>
        <CharString name="left_right_arrow_double_long">
          0 618 446 rmoveto
          -2 0 -10 12 -18 23 -20 23 -25 11 -30 0 rrcurveto
          -3208 hlineto
          -30 0 -30 -11 -29 -23 -27 -23 -15 -12 -2 0 -2 0 -21 25 -39 50 -40 50 -20 26 0 2 1 1 31 27 62 51 61 51 32 25 2 0 1 0 11 -12 19 -24 20 -21 24 -11 29 0 rrcurveto
          3206 hlineto
          29 0 30 11 29 22 28 23 15 12 1 0 2 0 21 -25 41 -51 40 -51 20 -27 -1 -1 0 -2 -30 -26 -61 -50 -61 -50 -32 -25 -2 0 rrcurveto
          -229 -419 rmoveto
          28 0 29 11 29 21 rrcurveto
          555 458 rlineto
          36 32 18 35 0 40 0 20 -6 19 -13 17 rrcurveto
          -361 459 rlineto
          -20 21 -24 11 -28 0 -31 0 -29 -11 -27 -22 -36 -29 -17 -34 0 -41 0 -19 5 -20 12 -18 29 -37 15 -19 0 -3 -1 -3 -519 -1 -1039 0 -1038 0 -519 1 0 3 1 2 23 20 46 37 rrcurveto
          35 33 17 35 0 38 0 21 -6 18 -13 16 -18 22 -25 11 -31 0 -28 0 -29 -11 -29 -21 rrcurveto
          -555 -459 rlineto
          -36 -30 -18 -35 0 -39 0 -21 6 -20 13 -18 rrcurveto
          361 -458 rlineto
          20 -21 24 -11 28 0 31 0 30 11 27 23 35 29 18 35 0 41 0 20 -6 19 -13 16 -31 39 -15 20 0 1 1 4 520 2 1041 0 1040 0 520 -2 0 -4 -1 -2 -24 -20 -47 -38 rrcurveto
          -35 -30 -18 -35 0 -39 0 -21 7 -19 13 -16 17 -23 25 -11 31 0 rrcurveto
          endchar
        </CharString>
        <CharString name="left_right_arrow_single">
          0 -1670 502 rmoveto
          -8 1 -72 90 rlineto
          -1 hlineto
          1 6 113 93 rlineto
          7 -1 hlineto
          72 -93 -1 -3 -110 -91 rlineto
          92 -477 rmoveto
          31 0 29 11 27 23 35 29 18 34 0 37 0 19 -6 21 -12 20 rrcurveto
          -89 113 rlineto
          -1 0 -1 1 0 1 rrcurveto
          2 6 140 119 rlineto
          22 17 22 8 22 0 rrcurveto
          2381 hlineto
          29 0 29 12 29 23 36 29 18 34 0 37 0 21 -6 20 -14 17 -19 23 -24 12 -29 0 rrcurveto
          -2380 hlineto
          -24 0 -19 8 -13 17 rrcurveto
          -90 114 rlineto
          -1 0 0 1 0 1 rrcurveto
          1 5 139 115 rlineto
          35 35 18 35 0 36 0 22 -7 19 -14 16 -19 22 -24 11 -28 0 -27 0 -29 -11 -31 -22 rrcurveto
          -555 -459 rlineto
          -36 -32 -18 -35 0 -39 0 -21 7 -19 13 -17 rrcurveto
          360 -457 rlineto
          18 -21 24 -11 31 0 rrcurveto
          endchar
        </CharString>
        <CharString name="left_right_arrow_single_long">
          0 -2874 502 rmoveto
          -2 0 -13 15 -25 31 -24 30 -12 17 0 2 0 1 19 16 38 31 37 31 20 16 2 0 2 0 13 -15 25 -31 24 -31 12 -17 0 -1 -1 -2 -19 -16 -37 -31 -37 -31 -20 -15 -2 0 rrcurveto
          3562 hmoveto
          -2 0 -13 15 -25 30 -24 31 -12 16 0 3 0 1 19 17 38 31 37 31 20 15 2 0 2 0 13 -16 25 -31 24 -31 12 -16 0 -1 -1 -1 -19 -16 -37 -31 -37 -31 -20 -16 -2 0 rrcurveto
          -299 -475 rmoveto
          28 0 28 10 29 21 rrcurveto
          557 459 rlineto
          35 33 18 35 0 37 0 21 -7 19 -13 17 rrcurveto
          -360 460 rlineto
          -20 21 -24 11 -28 0 -29 0 -29 -11 -28 -21 -37 -29 -18 -35 0 -42 0 -20 5 -19 12 -18 61 -77 30 -39 0 -2 0 -2 -47 -40 -94 -77 -8 -7 -11 -5 -13 -5 -13 -5 -12 -3 -9 0 rrcurveto
          -2880 hlineto
          -9 0 -11 3 -11 5 -11 5 -9 5 -5 7 -61 77 -30 40 0 2 1 1 47 40 93 77 35 32 17 36 0 39 0 21 -7 19 -13 16 -19 21 -24 11 -29 0 -28 0 -29 -11 -29 -21 rrcurveto
          -556 -460 rlineto
          -36 -30 -17 -35 0 -38 0 -21 6 -19 12 -19 rrcurveto
          361 -459 rlineto
          21 -21 24 -10 28 0 32 0 29 11 27 22 35 29 17 34 0 41 0 19 -5 19 -12 18 -61 77 -30 39 0 3 1 2 47 41 93 79 8 6 11 6 14 5 13 5 11 3 9 0 rrcurveto
          2881 hlineto
          9 0 11 -2 11 -5 11 -5 9 -6 5 -7 60 -78 30 -41 0 -3 -1 -2 -47 -40 -93 -77 -35 -32 -17 -35 0 -38 0 -21 6 -18 13 -16 17 -22 25 -11 32 0 rrcurveto
          endchar
        </CharString>
        <CharString name="leftfiveeighthsblock">
          0 -600 vmoveto
          750 2640 -750 hlineto
          endchar
        </CharString>
        <CharString name="lefthalfblock">
          0 -600 vmoveto
          600 2640 -600 hlineto
          endchar
        </CharString>
        <CharString name="leftoneeighthblock">
          0 -600 vmoveto
          150 2640 -150 hlineto
          endchar
        </CharString>
        <CharString name="leftonequarterblock">
          0 -600 vmoveto
          300 2640 -300 hlineto
          endchar
        </CharString>
        <CharString name="leftrightarrow">
          0 139 567 rmoveto
          6 -1 9 -1 11 -1 28 -3 25 -1 22 0 rrcurveto
          720 hlineto
          23 0 26 1 27 2 9 1 8 0 6 1 -6 -6 -7 -7 -9 -8 -18 -17 -16 -18 -14 -19 rrcurveto
          -348 -440 rlineto
          271 hlineto
          477 610 -479 610 rlineto
          -269 hlineto
          348 -439 rlineto
          18 -21 18 -19 17 -17 6 -8 6 -6 5 -5 -6 1 -8 0 -9 1 -27 2 -26 1 -23 0 rrcurveto
          -720 hlineto
          -22 0 -25 -1 -28 -1 -9 0 -7 -1 -6 0 5 5 7 7 8 7 18 17 16 18 14 19 rrcurveto
          348 440 rlineto
          -271 hlineto
          -477 -610 479 -610 rlineto
          269 hlineto
          -348 439 rlineto
          -18 21 -17 19 -17 18 rrcurveto
          endchar
        </CharString>
        <CharString name="leftseveneighthsblock">
          0 -600 vmoveto
          1050 2640 -1050 hlineto
          endchar
        </CharString>
        <CharString name="leftthreeeighthsblock">
          0 -600 vmoveto
          400 2640 -400 hlineto
          endchar
        </CharString>
        <CharString name="leftthreequartersblock">
          0 -600 vmoveto
          900 2640 -900 hlineto
          endchar
        </CharString>
        <CharString name="leftwardsarrow">
          0 379 567 rmoveto
          6 -1 9 -1 11 -1 28 -3 25 -1 22 0 rrcurveto
          685 200 -685 hlineto
          -22 0 -25 -1 -28 -1 -9 0 -7 -1 -6 0 5 5 7 7 8 7 18 17 16 18 14 19 rrcurveto
          348 440 rlineto
          -271 hlineto
          -477 -610 479 -610 rlineto
          269 hlineto
          -348 439 rlineto
          -18 21 -17 19 -17 18 rrcurveto
          endchar
        </CharString>
        <CharString name="less">
          0 977 127 rmoveto
          31 0 28 11 26 21 34 28 17 32 0 38 0 31 -15 26 -29 21 rrcurveto
          -421 254 rlineto
          -1 1 -1 1 0 2 0 6 3 4 7 4 rrcurveto
          526 250 rlineto
          55 30 27 40 0 49 0 20 -6 18 -13 17 -19 23 -26 12 -32 0 -18 0 -19 -4 -18 -9 rrcurveto
          -766 -355 rlineto
          -44 -19 -27 -32 -9 -44 -2 -8 -1 -8 0 -8 0 -31 15 -25 30 -20 rrcurveto
          616 -364 rlineto
          17 -8 17 -4 18 0 rrcurveto
          endchar
        </CharString>
        <CharString name="less_greater">
          0 51 237 rmoveto
          -395 237 -196 121 1 5 1 3 247 119 494 234 rrcurveto
          593 -352 -2 -11 rlineto
          -792 -606 rmoveto
          21 0 28 9 35 17 rrcurveto
          1030 488 rlineto
          49 23 29 33 9 43 1 6 1 6 0 7 0 36 -16 27 -31 18 rrcurveto
          -834 482 rlineto
          -25 14 -24 7 -24 0 -17 0 -24 -7 -32 -14 rrcurveto
          -1038 -482 rlineto
          -25 -11 -20 -15 -15 -18 -20 -25 -10 -27 0 -28 0 -31 15 -25 31 -19 rrcurveto
          826 -489 rlineto
          27 -17 27 -8 26 0 rrcurveto
          endchar
        </CharString>
        <CharString name="less_less">
          0 -78 123 rmoveto
          34 0 33 12 31 25 38 30 19 32 0 33 0 13 -3 12 -5 13 -8 19 -13 16 -17 11 rrcurveto
          -422 254 rlineto
          -4 3 -3 4 0 6 0 12 3 6 4 0 3 0 1 -3 0 -5 0 -4 -1 -7 -2 -8 rrcurveto
          2 8 527 250 rlineto
          22 11 19 16 17 19 21 25 10 24 0 25 0 20 -8 20 -16 19 -21 24 -27 12 -33 0 -23 0 -22 -5 -22 -11 rrcurveto
          -765 -355 rlineto
          -24 -11 -20 -14 -15 -19 -21 -24 -10 -25 0 -25 0 -12 3 -13 5 -12 7 -19 13 -14 18 -11 rrcurveto
          615 -362 rlineto
          18 -10 20 -5 22 0 rrcurveto
          900 hmoveto
          34 0 33 12 31 25 38 30 19 32 0 33 0 13 -3 12 -5 13 -8 19 -13 16 -17 11 rrcurveto
          -422 254 rlineto
          -4 3 -3 4 0 6 0 12 3 6 4 0 3 0 1 -3 0 -5 0 -4 -1 -7 -2 -8 rrcurveto
          2 8 527 250 rlineto
          22 11 19 16 17 19 21 25 10 24 0 25 0 20 -8 20 -16 19 -21 24 -27 12 -33 0 -23 0 -22 -5 -22 -11 rrcurveto
          -765 -355 rlineto
          -24 -11 -20 -14 -15 -19 -21 -24 -10 -25 0 -25 0 -12 3 -13 5 -12 7 -19 13 -14 18 -11 rrcurveto
          615 -362 rlineto
          18 -10 20 -5 22 0 rrcurveto
          endchar
        </CharString>
        <CharString name="less_less_less">
          0 -1128 123 rmoveto
          34 0 33 12 31 25 38 30 19 32 0 33 0 13 -3 12 -5 13 -8 19 -13 16 -17 11 rrcurveto
          -422 254 rlineto
          -4 3 -3 4 0 6 0 12 3 6 4 0 3 0 1 -3 0 -5 0 -4 -1 -7 -2 -8 rrcurveto
          2 8 527 250 rlineto
          22 11 19 16 17 19 21 25 10 24 0 25 0 20 -8 20 -16 19 -21 24 -27 12 -33 0 -23 0 -22 -5 -22 -11 rrcurveto
          -765 -355 rlineto
          -24 -11 -20 -14 -15 -19 -21 -24 -10 -25 0 -25 0 -12 3 -13 5 -12 7 -19 13 -14 18 -11 rrcurveto
          615 -362 rlineto
          18 -10 20 -5 22 0 rrcurveto
          1800 hmoveto
          34 0 33 12 31 25 38 30 19 32 0 33 0 13 -3 12 -5 13 -8 19 -13 16 -17 11 rrcurveto
          -422 254 rlineto
          -4 3 -3 4 0 6 0 12 3 6 4 0 3 0 1 -3 0 -5 0 -4 -1 -7 -2 -8 rrcurveto
          2 8 527 250 rlineto
          22 11 19 16 17 19 21 25 10 24 0 25 0 20 -8 20 -16 19 -21 24 -27 12 -33 0 -23 0 -22 -5 -22 -11 rrcurveto
          -765 -355 rlineto
          -24 -11 -20 -14 -15 -19 -21 -24 -10 -25 0 -25 0 -12 3 -13 5 -12 7 -19 13 -14 18 -11 rrcurveto
          615 -362 rlineto
          18 -10 20 -5 22 0 rrcurveto
          -900 hmoveto
          34 0 33 12 31 25 38 30 19 32 0 33 0 13 -3 12 -5 13 -8 19 -13 16 -17 11 rrcurveto
          -422 254 rlineto
          -4 3 -3 4 0 6 0 12 3 6 4 0 3 0 1 -3 0 -5 0 -4 -1 -7 -2 -8 rrcurveto
          2 8 527 250 rlineto
          22 11 19 16 17 19 21 25 10 24 0 25 0 20 -8 20 -16 19 -21 24 -27 12 -33 0 -23 0 -22 -5 -22 -11 rrcurveto
          -765 -355 rlineto
          -24 -11 -20 -14 -15 -19 -21 -24 -10 -25 0 -25 0 -12 3 -13 5 -12 7 -19 13 -14 18 -11 rrcurveto
          615 -362 rlineto
          18 -10 20 -5 22 0 rrcurveto
          endchar
        </CharString>
        <CharString name="less_slash">
          0 -163 -355 rmoveto
          27 0 26 7 25 14 25 14 19 18 14 21 rrcurveto
          1150 1750 rlineto
          13 21 7 20 0 20 0 13 -3 14 -6 15 -15 35 -33 18 -51 0 -27 0 -25 -7 -25 -13 -25 -14 -20 -18 -14 -21 rrcurveto
          -860 -1308 rlineto
          -385 232 -193 117 0 2 0 6 1 4 3 1 rrcurveto
          526 250 rlineto
          59 33 29 40 0 48 0 21 -7 19 -14 18 -19 24 -28 12 -37 0 -23 0 -22 -5 -23 -10 rrcurveto
          -766 -355 rlineto
          -25 -11 -20 -15 -15 -19 -21 -25 -10 -27 0 -28 0 -30 15 -26 31 -20 rrcurveto
          800 -475 -146 -223 rlineto
          -13 -21 -7 -19 0 -19 0 -14 3 -15 7 -15 15 -36 32 -18 51 0 rrcurveto
          endchar
        </CharString>
        <CharString name="less_slash_greater">
          0 -1093 -355 rmoveto
          27 0 26 7 25 14 25 14 19 18 14 21 rrcurveto
          835 1270 rlineto
          431 -257 216 -129 0 -3 -1 -5 -2 -2 -1 -1 rrcurveto
          -529 -254 rlineto
          -60 -32 -30 -40 0 -48 0 -21 8 -20 15 -18 19 -25 29 -12 38 0 21 0 21 5 23 9 rrcurveto
          771 364 rlineto
          59 31 30 39 0 49 0 36 -16 28 -31 18 rrcurveto
          -869 505 173 263 rlineto
          13 21 7 20 0 20 0 13 -3 14 -6 15 -15 35 -33 18 -51 0 -27 0 -25 -7 -25 -13 -25 -14 -20 -18 -14 -21 rrcurveto
          -860 -1308 rlineto
          -385 232 -193 117 0 2 0 6 1 4 3 1 rrcurveto
          526 250 rlineto
          59 33 29 40 0 48 0 21 -7 19 -14 18 -19 24 -28 12 -37 0 -23 0 -22 -5 -23 -10 rrcurveto
          -766 -355 rlineto
          -25 -11 -20 -15 -15 -19 -21 -25 -10 -27 0 -28 0 -30 15 -26 31 -20 rrcurveto
          800 -475 -146 -223 rlineto
          -13 -21 -7 -19 0 -19 0 -14 3 -15 7 -15 15 -36 32 -18 51 0 rrcurveto
          endchar
        </CharString>
        <CharString name="lightshade">
          0 1080 1920 rmoveto
          120 120 -120 hlineto
          -960 -120 rmoveto
          120 120 -120 hlineto
          240 -120 rmoveto
          120 120 -120 hlineto
          240 -120 rmoveto
          120 120 -120 hlineto
          240 -120 rmoveto
          120 120 -120 hlineto
          240 -360 rmoveto
          120 120 -120 hlineto
          -960 -120 rmoveto
          120 120 -120 hlineto
          240 -120 rmoveto
          120 120 -120 hlineto
          240 -120 rmoveto
          120 120 -120 hlineto
          240 -120 rmoveto
          120 120 -120 hlineto
          240 -360 rmoveto
          120 120 -120 hlineto
          -960 -120 rmoveto
          120 120 -120 hlineto
          240 -120 rmoveto
          120 120 -120 hlineto
          240 -120 rmoveto
          120 120 -120 hlineto
          240 -120 rmoveto
          120 120 -120 hlineto
          240 -360 rmoveto
          120 120 -120 hlineto
          -960 -120 rmoveto
          120 120 -120 hlineto
          240 -120 rmoveto
          120 120 -120 hlineto
          240 -120 rmoveto
          120 120 -120 hlineto
          240 -120 rmoveto
          120 120 -120 hlineto
          240 -360 rmoveto
          120 120 -120 hlineto
          -960 -120 rmoveto
          120 120 -120 hlineto
          240 -120 rmoveto
          120 120 -120 hlineto
          240 -120 rmoveto
          120 120 -120 hlineto
          240 -120 rmoveto
          120 120 -120 hlineto
          240 -360 rmoveto
          120 120 -120 hlineto
          -960 -120 rmoveto
          120 120 -120 hlineto
          240 -120 rmoveto
          120 120 -120 hlineto
          240 -120 rmoveto
          120 120 -120 hlineto
          240 -120 rmoveto
          120 120 -120 hlineto
          240 -360 rmoveto
          120 120 -120 hlineto
          -960 -120 rmoveto
          120 120 -120 hlineto
          240 -120 rmoveto
          120 120 -120 hlineto
          240 -120 rmoveto
          120 120 -120 hlineto
          240 -120 rmoveto
          120 120 -120 hlineto
          240 -360 rmoveto
          120 120 -120 hlineto
          -960 -120 rmoveto
          120 120 -120 hlineto
          240 -120 rmoveto
          120 120 -120 hlineto
          240 -120 rmoveto
          120 120 -120 hlineto
          240 -120 rmoveto
          120 120 -120 hlineto
          240 -360 rmoveto
          120 120 -120 hlineto
          -960 -120 rmoveto
          120 120 -120 hlineto
          240 -120 rmoveto
          120 120 -120 hlineto
          240 -120 rmoveto
          120 120 -120 hlineto
          240 -120 rmoveto
          120 120 -120 hlineto
          240 -360 rmoveto
          120 120 -120 hlineto
          -960 -120 rmoveto
          120 120 -120 hlineto
          240 -120 rmoveto
          120 120 -120 hlineto
          240 -120 rmoveto
          120 120 -120 hlineto
          240 -120 rmoveto
          120 120 -120 hlineto
          240 -360 rmoveto
          120 120 -120 hlineto
          -960 -120 rmoveto
          120 120 -120 hlineto
          240 -120 rmoveto
          120 120 -120 hlineto
          240 -120 rmoveto
          120 120 -120 hlineto
          240 -120 rmoveto
          120 120 -120 hlineto
          endchar
        </CharString>
        <CharString name="lowerfiveeighthsblock">
          0 -600 vmoveto
          1200 1650 -1200 hlineto
          endchar
        </CharString>
        <CharString name="lowerhalfblock">
          0 -600 vmoveto
          1200 1320 -1200 hlineto
          endchar
        </CharString>
        <CharString name="loweroneeighthblock">
          0 -600 vmoveto
          1200 330 -1200 hlineto
          endchar
        </CharString>
        <CharString name="loweronequarterblock">
          0 -600 vmoveto
          1200 660 -1200 hlineto
          endchar
        </CharString>
        <CharString name="lowerseveneighthsblock">
          0 -600 vmoveto
          1200 2310 -1200 hlineto
          endchar
        </CharString>
        <CharString name="lowerthreeeighthsblock">
          0 -600 vmoveto
          1200 990 -1200 hlineto
          endchar
        </CharString>
        <CharString name="lowerthreequartersblock">
          0 -600 vmoveto
          1200 1980 -1200 hlineto
          endchar
        </CharString>
        <CharString name="m">
          0 574 -51 rmoveto
          32 0 29 10 25 21 26 21 16 25 7 30 rrcurveto
          158 745 rlineto
          5 22 11 20 17 16 16 16 17 8 17 0 33 0 17 -17 0 -34 0 -10 -43 -204 -85 -401 -16 -76 -8 -49 0 -20 0 -39 10 -28 19 -16 20 -17 22 -10 24 -5 25 -5 37 -2 51 0 rrcurveto
          50 0 46 11 39 23 51 28 25 29 0 27 0 20 -7 17 -14 11 -13 12 -18 6 -21 0 -17 0 -15 -5 -13 -10 -13 -10 -10 -5 -7 0 -17 0 -9 18 0 35 0 9 46 222 93 435 rrcurveto
          6 33 3 29 0 26 0 49 -11 39 -21 30 -36 48 -55 24 -73 0 -76 0 -61 -24 -44 -49 -12 -13 -13 -19 -17 -24 0 0 4 0 7 0 15 0 7 0 0 -1 0 39 -13 31 -25 24 rrcurveto
          -25 24 -43 12 -61 0 -79 0 -62 -37 -47 -73 -4 -9 5 -2 13 3 9 -9 4 -5 0 -1 0 9 1 9 1 9 rrcurveto
          1 17 rlineto
          0 59 -29 30 -58 0 -30 0 -26 -10 -25 -20 -24 -20 -15 -23 -7 -28 -134 -632 -67 -321 0 -8 0 -20 6 -19 13 -15 18 -24 26 -12 34 0 32 0 29 10 25 21 25 21 16 25 8 29 rrcurveto
          155 732 rlineto
          7 30 13 24 18 18 19 17 17 9 15 0 15 0 12 -5 9 -9 9 -10 5 -12 0 -16 0 -8 -54 -257 -108 -506 -1 -7 -1 -7 0 -7 0 -20 7 -19 13 -17 18 -24 26 -12 33 0 rrcurveto
          endchar
        </CharString>
        <CharString name="mediumshade">
          0 1080 1920 rmoveto
          120 120 -120 hlineto
          -240 -120 rmoveto
          120 120 -120 hlineto
          -240 -120 rmoveto
          120 120 -120 hlineto
          -240 -120 rmoveto
          120 120 -120 hlineto
          -240 -120 rmoveto
          120 120 -120 hlineto
          840 -240 rmoveto
          120 120 -120 hlineto
          -240 -120 rmoveto
          120 120 -120 hlineto
          -240 -120 rmoveto
          120 120 -120 hlineto
          -240 -120 rmoveto
          120 120 -120 hlineto
          -240 -120 rmoveto
          120 120 -120 hlineto
          1080 -240 rmoveto
          120 120 -120 hlineto
          -240 -120 rmoveto
          120 120 -120 hlineto
          -720 -120 rmoveto
          120 120 -120 hlineto
          480 -120 rmoveto
          120 120 -120 hlineto
          -240 -120 rmoveto
          120 120 -120 hlineto
          600 -240 rmoveto
          120 120 -120 hlineto
          -720 -120 rmoveto
          120 120 -120 hlineto
          480 -120 rmoveto
          120 120 -120 hlineto
          -720 -120 rmoveto
          120 120 -120 hlineto
          480 -120 rmoveto
          120 120 -120 hlineto
          -120 -240 rmoveto
          120 120 -120 hlineto
          720 -120 rmoveto
          120 120 -120 hlineto
          -240 -120 rmoveto
          120 120 -120 hlineto
          -720 -120 rmoveto
          120 120 -120 hlineto
          480 -120 rmoveto
          120 120 -120 hlineto
          360 -240 rmoveto
          120 120 -120 hlineto
          -480 -120 rmoveto
          120 120 -120 hlineto
          -240 -120 rmoveto
          120 120 -120 hlineto
          -240 -120 rmoveto
          120 120 -120 hlineto
          720 -120 rmoveto
          120 120 -120 hlineto
          360 -240 rmoveto
          120 120 -120 hlineto
          -720 -120 rmoveto
          120 120 -120 hlineto
          480 -120 rmoveto
          120 120 -120 hlineto
          -240 -120 rmoveto
          120 120 -120 hlineto
          -480 -120 rmoveto
          120 120 -120 hlineto
          600 -240 rmoveto
          120 120 -120 hlineto
          -480 -120 rmoveto
          120 120 -120 hlineto
          240 -120 rmoveto
          120 120 -120 hlineto
          480 -120 rmoveto
          120 120 -120 hlineto
          -960 -120 rmoveto
          120 120 -120 hlineto
          600 -240 rmoveto
          120 120 -120 hlineto
          480 -120 rmoveto
          120 120 -120 hlineto
          -720 -120 rmoveto
          120 120 -120 hlineto
          -240 -120 rmoveto
          120 120 -120 hlineto
          720 -120 rmoveto
          120 120 -120 hlineto
          -840 -240 rmoveto
          120 120 -120 hlineto
          960 -120 rmoveto
          120 120 -120 hlineto
          -240 -120 rmoveto
          120 120 -120 hlineto
          -480 -120 rmoveto
          120 120 -120 hlineto
          240 -120 rmoveto
          120 120 -120 hlineto
          600 -240 rmoveto
          120 120 -120 hlineto
          -480 -120 rmoveto
          120 120 -120 hlineto
          -240 -120 rmoveto
          120 120 -120 hlineto
          -240 -120 rmoveto
          120 120 -120 hlineto
          720 -120 rmoveto
          120 120 -120 hlineto
          -360 -240 rmoveto
          120 120 -120 hlineto
          240 -120 rmoveto
          120 120 -120 hlineto
          -720 -120 rmoveto
          120 120 -120 hlineto
          240 -120 rmoveto
          120 120 -120 hlineto
          720 -120 rmoveto
          120 120 -120 hlineto
          -360 -240 rmoveto
          120 120 -120 hlineto
          -480 -120 rmoveto
          120 120 -120 hlineto
          240 -120 rmoveto
          120 120 -120 hlineto
          720 -120 rmoveto
          120 120 -120 hlineto
          -240 -120 rmoveto
          120 120 -120 hlineto
          -120 -240 rmoveto
          120 120 -120 hlineto
          -480 -120 rmoveto
          120 120 -120 hlineto
          720 -120 rmoveto
          120 120 -120 hlineto
          -480 -120 rmoveto
          120 120 -120 hlineto
          -480 -120 rmoveto
          120 120 -120 hlineto
          840 -240 rmoveto
          120 120 -120 hlineto
          -480 -120 rmoveto
          120 120 -120 hlineto
          240 -120 rmoveto
          120 120 -120 hlineto
          480 -120 rmoveto
          120 120 -120 hlineto
          -960 -120 rmoveto
          120 120 -120 hlineto
          840 -240 rmoveto
          120 120 -120 hlineto
          -960 -120 rmoveto
          120 120 -120 hlineto
          480 -120 rmoveto
          120 120 -120 hlineto
          240 -120 rmoveto
          120 120 -120 hlineto
          -480 -120 rmoveto
          120 120 -120 hlineto
          -120 -240 rmoveto
          120 120 -120 hlineto
          720 -120 rmoveto
          120 120 -120 hlineto
          -240 -120 rmoveto
          120 120 -120 hlineto
          -240 -120 rmoveto
          120 120 -120 hlineto
          720 -120 rmoveto
          120 120 -120 hlineto
          -120 -240 rmoveto
          120 120 -120 hlineto
          -240 -120 rmoveto
          120 120 -120 hlineto
          -720 -120 rmoveto
          120 120 -120 hlineto
          480 -120 rmoveto
          120 120 -120 hlineto
          -240 -120 rmoveto
          120 120 -120 hlineto
          840 -240 rmoveto
          120 120 -120 hlineto
          -240 -120 rmoveto
          120 120 -120 hlineto
          -720 -120 rmoveto
          120 120 -120 hlineto
          480 -120 rmoveto
          120 120 -120 hlineto
          -240 -120 rmoveto
          120 120 -120 hlineto
          -120 -240 rmoveto
          120 120 -120 hlineto
          720 -120 rmoveto
          120 120 -120 hlineto
          -240 -120 rmoveto
          120 120 -120 hlineto
          -240 -120 rmoveto
          120 120 -120 hlineto
          -480 -120 rmoveto
          120 120 -120 hlineto
          1080 -240 rmoveto
          120 120 -120 hlineto
          -720 -120 rmoveto
          120 120 -120 hlineto
          480 -120 rmoveto
          120 120 -120 hlineto
          -240 -120 rmoveto
          120 120 -120 hlineto
          -480 -120 rmoveto
          120 120 -120 hlineto
          360 -240 rmoveto
          120 120 -120 hlineto
          480 -120 rmoveto
          120 120 -120 hlineto
          -240 -120 rmoveto
          120 120 -120 hlineto
          -480 -120 rmoveto
          120 120 -120 hlineto
          -240 -120 rmoveto
          120 120 -120 hlineto
          endchar
        </CharString>
        <CharString name="n">
          0 1023 -50 rmoveto
          50 0 46 11 39 23 51 28 25 29 0 27 0 20 -7 17 -14 11 -13 12 -18 6 -21 0 -17 0 -15 -5 -13 -10 -13 -10 -10 -5 -7 0 -19 0 -9 18 0 35 0 10 34 162 67 313 rrcurveto
          13 64 7 56 0 50 0 75 -16 60 -31 44 -50 73 -88 36 -124 0 -104 -1 -108 -49 -112 -95 -5 -4 -1 -2 1 0 10 0 5 -2 0 -5 0 2 1 4 2 9 5 19 2 16 0 13 rrcurveto
          0 22 -7 19 -13 17 -18 25 -26 12 -35 0 -32 0 -29 -11 -26 -22 -27 -22 -17 -26 -7 -32 -132 -623 -66 -316 0 -9 0 -20 6 -18 12 -16 19 -23 27 -12 36 0 37 0 30 11 22 21 rrcurveto
          22 21 15 26 7 32 rrcurveto
          117 548 rlineto
          18 84 48 66 77 47 65 37 60 19 56 0 87 0 44 -49 0 -97 0 -24 -3 -26 -6 -30 rrcurveto
          -91 -432 rlineto
          -14 -68 -7 -44 0 -20 0 -29 10 -25 19 -21 20 -21 22 -13 26 -5 26 -5 37 -3 48 0 rrcurveto
          endchar
        </CharString>
        <CharString name="nine">
          0 802 1227 rmoveto
          54 0 41 -20 28 -40 29 -39 14 -56 0 -73 0 -83 -17 -90 -34 -97 -101 -27 -78 -14 -55 0 -52 0 -36 2 -19 4 -58 13 -30 58 -1 104 0 106 42 92 85 77 60 55 63 28 65 0 rrcurveto
          50 223 rmoveto
          -115 0 -97 -23 -79 -47 -78 -47 -67 -62 -57 -78 -74 -110 -37 -122 0 -136 rrcurveto
          -24 vlineto
          5 -198 105 -107 205 -16 29 -3 28 -1 28 0 60 0 53 4 46 9 -110 -194 -160 -123 -210 -50 -65 -15 -43 -18 -22 -20 -22 -21 -11 -20 0 -21 0 -8 3 -9 7 -9 19 -21 24 -10 29 0 rrcurveto
          226 4 197 80 168 157 110 98 87 128 63 158 23 12 23 15 23 16 85 65 42 50 0 36 0 32 -19 16 -39 0 -24 0 -21 -4 -20 -8 22 81 11 88 0 94 0 255 -117 127 -234 0 rrcurveto
          endchar
        </CharString>
        <CharString name="northeastarrow">
          0 930 925 rmoveto
          0 -5 0 -6 -1 -6 -3 -33 -1 -33 0 -34 rrcurveto
          -418 210 870 -880 -196 415 vlineto
          34 0 32 1 30 3 6 1 7 0 5 1 -6 -5 -6 -5 -6 -5 -21 -17 -19 -19 -19 -19 rrcurveto
          -718 -724 149 -156 729 736 rlineto
          19 19 20 21 20 23 rrcurveto
          endchar
        </CharString>
        <CharString name="northwestarrow">
          0 416 1070 rmoveto
          5 -1 6 0 8 -1 29 -3 32 -1 34 0 rrcurveto
          415 196 -880 -870 210 418 hlineto
          0 34 -2 33 -4 32 rrcurveto
          -2 15 rlineto
          1 -2 2 -2 2 -1 19 -23 19 -21 19 -19 rrcurveto
          729 -736 154 158 -718 724 rlineto
          -18 19 -20 19 -21 17 -7 5 -7 5 -5 5 rrcurveto
          endchar
        </CharString>
        <CharString name="numbersign">
          0 789 -55 rmoveto
          38 0 34 12 29 25 29 24 18 26 6 28 rrcurveto
          152 715 rlineto
          -260 hlineto
          -103 -483 -51 -245 0 -7 0 -20 7 -20 15 -18 19 -25 28 -12 39 0 rrcurveto
          -125 680 rmoveto
          103 484 51 245 0 7 0 20 -7 20 -15 18 -19 24 -29 12 -39 0 -38 0 -34 -12 -29 -24 -29 -24 -18 -26 -6 -28 rrcurveto
          -152 -716 rlineto
          -14 -680 rmoveto
          38 0 34 12 30 25 29 24 18 26 6 28 rrcurveto
          41 195 rlineto
          -261 hlineto
          -29 -137 -14 -71 0 -7 0 -20 7 -20 15 -18 19 -25 28 -12 39 0 rrcurveto
          21 900 rmoveto
          48 230 rlineto
          -101 hlineto
          -38 0 -34 -12 -29 -24 -37 -31 -18 -33 0 -35 0 -20 7 -20 15 -18 19 -25 29 -12 38 0 rrcurveto
          941 hmoveto
          38 0 34 12 29 25 37 30 18 33 0 36 0 20 -7 20 -15 18 -19 24 -29 12 -38 0 rrcurveto
          -500 hlineto
          -48 -230 rlineto
          -51 -520 rmoveto
          49 230 rlineto
          -501 hlineto
          -38 0 -34 -12 -29 -24 -37 -30 -18 -33 0 -36 0 -20 7 -20 15 -18 19 -25 28 -12 38 0 rrcurveto
          941 hmoveto
          38 0 34 12 30 25 36 30 19 32 0 34 0 22 -7 20 -15 19 -19 24 -29 12 -38 0 rrcurveto
          -100 hlineto
          -49 -230 rlineto
          134 820 rmoveto
          29 137 15 73 0 6 0 21 -7 19 -14 18 -19 24 -29 12 -39 0 -38 0 -34 -12 -29 -24 -29 -24 -18 -26 -6 -28 rrcurveto
          -42 -196 rlineto
          endchar
        </CharString>
        <CharString name="numbersign_braceleft">
          0 -501 325 rmoveto
          49 230 rlineto
          -501 hlineto
          -35 0 -33 -12 -31 -25 -38 -31 -19 -32 0 -33 0 -21 8 -20 16 -19 21 -25 27 -12 35 0 rrcurveto
          1276 520 rmoveto
          62 0 65 14 67 28 rrcurveto
          321 138 rlineto
          23 11 23 16 25 23 24 22 14 21 4 20 14 65 8 43 3 21 rrcurveto
          9 45 rlineto
          12 58 31 42 51 27 23 17 47 9 71 0 rrcurveto
          69 hlineto
          33 0 31 11 29 23 36 29 19 33 0 37 0 40 -18 27 -36 15 -15 5 -15 3 -16 0 -105 0 -67 -1 -27 -1 -81 -5 -72 -25 -64 -44 -106 -72 -67 -100 -27 -127 -6 -27 -10 -56 -14 -84 rrcurveto
          -5 -21 -11 -17 -17 -13 -17 -13 -16 -7 -15 0 rrcurveto
          -963 hlineto
          -48 -230 rlineto
          -340 hmoveto
          48 230 rlineto
          -101 hlineto
          -35 0 -32 -12 -31 -25 -39 -30 -19 -32 0 -34 0 -21 8 -20 17 -19 21 -25 27 -12 35 0 rrcurveto
          1558 -365 rmoveto
          50 0 30 22 9 44 rrcurveto
          1 11 rlineto
          0 15 -6 14 -13 13 rrcurveto
          -72 80 rlineto
          -3 4 -2 4 0 6 0 11 4 9 9 7 rrcurveto
          107 81 rlineto
          29 21 14 24 0 27 0 31 -21 16 -42 0 -13 0 -14 -3 -15 -5 rrcurveto
          -324 -135 rlineto
          -55 -17 -28 -31 0 -47 0 -28 17 -19 33 -12 rrcurveto
          267 -135 rlineto
          13 -5 12 -3 13 0 rrcurveto
          -1478 -535 rmoveto
          35 0 33 12 31 25 31 25 19 26 6 27 rrcurveto
          41 195 rlineto
          -261 hlineto
          -29 -136 -14 -71 0 -6 0 -21 8 -20 17 -19 21 -25 27 -12 35 0 rrcurveto
          275 680 rmoveto
          103 484 51 244 0 6 0 21 -8 20 -17 19 -21 24 -28 12 -35 0 -35 0 -32 -12 -31 -25 -31 -25 -19 -25 -6 -27 rrcurveto
          -152 -716 rlineto
          386 -680 rmoveto
          35 0 33 12 31 25 31 25 18 26 6 27 rrcurveto
          152 715 rlineto
          -260 hlineto
          -103 -483 -51 -244 0 -6 0 -21 8 -20 17 -19 21 -25 27 -12 35 0 rrcurveto
          384 1200 rmoveto
          29 137 15 71 0 6 0 21 -8 20 -16 19 -21 24 -28 12 -35 0 -35 0 -32 -12 -31 -25 -31 -25 -19 -25 -6 -27 rrcurveto
          -42 -196 rlineto
          1154 -1433 rmoveto
          35 0 32 12 30 23 33 29 17 33 0 36 0 38 -18 26 -35 16 -15 7 -16 3 -16 0 rrcurveto
          -68 hlineto
          -71 0 -44 9 -15 17 -30 21 -15 29 0 38 0 17 6 29 10 40 5 20 10 42 14 65 rrcurveto
          1 14 rlineto
          0 16 -5 17 -11 17 -15 21 -17 16 -19 11 rrcurveto
          -261 138 rlineto
          -55 29 -59 14 -63 0 rrcurveto
          -324 hlineto
          -49 -230 rlineto
          563 hlineto
          14 0 11 -5 9 -11 8 -11 4 -15 0 -19 0 -12 -2 -19 -6 -26 -5 -22 -9 -40 -15 -58 -7 -33 -3 -32 0 -29 0 -84 27 -68 56 -53 44 -43 62 -25 80 -5 27 -2 66 -1 104 0 rrcurveto
          endchar
        </CharString>
        <CharString name="numbersign_bracketleft">
          0 -411 -55 rmoveto
          35 0 33 12 31 25 31 25 18 26 6 27 rrcurveto
          152 715 rlineto
          -260 hlineto
          -103 -483 -51 -244 0 -6 0 -21 8 -20 17 -19 21 -25 27 -12 35 0 rrcurveto
          384 1200 rmoveto
          29 137 15 71 0 6 0 21 -8 20 -16 19 -21 24 -28 12 -35 0 -35 0 -32 -12 -31 -25 -31 -25 -19 -25 -6 -27 rrcurveto
          -42 -196 rlineto
          -214 -820 rmoveto
          49 230 rlineto
          -501 hlineto
          -35 0 -33 -12 -31 -25 -38 -31 -19 -32 0 -33 0 -21 8 -20 16 -19 21 -25 27 -12 35 0 rrcurveto
          212 520 rmoveto
          48 230 rlineto
          -101 hlineto
          -35 0 -32 -12 -31 -25 -39 -30 -19 -32 0 -34 0 -21 8 -20 17 -19 21 -25 27 -12 35 0 rrcurveto
          1669 -1139 rmoveto
          35 0 32 12 31 25 38 29 19 32 0 33 0 21 -8 21 -16 19 -21 24 -27 12 -35 0 rrcurveto
          -331 hlineto
          326 1532 rlineto
          331 hlineto
          35 0 32 12 31 25 38 30 19 32 0 34 0 21 -8 19 -16 19 -21 24 -27 12 -35 0 rrcurveto
          -456 hlineto
          -36 0 -34 -12 -31 -25 -32 -25 -19 -27 -6 -28 rrcurveto
          -107 -502 rlineto
          -881 hlineto
          -48 -230 rlineto
          881 hlineto
          -62 -290 rlineto
          -481 hlineto
          -49 -230 rlineto
          481 hlineto
          -73 -341 -36 -173 0 -6 0 -21 8 -21 17 -19 21 -25 29 -13 36 0 rrcurveto
          -1133 239 rmoveto
          35 0 33 12 31 25 31 25 19 26 6 27 rrcurveto
          41 195 rlineto
          -261 hlineto
          -29 -136 -14 -71 0 -6 0 -21 8 -20 17 -19 21 -25 27 -12 35 0 rrcurveto
          275 680 rmoveto
          103 484 51 244 0 6 0 21 -8 20 -17 19 -21 24 -28 12 -35 0 -35 0 -32 -12 -31 -25 -31 -25 -19 -25 -6 -27 rrcurveto
          -152 -716 rlineto
          endchar
        </CharString>
        <CharString name="numbersign_expand">
          0 789 -55 rmoveto
          38 0 34 12 29 25 29 24 18 26 6 28 rrcurveto
          152 715 rlineto
          -260 hlineto
          -103 -483 -51 -245 0 -7 0 -20 7 -20 15 -18 19 -25 28 -12 39 0 rrcurveto
          -125 680 rmoveto
          103 484 51 245 0 7 0 20 -7 20 -15 18 -19 24 -29 12 -39 0 -38 0 -34 -12 -29 -24 -29 -24 -18 -26 -6 -28 rrcurveto
          -152 -716 rlineto
          -14 -680 rmoveto
          38 0 34 12 30 25 29 24 18 26 6 28 rrcurveto
          41 195 rlineto
          -261 hlineto
          -29 -137 -14 -71 0 -7 0 -20 7 -20 15 -18 19 -25 28 -12 39 0 rrcurveto
          21 900 rmoveto
          48 230 rlineto
          -101 hlineto
          -38 0 -34 -12 -29 -24 -37 -31 -18 -33 0 -35 0 -20 7 -20 15 -18 19 -25 29 -12 38 0 rrcurveto
          1321 hmoveto
          48 230 rlineto
          -880 hlineto
          -48 -230 rlineto
          -51 -520 rmoveto
          49 230 rlineto
          -501 hlineto
          -38 0 -34 -12 -29 -24 -37 -30 -18 -33 0 -36 0 -20 7 -20 15 -18 19 -25 28 -12 38 0 rrcurveto
          1721 hmoveto
          49 230 rlineto
          -880 hlineto
          -49 -230 rlineto
          134 820 rmoveto
          29 137 15 73 0 6 0 21 -7 19 -14 18 -19 24 -29 12 -39 0 -38 0 -34 -12 -29 -24 -29 -24 -18 -26 -6 -28 rrcurveto
          -42 -196 rlineto
          endchar
        </CharString>
        <CharString name="numbersign_parenleft">
          0 -411 -55 rmoveto
          35 0 33 12 31 25 31 25 18 26 6 27 rrcurveto
          152 715 rlineto
          -260 hlineto
          -103 -483 -51 -244 0 -6 0 -21 8 -20 17 -19 21 -25 27 -12 35 0 rrcurveto
          384 1200 rmoveto
          29 137 15 71 0 6 0 21 -8 20 -16 19 -21 24 -28 12 -35 0 -35 0 -32 -12 -31 -25 -31 -25 -19 -25 -6 -27 rrcurveto
          -42 -196 rlineto
          -214 -820 rmoveto
          49 230 rlineto
          -501 hlineto
          -35 0 -33 -12 -31 -25 -38 -31 -19 -32 0 -33 0 -21 8 -20 16 -19 21 -25 27 -12 35 0 rrcurveto
          212 520 rmoveto
          48 230 rlineto
          -101 hlineto
          -35 0 -32 -12 -31 -25 -39 -30 -19 -32 0 -34 0 -21 8 -20 17 -19 21 -25 27 -12 35 0 rrcurveto
          1684 -1188 rmoveto
          47 0 40 18 33 35 20 20 9 25 0 30 0 25 -10 22 -21 17 -99 79 -78 93 -57 109 -58 104 -29 115 0 128 0 61 7 63 13 66 rrcurveto
          19 90 rlineto
          40 176 98 171 155 167 103 109 116 93 131 79 46 27 22 36 0 45 0 11 -1 9 -4 9 -15 37 -33 19 -50 0 -24 0 -22 -5 -20 -11 -179 -95 -156 -119 -133 -144 -85 -94 -71 -99 -56 -103 rrcurveto
          -893 hlineto
          -48 -230 rlineto
          845 hlineto
          -11 -36 -12 -44 -11 -53 -13 -61 -8 -52 -5 -44 rrcurveto
          -447 hlineto
          -49 -230 rlineto
          495 hlineto
          12 -105 28 -98 44 -92 72 -143 105 -119 138 -95 16 -11 20 -5 24 0 rrcurveto
          -1604 288 rmoveto
          35 0 33 12 31 25 31 25 19 26 6 27 rrcurveto
          41 195 rlineto
          -261 hlineto
          -29 -136 -14 -71 0 -6 0 -21 8 -20 17 -19 21 -25 27 -12 35 0 rrcurveto
          275 680 rmoveto
          103 484 51 244 0 6 0 21 -8 20 -17 19 -21 24 -28 12 -35 0 -35 0 -32 -12 -31 -25 -31 -25 -19 -25 -6 -27 rrcurveto
          -152 -716 rlineto
          endchar
        </CharString>
        <CharString name="o">
          0 643 176 rmoveto
          -75 0 -47 21 -21 43 -21 42 -10 46 0 48 0 42 6 49 12 55 24 117 39 88 54 59 53 59 65 29 78 0 74 0 47 -21 21 -43 21 -43 10 -46 0 -49 0 -42 -6 -48 -12 -54 rrcurveto
          -49 -235 -104 -117 -159 0 rrcurveto
          -40 -226 rmoveto
          99 0 88 23 75 45 75 46 66 64 59 84 58 84 42 104 27 124 13 66 7 59 0 54 0 47 -5 44 -11 39 -23 85 -40 66 -57 46 -57 47 -79 23 -101 0 -98 0 -87 -23 -75 -45 rrcurveto
          -75 -45 -67 -64 -59 -84 -58 -84 -42 -103 -26 -122 -14 -67 -7 -61 0 -55 0 -47 5 -43 11 -39 48 -179 119 -89 189 0 rrcurveto
          endchar
        </CharString>
        <CharString name="one">
          0 995 -20 rmoveto
          31 0 29 11 28 22 32 28 17 32 3 35 0 26 -8 23 -17 18 -17 19 -24 9 -32 0 rrcurveto
          -244 hlineto
          -7 2 -4 7 0 12 171 724 86 371 0 19 0 30 -12 26 -23 23 -23 22 -31 11 -39 0 -63 0 -44 -24 -24 -48 -70 -144 -82 -75 -94 -6 -95 -6 -47 -32 0 -58 1 -65 60 -33 119 0 rrcurveto
          123 0 36 -63 -53 -126 rrcurveto
          -130 -541 rlineto
          -1 -7 -4 -6 -5 -5 -6 -5 -5 -3 -4 0 rrcurveto
          -207 hlineto
          -31 0 -31 -12 -31 -23 -31 -24 -16 -33 0 -43 0 -22 9 -21 17 -18 17 -18 24 -9 30 0 rrcurveto
          endchar
        </CharString>
        <CharString name="p">
          0 663 178 rmoveto
          -61 0 -47 22 -31 43 -27 39 -14 41 0 41 0 14 2 15 3 14 rrcurveto
          45 211 rlineto
          15 73 37 60 59 44 58 45 58 22 58 0 118 -2 59 -63 0 -123 0 -35 -5 -40 -10 -46 -28 -131 -45 -97 -63 -64 -54 -55 -61 -28 -66 0 rrcurveto
          -479 -686 rmoveto
          30 0 28 10 26 21 25 21 17 27 7 32 rrcurveto
          88 412 rlineto
          3 14 4 7 6 0 3 0 5 -3 5 -6 54 -51 73 -26 92 0 127 0 113 52 98 103 105 110 73 151 41 192 16 75 8 67 0 59 0 227 -114 114 -229 0 -108 0 -96 -41 -84 -81 rrcurveto
          -3 -3 -1 -1 -1 0 8 0 4 3 0 6 rrcurveto
          3 38 rlineto
          0 53 -31 26 -62 0 -31 0 -29 -10 -26 -20 -26 -20 -17 -26 -7 -33 -198 -930 -99 -469 0 -8 0 -22 7 -19 15 -16 19 -23 26 -12 33 0 rrcurveto
          endchar
        </CharString>
        <CharString name="parenleft">
          0 793 -343 rmoveto
          47 0 40 18 33 35 20 20 9 25 0 30 0 25 -10 22 -21 17 -99 79 -78 93 -57 109 -58 104 -29 115 0 128 0 61 7 63 13 66 rrcurveto
          19 90 rlineto
          40 176 98 171 155 167 103 109 116 93 131 79 46 27 22 36 0 45 0 11 -1 9 -4 9 -15 37 -33 19 -50 0 -24 0 -22 -5 -20 -11 -179 -95 -156 -119 -133 -144 -175 -193 -113 -212 -49 -231 rrcurveto
          -25 -116 -13 -100 0 -84 0 -146 30 -135 60 -124 72 -143 105 -119 138 -95 16 -11 20 -5 24 0 rrcurveto
          endchar
        </CharString>
        <CharString name="parenright">
          0 261 -343 rmoveto
          24 0 22 5 20 11 179 95 156 119 132 143 176 193 114 220 52 246 rrcurveto
          10 46 rlineto
          17 79 8 78 0 75 0 142 -30 135 -62 127 -71 144 -105 119 -138 95 -16 11 -20 5 -24 0 -50 0 -41 -19 -31 -37 -18 -21 -9 -24 0 -28 0 -26 10 -21 22 -17 97 -79 77 -93 56 -109 rrcurveto
          60 -118 30 -121 0 -123 0 -50 -5 -51 -10 -51 rrcurveto
          -19 -90 rlineto
          -46 -205 -98 -179 -151 -153 -104 -109 -118 -93 -132 -79 -45 -28 -23 -37 0 -46 0 -11 2 -9 4 -8 18 -35 33 -18 47 0 rrcurveto
          endchar
        </CharString>
        <CharString name="percent">
          0 901 148 rmoveto
          -37 0 -19 27 0 54 0 25 4 30 8 36 29 134 41 67 54 0 35 0 18 -29 0 -57 0 -30 -5 -39 -10 -46 -25 -115 -39 -57 -54 0 rrcurveto
          -382 741 rmoveto
          -37 0 -19 27 0 54 0 25 4 30 8 36 28 134 41 67 54 0 36 0 17 -29 0 -58 0 -30 -4 -38 -10 -46 -25 -115 -39 -57 -54 0 rrcurveto
          -347 -773 rmoveto
          19 0 21 5 24 9 23 9 20 12 17 15 rrcurveto
          361 346 rlineto
          25 26 13 28 0 28 0 20 -8 19 -15 16 -21 21 -26 11 -33 0 -33 0 -32 -12 -31 -23 rrcurveto
          -389 -314 rlineto
          -28 -24 -18 -30 -8 -37 -1 -5 -1 -6 0 -5 0 -35 16 -30 31 -23 19 -14 24 -7 31 0 rrcurveto
          734 603 rmoveto
          15 0 17 3 18 7 18 7 15 8 13 10 rrcurveto
          390 314 rlineto
          36 31 19 36 0 40 0 22 -8 22 -15 20 -20 27 -32 15 -44 3 -19 0 -22 -4 -24 -9 -25 -9 -20 -13 -17 -15 rrcurveto
          -359 -346 rlineto
          -26 -28 -13 -27 0 -26 0 -21 7 -18 15 -16 18 -21 27 -11 36 -1 rrcurveto
          -45 -763 rmoveto
          107 0 90 35 71 71 71 71 46 86 21 101 11 50 5 46 0 41 0 62 -13 52 -25 41 -42 67 -74 34 -107 0 -217 0 -137 -131 -59 -262 -8 -37 -4 -34 0 -32 0 -61 14 -53 28 -44 rrcurveto
          43 -69 74 -34 105 0 rrcurveto
          -383 741 rmoveto
          107 0 90 35 71 71 71 71 46 86 22 101 10 49 6 45 0 41 0 63 -13 53 -26 41 -42 67 -74 34 -107 0 -217 0 -137 -131 -58 -262 -8 -37 -4 -34 0 -32 0 -61 14 -53 28 -44 rrcurveto
          42 -69 74 -34 105 0 rrcurveto
          endchar
        </CharString>
        <CharString name="period">
          0 593 -54 rmoveto
          57 0 52 19 45 39 57 50 29 56 0 63 0 34 -10 31 -21 28 -29 39 -43 19 -57 0 -60 0 -53 -19 -46 -39 -59 -50 -30 -56 0 -61 0 -35 12 -31 22 -29 29 -39 45 -19 60 0 rrcurveto
          endchar
        </CharString>
        <CharString name="period_period">
          0 -438 -55 rmoveto
          57 0 52 19 46 39 58 50 29 56 0 64 0 35 -10 31 -21 28 -29 39 -44 19 -57 0 -61 0 -53 -19 -46 -39 -59 -50 -30 -56 0 -63 0 -35 11 -31 22 -29 29 -39 45 -19 61 0 rrcurveto
          860 hmoveto
          57 0 52 19 46 39 58 50 29 56 0 64 0 35 -10 31 -21 28 -29 39 -44 19 -57 0 -61 0 -53 -19 -46 -39 -59 -50 -30 -56 0 -63 0 -35 11 -31 22 -29 29 -39 45 -19 61 0 rrcurveto
          endchar
        </CharString>
        <CharString name="period_period_period">
          0 152 -55 rmoveto
          57 0 52 19 46 39 58 50 29 56 0 64 0 35 -10 31 -21 28 -29 39 -44 19 -57 0 -61 0 -53 -19 -46 -39 -59 -50 -30 -56 0 -63 0 -35 11 -31 22 -29 29 -39 45 -19 61 0 rrcurveto
          -760 hmoveto
          57 0 52 19 46 39 58 50 29 56 0 64 0 35 -10 31 -21 28 -29 39 -44 19 -57 0 -61 0 -53 -19 -46 -39 -59 -50 -30 -56 0 -63 0 -35 11 -31 22 -29 29 -39 45 -19 61 0 rrcurveto
          -760 hmoveto
          57 0 52 19 46 39 58 50 29 56 0 64 0 35 -10 31 -21 28 -29 39 -44 19 -57 0 -61 0 -53 -19 -46 -39 -59 -50 -30 -56 0 -63 0 -35 11 -31 22 -29 29 -39 45 -19 61 0 rrcurveto
          endchar
        </CharString>
        <CharString name="placeholder">
          0 endchar
        </CharString>
        <CharString name="plus">
          0 631 145 rmoveto
          39 0 33 12 29 25 29 24 17 26 6 28 rrcurveto
          48 226 rlineto
          211 hlineto
          39 0 33 12 29 24 37 30 18 33 0 36 0 20 -7 20 -14 18 -19 23 -28 12 -39 0 rrcurveto
          -211 hlineto
          33 158 17 82 0 7 0 20 -7 20 -14 18 -19 23 -28 12 -39 0 -39 0 -33 -12 -29 -23 -29 -24 -17 -26 -6 -29 rrcurveto
          -48 -226 rlineto
          -211 hlineto
          -39 0 -33 -12 -29 -23 -36 -31 -19 -33 0 -37 0 -20 7 -19 14 -17 19 -24 28 -12 39 0 rrcurveto
          211 hlineto
          -33 -158 -17 -82 0 -6 0 -21 7 -19 14 -18 19 -25 28 -12 39 0 rrcurveto
          endchar
        </CharString>
        <CharString name="plus_plus">
          0 511 145 rmoveto
          39 0 33 12 29 25 29 24 17 26 6 28 rrcurveto
          48 226 rlineto
          211 hlineto
          39 0 33 12 29 24 37 30 18 33 0 36 0 20 -7 20 -14 18 -19 23 -28 12 -39 0 rrcurveto
          -211 hlineto
          33 158 17 82 0 7 0 20 -7 20 -14 18 -19 23 -28 12 -39 0 -39 0 -33 -12 -29 -23 -29 -24 -17 -26 -6 -29 rrcurveto
          -48 -226 rlineto
          -702 hlineto
          33 158 17 82 0 7 0 20 -7 20 -14 18 -19 23 -28 12 -39 0 -39 0 -33 -12 -29 -23 -29 -24 -17 -26 -6 -29 rrcurveto
          -48 -226 rlineto
          -211 hlineto
          -39 0 -33 -12 -29 -23 -36 -31 -19 -33 0 -37 0 -20 7 -19 14 -17 19 -24 28 -12 39 0 rrcurveto
          211 hlineto
          -33 -158 -17 -82 0 -6 0 -21 7 -19 14 -18 19 -25 28 -12 39 0 39 0 33 12 29 25 29 24 17 26 6 28 rrcurveto
          48 226 rlineto
          702 hlineto
          -33 -158 -17 -82 0 -6 0 -21 7 -19 14 -18 19 -25 28 -12 39 0 rrcurveto
          endchar
        </CharString>
        <CharString name="plus_plus_plus">
          0 391 145 rmoveto
          39 0 33 12 29 25 29 24 17 26 6 28 rrcurveto
          48 226 rlineto
          211 hlineto
          39 0 33 12 29 24 37 30 18 33 0 36 0 20 -7 20 -14 18 -19 23 -28 12 -39 0 rrcurveto
          -211 hlineto
          33 158 17 82 0 7 0 20 -7 20 -14 18 -19 23 -28 12 -39 0 -39 0 -33 -12 -29 -23 -29 -24 -17 -26 -6 -29 rrcurveto
          -48 -226 rlineto
          -702 hlineto
          33 158 17 82 0 7 0 20 -7 20 -14 18 -19 23 -28 12 -39 0 -39 0 -33 -12 -29 -23 -29 -24 -17 -26 -6 -29 rrcurveto
          -48 -226 rlineto
          -702 hlineto
          33 158 17 82 0 7 0 20 -7 20 -14 18 -19 23 -28 12 -39 0 -39 0 -33 -12 -29 -23 -29 -24 -17 -26 -6 -29 rrcurveto
          -48 -226 rlineto
          -211 hlineto
          -39 0 -33 -12 -29 -23 -36 -31 -19 -33 0 -37 0 -20 7 -19 14 -17 19 -24 28 -12 39 0 rrcurveto
          211 hlineto
          -33 -158 -17 -82 0 -6 0 -21 7 -19 14 -18 19 -25 28 -12 39 0 39 0 33 12 29 25 29 24 17 26 6 28 rrcurveto
          48 226 rlineto
          702 hlineto
          -33 -158 -17 -82 0 -6 0 -21 7 -19 14 -18 19 -25 28 -12 39 0 39 0 33 12 29 25 29 24 17 26 6 28 rrcurveto
          48 226 rlineto
          702 hlineto
          -33 -158 -17 -82 0 -6 0 -21 7 -19 14 -18 19 -25 28 -12 39 0 rrcurveto
          endchar
        </CharString>
        <CharString name="q">
          0 612 181 rmoveto
          -76 0 -53 26 -30 53 -11 21 -6 32 0 41 0 52 9 67 18 81 43 207 101 105 158 4 57 0 44 -18 33 -37 32 -36 16 -41 0 -46 0 -19 -2 -20 -5 -21 rrcurveto
          -45 -213 rlineto
          -13 -60 -36 -57 -60 -53 -52 -45 -58 -23 -64 0 rrcurveto
          296 -696 rmoveto
          77 0 61 23 46 45 13 13 7 17 0 19 0 15 -5 14 -11 15 -11 14 -16 7 -23 0 -14 0 -13 -3 -14 -5 -14 -5 -9 -3 -4 0 -8 0 -4 5 0 10 0 4 44 205 87 407 rrcurveto
          18 84 rlineto
          89 422 45 215 0 9 0 21 -6 18 -13 15 -19 23 -27 11 -34 0 -68 0 -41 -29 -15 -58 -6 -26 -3 -13 0 0 2 0 1 0 0 0 -51 84 -76 42 -100 0 -290 0 -185 -187 -79 -374 rrcurveto
          -19 -88 -9 -79 0 -68 0 -89 17 -71 33 -52 60 -95 94 -48 129 0 91 0 81 25 71 49 12 8 8 4 5 0 -1 0 0 -1 0 -3 0 -6 -23 -110 -47 -216 -5 -22 -2 -22 0 -20 rrcurveto
          1 -100 58 -50 115 0 rrcurveto
          endchar
        </CharString>
        <CharString name="quadrantlowerleft">
          0 -600 vmoveto
          600 1320 -600 hlineto
          endchar
        </CharString>
        <CharString name="quadrantlowerright">
          0 600 -600 rmoveto
          600 1320 -600 hlineto
          endchar
        </CharString>
        <CharString name="quadrantupperleft">
          0 720 vmoveto
          600 1320 -600 hlineto
          endchar
        </CharString>
        <CharString name="quadrantupperleftandlowerleftandlowerright">
          0 -600 vmoveto
          1200 1320 -600 1320 -600 hlineto
          endchar
        </CharString>
        <CharString name="quadrantupperleftandlowerright">
          0 720 vmoveto
          600 1320 -600 hlineto
          600 -2640 rmoveto
          600 1320 -600 hlineto
          endchar
        </CharString>
        <CharString name="quadrantupperleftandupperrightandlowerleft">
          0 -600 vmoveto
          600 1320 600 1320 -1200 hlineto
          endchar
        </CharString>
        <CharString name="quadrantupperleftandupperrightandlowerright">
          0 600 -600 rmoveto
          600 2640 -1220 -1320 620 hlineto
          endchar
        </CharString>
        <CharString name="quadrantupperright">
          0 600 720 rmoveto
          600 1320 -600 hlineto
          endchar
        </CharString>
        <CharString name="quadrantupperrightandlowerleft">
          0 600 720 rmoveto
          600 1320 -600 hlineto
          -600 -2640 rmoveto
          600 1320 -600 hlineto
          endchar
        </CharString>
        <CharString name="quadrantupperrightandlowerleftandlowerright">
          0 -600 vmoveto
          1200 2640 -600 -1320 -600 hlineto
          endchar
        </CharString>
        <CharString name="question">
          0 597 -50 rmoveto
          50 0 47 18 43 37 55 47 27 56 0 65 0 33 -10 29 -19 26 -29 39 -41 20 -53 0 -53 0 -48 -18 -43 -36 -56 -47 -28 -55 0 -65 0 -34 10 -30 21 -27 29 -39 43 -19 55 0 rrcurveto
          101 492 rmoveto
          68 0 44 31 21 62 20 62 57 68 93 73 113 92 73 120 32 147 8 38 4 36 0 34 0 67 -16 58 -33 47 -52 75 -91 38 -131 0 -183 0 -137 -78 -90 -155 -25 -42 -12 -37 0 -32 rrcurveto
          0 -55 32 -28 65 0 22 0 21 5 19 11 19 11 24 25 27 40 52 75 60 38 66 0 92 -1 46 -39 0 -76 0 -99 -50 -88 -101 -77 -74 -57 -57 -50 -41 -43 -40 -43 -28 -53 -14 -63 rrcurveto
          -3 -16 -2 -15 0 -13 1 -62 34 -31 67 0 rrcurveto
          endchar
        </CharString>
        <CharString name="question_question">
          0 453 -54 rmoveto
          57 0 52 19 45 39 57 50 29 56 0 63 0 34 -10 31 -21 28 -29 39 -43 19 -57 0 -60 0 -53 -19 -46 -39 -59 -50 -30 -56 0 -61 0 -35 12 -31 22 -29 29 -39 45 -19 60 0 rrcurveto
          -820 492 rmoveto
          79 0 51 37 24 73 19 56 55 64 91 72 116 93 74 120 31 147 8 37 4 35 0 32 0 69 -18 60 -34 50 -51 74 -93 37 -135 0 -194 0 -144 -80 -93 -161 -24 -41 -12 -37 0 -32 rrcurveto
          0 -55 35 -28 71 -1 27 0 25 6 23 13 23 13 25 27 29 41 49 70 52 35 57 0 86 -1 43 -39 0 -76 0 -99 -50 -87 -99 -75 -75 -59 -58 -50 -41 -43 -41 -43 -28 -53 -13 -63 rrcurveto
          -3 -16 -2 -15 0 -13 0 -63 37 -31 74 0 rrcurveto
          -100 -492 rmoveto
          57 0 52 19 45 39 57 50 29 56 0 63 0 34 -10 31 -21 28 -29 39 -43 19 -57 0 -60 0 -53 -19 -46 -39 -59 -50 -30 -56 0 -61 0 -35 12 -31 22 -29 29 -39 45 -19 60 0 rrcurveto
          1020 492 rmoveto
          79 0 51 37 24 73 19 56 55 64 91 72 116 93 74 120 31 147 8 37 4 35 0 32 0 69 -18 60 -34 50 -51 74 -93 37 -135 0 -194 0 -144 -80 -93 -161 -24 -41 -12 -37 0 -32 rrcurveto
          0 -55 35 -28 71 -1 27 0 25 6 23 13 23 13 25 27 29 41 49 70 52 35 57 0 86 -1 43 -39 0 -76 0 -99 -50 -87 -99 -75 -75 -59 -58 -50 -41 -43 -41 -43 -28 -53 -13 -63 rrcurveto
          -3 -16 -2 -15 0 -13 0 -63 37 -31 74 0 rrcurveto
          endchar
        </CharString>
        <CharString name="quotedbl">
          0 971 995 rmoveto
          38 0 34 12 30 25 29 24 18 26 6 28 45 213 23 110 0 7 0 20 -7 20 -15 19 -19 24 -29 12 -38 0 -38 0 -34 -12 -29 -24 -29 -25 -18 -26 -6 -28 -45 -213 -23 -110 0 -7 rrcurveto
          0 -20 7 -20 15 -18 19 -25 28 -12 38 0 rrcurveto
          -319 hmoveto
          38 0 34 12 30 25 29 24 18 26 6 28 45 213 23 110 0 7 0 20 -7 20 -15 19 -19 24 -29 12 -38 0 -38 0 -34 -12 -29 -24 -29 -25 -18 -26 -6 -28 -45 -213 -23 -110 0 -7 rrcurveto
          0 -20 7 -20 15 -18 19 -25 28 -12 38 0 rrcurveto
          endchar
        </CharString>
        <CharString name="quotesingle">
          0 812 995 rmoveto
          38 0 34 12 30 25 29 24 18 26 6 28 45 213 23 110 0 7 0 20 -7 20 -15 19 -19 24 -29 12 -38 0 -38 0 -34 -12 -29 -24 -29 -25 -18 -26 -6 -28 -45 -213 -23 -110 0 -7 rrcurveto
          0 -20 7 -20 15 -18 19 -25 28 -12 38 0 rrcurveto
          endchar
        </CharString>
        <CharString name="r">
          0 286 -50 rmoveto
          31 0 28 10 26 21 26 20 15 26 6 31 rrcurveto
          111 519 rlineto
          15 76 52 68 87 61 88 61 73 31 61 0 77 0 39 -31 0 -63 0 -24 -5 -19 -11 -14 -11 -13 -13 -9 -15 -2 -51 -9 -26 -22 0 -36 0 -45 27 -22 53 0 101 0 73 32 45 65 rrcurveto
          37 54 20 64 1 74 0 68 -18 52 -36 38 -53 59 -77 29 -100 0 -124 0 -121 -54 -119 -107 -5 -5 -2 -3 2 0 7 -1 4 -1 0 -1 0 3 2 13 5 22 5 22 2 15 0 7 rrcurveto
          0 21 -6 18 -13 16 -19 23 -28 12 -36 0 -31 0 -28 -10 -24 -21 -25 -21 -16 -25 -7 -30 -133 -629 -67 -319 0 -7 0 -21 6 -17 12 -15 18 -23 28 -12 37 0 rrcurveto
          endchar
        </CharString>
        <CharString name="referencemark">
          0 627 105 rmoveto
          41 0 38 14 35 29 45 37 22 44 0 52 0 27 -8 24 -17 20 -24 30 -34 15 -44 0 -42 0 -37 -14 -35 -28 -43 -35 -22 -44 0 -53 0 -26 8 -24 17 -22 25 -31 33 -15 42 0 rrcurveto
          191 896 rmoveto
          41 0 38 14 35 29 45 37 22 45 0 53 0 27 -8 24 -17 20 -24 30 -34 15 -44 0 -42 0 -37 -14 -35 -28 -44 -36 -22 -44 0 -53 0 -26 8 -24 17 -23 26 -31 34 -15 41 0 rrcurveto
          -637 -866 rmoveto
          32 0 28 12 26 25 rrcurveto
          454 373 292 -372 rlineto
          20 -25 26 -12 31 0 29 0 29 12 28 23 33 27 17 31 0 34 0 20 -7 19 -15 18 rrcurveto
          -299 376 463 382 rlineto
          32 27 16 30 0 34 0 20 -7 18 -14 18 -19 24 -26 12 -32 0 -29 0 -27 -11 -27 -21 rrcurveto
          -454 -375 -292 372 rlineto
          -19 23 -26 12 -32 0 -27 0 -28 -11 -28 -22 -34 -27 -17 -30 0 -33 0 -22 8 -20 15 -16 rrcurveto
          296 -378 -459 -381 rlineto
          -35 -25 -18 -31 0 -35 0 -20 7 -18 14 -18 18 -26 25 -13 32 0 rrcurveto
          93 416 rmoveto
          41 0 38 14 35 29 45 37 22 45 0 53 0 27 -8 24 -17 20 -24 30 -34 15 -44 0 -39 0 -38 -14 -35 -28 -44 -36 -22 -44 0 -53 0 -26 8 -24 17 -22 24 -31 33 -16 42 0 rrcurveto
          893 hmoveto
          40 0 38 14 35 29 45 37 22 45 0 53 0 27 -8 24 -17 20 -23 30 -33 15 -45 0 -41 0 -37 -14 -35 -28 -44 -36 -22 -44 0 -53 0 -26 8 -24 17 -22 25 -31 33 -16 42 0 rrcurveto
          endchar
        </CharString>
        <CharString name="right_arrow_double">
          0 389 27 rmoveto
          27 0 29 11 31 22 rrcurveto
          554 457 rlineto
          36 33 18 36 0 37 0 20 -6 19 -13 18 rrcurveto
          -360 458 rlineto
          -23 22 -24 11 -26 0 -29 0 -29 -11 -28 -23 -36 -29 -18 -34 0 -37 0 -26 6 -20 11 -15 rrcurveto
          45 -55 -1300 -7 rlineto
          -29 0 -28 -11 -28 -23 -37 -29 -19 -34 0 -39 0 -21 8 -19 14 -17 19 -23 24 -12 28 0 rrcurveto
          1343 hlineto
          31 0 29 11 28 22 rrcurveto
          42 35 rlineto
          6 -1 hlineto
          120 -152 -1 -5 -184 -150 rlineto
          -3 0 -2 0 0 1 -1 0 -9 11 -17 23 -21 23 -25 11 -29 0 rrcurveto
          -1344 hlineto
          -29 0 -28 -11 -28 -23 -37 -29 -18 -34 0 -38 0 -21 7 -20 15 -17 19 -23 23 -12 28 0 867 0 434 -1 0 -1 rrcurveto
          -1 -5 -72 -59 rlineto
          -35 -31 -18 -34 0 -38 0 -21 7 -18 14 -17 19 -23 24 -12 29 0 rrcurveto
          endchar
        </CharString>
        <CharString name="right_arrow_double_long">
          0 389 27 rmoveto
          27 0 29 11 31 22 rrcurveto
          554 457 rlineto
          36 33 18 36 0 37 0 20 -6 19 -13 18 rrcurveto
          -360 458 rlineto
          -23 22 -24 11 -26 0 -29 0 -29 -11 -28 -23 -36 -29 -18 -34 0 -37 0 -26 6 -20 11 -15 rrcurveto
          45 -55 -2500 -7 rlineto
          -29 0 -28 -11 -28 -23 -37 -29 -19 -34 0 -39 0 -21 8 -19 14 -17 19 -23 24 -12 28 0 rrcurveto
          2543 hlineto
          31 0 29 11 28 22 rrcurveto
          42 35 rlineto
          6 -1 hlineto
          120 -152 -1 -5 -184 -150 rlineto
          -3 0 -2 0 0 1 -1 0 -9 11 -17 23 -21 23 -25 11 -29 0 rrcurveto
          -2544 hlineto
          -29 0 -28 -11 -28 -23 -37 -29 -18 -34 0 -38 0 -21 7 -20 15 -17 19 -23 23 -12 28 0 1667 0 834 -1 0 -1 rrcurveto
          -1 -5 -72 -59 rlineto
          -35 -31 -18 -34 0 -38 0 -21 7 -18 14 -17 19 -23 24 -12 29 0 rrcurveto
          endchar
        </CharString>
        <CharString name="right_arrow_single">
          0 692 502 rmoveto
          -8 1 -72 90 rlineto
          -1 hlineto
          1 6 113 93 rlineto
          7 -1 hlineto
          72 -93 -1 -3 -110 -91 rlineto
          -304 -477 rmoveto
          29 0 29 11 29 21 rrcurveto
          554 457 rlineto
          36 29 17 35 0 40 0 21 -6 20 -13 18 rrcurveto
          -359 459 rlineto
          -23 22 -24 11 -26 0 -28 0 -28 -11 -29 -22 -37 -30 -19 -33 0 -39 0 -20 6 -20 12 -21 60 -76 30 -38 0 0 0 -1 0 0 1 0 rrcurveto
          -1 -5 -141 -116 rlineto
          -20 -17 -22 -8 -24 0 rrcurveto
          -1180 hlineto
          -30 0 -29 -12 -28 -23 -36 -30 -18 -34 0 -39 0 -20 7 -18 13 -17 18 -23 24 -12 30 0 rrcurveto
          1180 hlineto
          24 0 19 -8 13 -17 60 -79 30 -40 0 -1 rrcurveto
          -1 -5 -139 -115 rlineto
          -35 -34 -18 -35 0 -35 0 -21 7 -18 13 -17 18 -23 24 -11 31 0 rrcurveto
          endchar
        </CharString>
        <CharString name="right_arrow_single_long">
          0 692 502 rmoveto
          -8 1 -72 90 rlineto
          -1 hlineto
          1 6 113 93 rlineto
          7 -1 hlineto
          72 -93 -1 -3 -110 -91 rlineto
          -304 -477 rmoveto
          29 0 29 11 29 21 rrcurveto
          554 457 rlineto
          36 29 17 35 0 40 0 21 -6 20 -13 18 rrcurveto
          -359 459 rlineto
          -23 22 -24 11 -26 0 -28 0 -28 -11 -29 -22 -37 -30 -19 -33 0 -39 0 -20 6 -20 12 -21 60 -76 30 -38 0 0 0 -1 0 0 1 0 rrcurveto
          -1 -5 -141 -116 rlineto
          -20 -17 -22 -8 -24 0 rrcurveto
          -2380 hlineto
          -30 0 -29 -12 -28 -23 -36 -30 -18 -34 0 -39 0 -20 7 -18 13 -17 18 -23 24 -12 30 0 rrcurveto
          2380 hlineto
          24 0 19 -8 13 -17 60 -79 30 -40 0 -1 rrcurveto
          -1 -5 -139 -115 rlineto
          -35 -34 -18 -35 0 -35 0 -21 7 -18 13 -17 18 -23 24 -11 31 0 rrcurveto
          endchar
        </CharString>
        <CharString name="righthalfblock">
          0 600 -600 rmoveto
          600 2640 -600 hlineto
          endchar
        </CharString>
        <CharString name="rightoneeighthblock">
          0 1050 -600 rmoveto
          150 2640 -150 hlineto
          endchar
        </CharString>
        <CharString name="rightwardsarrow">
          0 839 755 rmoveto
          -6 1 -8 0 -9 1 -27 2 -26 1 -23 0 rrcurveto
          -685 -200 685 hlineto
          23 0 26 1 27 2 9 1 8 0 6 1 -6 -6 -7 -7 -9 -8 -18 -17 -16 -18 -14 -19 rrcurveto
          -348 -440 rlineto
          271 hlineto
          477 610 -479 610 rlineto
          -269 hlineto
          348 -439 rlineto
          18 -21 18 -19 17 -17 6 -8 6 -6 5 -5 rrcurveto
          endchar
        </CharString>
        <CharString name="s">
          0 594 -50 rmoveto
          127 0 112 31 97 61 97 61 59 83 23 106 5 23 3 23 0 22 0 64 -24 53 -48 42 -59 54 -97 41 -135 29 -80 15 -52 15 -22 17 -23 16 -11 17 0 19 0 40 23 33 45 25 rrcurveto
          39 22 51 11 61 0 77 0 49 -20 22 -41 1 -2 1 -2 0 -1 0 3 -3 1 -7 0 -15 0 -16 2 -19 4 -47 -1 -23 -23 0 -45 0 -48 56 -24 113 0 34 0 38 9 43 17 rrcurveto
          71 31 36 48 0 67 0 52 -25 50 -50 48 -67 68 -100 34 -132 0 -124 0 -108 -32 -92 -63 -121 -83 -60 -100 0 -118 0 -143 120 -96 240 -49 125 -23 62 -37 0 -51 0 -36 -22 -31 -44 -27 rrcurveto
          -41 -24 -54 -12 -69 0 -119 0 -64 35 -9 70 -18 57 -33 29 -49 0 -34 0 -31 -13 -27 -25 -37 -31 -18 -36 0 -41 0 -10 1 -11 3 -12 19 -70 42 -58 66 -43 66 -44 89 -22 113 0 rrcurveto
          endchar
        </CharString>
        <CharString name="section">
          0 1009 312 rmoveto
          127 117 64 116 0 118 0 75 -25 61 -51 47 -41 45 -86 46 -129 46 -73 25 -47 23 -22 22 -22 21 -11 24 0 26 0 60 25 43 50 25 41 21 48 11 53 0 82 0 72 -11 62 -22 rrcurveto
          11 -4 11 -2 12 0 63 0 42 34 22 67 1 9 1 8 0 7 0 42 -22 27 -43 12 -95 23 -92 12 -90 0 -136 0 -111 -30 -87 -61 -86 -61 -54 -83 -23 -103 -4 -20 -2 -21 0 -20 rrcurveto
          0 -52 15 -48 30 -44 rrcurveto
          19 -27 rlineto
          29 -36 48 -32 69 -26 rrcurveto
          90 -37 rlineto
          70 -26 54 -26 36 -25 36 -25 18 -32 0 -38 0 -13 -2 -14 -3 -14 -11 -56 -36 -52 -59 -49 72 -25 54 -34 36 -44 rrcurveto
          -521 -628 rmoveto
          147 0 122 29 95 57 95 58 59 86 25 114 5 22 2 22 0 21 0 135 -98 99 -195 65 -86 27 -63 28 -41 28 -41 27 -20 35 0 42 0 13 2 14 3 15 12 57 36 53 59 48 rrcurveto
          -57 15 -54 35 -49 55 -61 -51 -47 -55 -34 -60 -35 -61 -17 -64 0 -69 0 -73 24 -61 49 -48 48 -45 76 -42 104 -39 95 -28 66 -31 36 -33 22 -17 11 -24 0 -30 0 -9 -1 -10 -3 -12 rrcurveto
          -18 -88 -85 -46 -151 -4 -103 0 -68 9 -33 17 -21 13 -24 6 -27 0 -69 0 -41 -34 -16 -67 -1 -6 -1 -6 0 -7 0 -83 122 -42 245 0 rrcurveto
          endchar
        </CharString>
        <CharString name="semicolon">
          0 764 731 rmoveto
          50 0 47 18 43 36 55 47 27 56 0 66 0 33 -10 29 -19 26 -29 39 -41 19 -53 0 -53 0 -48 -18 -43 -36 -56 -46 -28 -56 0 -65 0 -34 10 -30 21 -26 29 -39 43 -19 55 0 rrcurveto
          -479 -1164 rmoveto
          157 16 131 61 105 105 105 106 52 120 0 137 0 62 -15 50 -31 38 -30 39 -42 19 -52 0 -67 0 -55 -25 -40 -49 -35 -37 -17 -42 0 -48 0 -36 12 -33 23 -29 23 -29 12 -28 0 -28 rrcurveto
          0 -39 -23 -35 -45 -31 -38 -26 -49 -17 -58 -7 -68 -8 -42 -38 -16 -68 rrcurveto
          -1 -15 rlineto
          1 -57 34 -28 69 0 rrcurveto
          endchar
        </CharString>
        <CharString name="seven">
          -10 425 -50 rmoveto
          47 0 40 22 33 45 rrcurveto
          453 678 rlineto
          94 hlineto
          60 0 38 9 17 19 17 19 8 21 0 22 0 21 -11 20 -22 18 -23 17 -34 9 -46 0 rrcurveto
          19 hlineto
          208 312 rlineto
          11 15 8 21 5 27 3 14 2 16 0 17 0 36 -15 32 -29 27 -24 22 -34 11 -45 0 rrcurveto
          -702 hlineto
          -43 0 -33 -13 -25 -25 -25 -26 -12 -31 0 -36 0 -25 9 -22 19 -18 19 -18 24 -9 28 0 rrcurveto
          591 hlineto
          11 0 5 0 0 1 0 -1 -73 -110 -147 -217 rrcurveto
          -184 hlineto
          -29 0 -31 -8 -32 -15 -32 -15 -16 -23 0 -31 0 -29 11 -21 23 -13 23 -13 25 -7 27 0 rrcurveto
          97 hlineto
          -397 -590 rlineto
          -11 -21 -5 -21 0 -22 0 -25 9 -22 19 -18 19 -17 26 -9 32 0 rrcurveto
          endchar
        </CharString>
        <CharString name="six">
          0 655 173 rmoveto
          -54 0 -41 20 -28 40 -29 39 -14 56 0 73 0 83 17 90 34 97 101 27 78 14 55 0 52 0 36 -2 19 -4 58 -13 30 -58 1 -104 0 -106 -42 -92 -85 -77 -60 -55 -63 -28 -65 0 rrcurveto
          -50 -223 rmoveto
          115 0 97 23 79 47 78 47 67 62 57 78 74 110 37 122 0 136 rrcurveto
          24 vlineto
          -5 198 -105 107 -205 16 -29 3 -28 1 -28 0 -60 0 -53 -4 -46 -9 110 194 160 123 210 50 65 15 43 18 22 20 22 21 11 20 0 21 0 8 -3 9 -7 9 -19 21 -24 10 -29 0 rrcurveto
          -226 -4 -197 -80 -168 -157 -110 -98 -87 -128 -63 -158 -23 -12 -23 -15 -23 -16 -85 -65 -42 -50 0 -36 0 -32 19 -16 39 0 24 0 21 4 20 8 -22 -81 -11 -88 0 -94 0 -255 117 -127 234 0 rrcurveto
          endchar
        </CharString>
        <CharString name="slash">
          0 192 -225 rmoveto
          27 0 26 7 25 14 25 14 20 18 14 21 rrcurveto
          1064 1620 rlineto
          13 21 7 20 0 20 0 13 -3 14 -6 15 -15 35 -33 18 -51 0 -27 0 -25 -7 -25 -13 -25 -14 -20 -18 -14 -21 rrcurveto
          -1064 -1620 rlineto
          -13 -21 -7 -20 0 -19 0 -14 3 -14 7 -15 14 -36 32 -18 51 0 rrcurveto
          endchar
        </CharString>
        <CharString name="slash_asterisk">
          0 691 426 rmoveto
          39 0 34 12 29 24 29 24 17 26 6 29 rrcurveto
          42 197 137 -85 rlineto
          19 -11 22 -6 23 0 39 0 35 12 29 24 36 30 18 33 0 36 0 29 -13 25 -26 21 rrcurveto
          -165 104 209 104 rlineto
          53 32 27 39 0 45 0 21 -7 19 -14 18 -19 24 -29 12 -39 0 -23 0 -24 -6 -25 -11 rrcurveto
          -173 -86 rlineto
          29 138 15 73 0 7 0 20 -7 20 -14 18 -19 24 -29 12 -39 0 -39 0 -33 -12 -29 -24 -29 -24 -18 -26 -6 -29 rrcurveto
          -42 -197 -136 86 rlineto
          -19 11 -22 6 -24 0 -39 0 -34 -12 -29 -24 -38 -30 -19 -34 0 -37 0 -30 14 -24 28 -19 rrcurveto
          164 -104 -209 -104 rlineto
          -54 -34 -27 -39 0 -44 0 -20 7 -20 15 -18 19 -24 29 -12 39 0 24 0 24 6 25 11 rrcurveto
          172 86 rlineto
          -29 -138 -15 -72 0 -7 0 -21 7 -20 15 -18 19 -24 28 -12 39 0 rrcurveto
          -1499 -651 rmoveto
          27 0 26 7 25 14 25 14 20 18 14 21 rrcurveto
          1065 1623 rlineto
          13 21 7 20 0 20 0 13 -3 14 -6 15 -15 35 -33 18 -51 0 -27 0 -26 -7 -25 -13 -25 -14 -20 -18 -13 -21 rrcurveto
          -1065 -1623 rlineto
          -13 -21 -7 -20 0 -19 0 -14 3 -14 7 -15 14 -36 32 -18 51 0 rrcurveto
          endchar
        </CharString>
        <CharString name="slash_asterisk_asterisk">
          0 -2008 -225 rmoveto
          27 0 26 7 25 14 25 14 20 18 14 21 rrcurveto
          1065 1623 rlineto
          13 21 7 20 0 20 0 13 -3 14 -6 15 -15 35 -33 18 -51 0 -27 0 -26 -7 -25 -13 -25 -14 -20 -18 -13 -21 rrcurveto
          -1065 -1623 rlineto
          -13 -21 -7 -20 0 -19 0 -14 3 -14 7 -15 14 -36 32 -18 51 0 rrcurveto
          1499 651 rmoveto
          39 0 34 12 29 24 29 24 17 26 6 29 rrcurveto
          42 197 137 -85 rlineto
          19 -11 22 -6 23 0 39 0 35 12 29 24 36 30 18 33 0 36 0 29 -13 25 -26 21 rrcurveto
          -165 104 209 104 rlineto
          53 32 27 39 0 45 0 21 -7 19 -14 18 -19 24 -29 12 -39 0 -23 0 -24 -6 -25 -11 rrcurveto
          -173 -86 rlineto
          29 138 15 73 0 7 0 20 -7 20 -14 18 -19 24 -29 12 -39 0 -39 0 -33 -12 -29 -24 -29 -24 -18 -26 -6 -29 rrcurveto
          -42 -197 -136 86 rlineto
          -19 11 -22 6 -24 0 -39 0 -34 -12 -29 -24 -38 -30 -19 -34 0 -37 0 -30 14 -24 28 -19 rrcurveto
          164 -104 -209 -104 rlineto
          -54 -34 -27 -39 0 -44 0 -20 7 -20 15 -18 19 -24 29 -12 39 0 24 0 24 6 25 11 rrcurveto
          172 86 rlineto
          -29 -138 -15 -72 0 -7 0 -21 7 -20 15 -18 19 -24 28 -12 39 0 rrcurveto
          1040 hmoveto
          39 0 34 12 29 24 29 24 17 26 6 29 rrcurveto
          42 197 137 -85 rlineto
          19 -11 22 -6 23 0 39 0 35 12 29 24 36 30 18 33 0 36 0 29 -13 25 -26 21 rrcurveto
          -165 104 209 104 rlineto
          53 32 27 39 0 45 0 21 -7 19 -14 18 -19 24 -29 12 -39 0 -23 0 -24 -6 -25 -11 rrcurveto
          -173 -86 rlineto
          29 138 15 73 0 7 0 20 -7 20 -14 18 -19 24 -29 12 -39 0 -39 0 -33 -12 -29 -24 -29 -24 -18 -26 -6 -29 rrcurveto
          -42 -197 -136 86 rlineto
          -19 11 -22 6 -24 0 -39 0 -34 -12 -29 -24 -38 -30 -19 -34 0 -37 0 -30 14 -24 28 -19 rrcurveto
          164 -104 -209 -104 rlineto
          -54 -34 -27 -39 0 -44 0 -20 7 -20 15 -18 19 -24 29 -12 39 0 24 0 24 6 25 11 rrcurveto
          172 86 rlineto
          -29 -138 -15 -72 0 -7 0 -21 7 -20 15 -18 19 -24 28 -12 39 0 rrcurveto
          endchar
        </CharString>
        <CharString name="slash_greater">
          0 -823 -355 rmoveto
          27 0 26 7 25 14 25 14 19 18 14 21 rrcurveto
          835 1270 rlineto
          431 -257 216 -129 0 -3 -1 -5 -2 -2 -1 -1 rrcurveto
          -529 -254 rlineto
          -60 -32 -30 -40 0 -48 0 -21 8 -20 15 -18 19 -25 29 -12 38 0 21 0 21 5 23 9 rrcurveto
          771 364 rlineto
          59 31 30 39 0 49 0 36 -16 28 -31 18 rrcurveto
          -869 505 173 263 rlineto
          13 21 7 20 0 20 0 13 -3 14 -6 15 -15 35 -33 18 -51 0 -27 0 -25 -7 -25 -13 -25 -14 -20 -18 -14 -21 rrcurveto
          -1150 -1750 rlineto
          -13 -21 -7 -19 0 -19 0 -14 3 -15 7 -15 15 -36 32 -18 51 0 rrcurveto
          endchar
        </CharString>
        <CharString name="slash_slash">
          0 42 -225 rmoveto
          27 0 26 7 25 14 25 14 20 18 14 21 rrcurveto
          1064 1620 rlineto
          13 21 7 20 0 20 0 13 -3 14 -6 15 -15 35 -33 18 -51 0 -27 0 -25 -7 -25 -13 -25 -14 -20 -18 -14 -21 rrcurveto
          -1064 -1620 rlineto
          -13 -21 -7 -20 0 -19 0 -14 3 -14 7 -15 14 -36 32 -18 51 0 rrcurveto
          -900 hmoveto
          27 0 26 7 25 14 25 14 20 18 14 21 rrcurveto
          1064 1620 rlineto
          13 21 7 20 0 20 0 13 -3 14 -6 15 -15 35 -33 18 -51 0 -27 0 -25 -7 -25 -13 -25 -14 -20 -18 -14 -21 rrcurveto
          -1064 -1620 rlineto
          -13 -21 -7 -20 0 -19 0 -14 3 -14 7 -15 14 -36 32 -18 51 0 rrcurveto
          endchar
        </CharString>
        <CharString name="slash_slash_slash">
          0 -958 -225 rmoveto
          27 0 26 7 25 14 25 14 20 18 14 21 rrcurveto
          1064 1620 rlineto
          13 21 7 20 0 20 0 13 -3 14 -6 15 -15 35 -33 18 -51 0 -27 0 -25 -7 -25 -13 -25 -14 -20 -18 -14 -21 rrcurveto
          -1064 -1620 rlineto
          -13 -21 -7 -20 0 -19 0 -14 3 -14 7 -15 14 -36 32 -18 51 0 rrcurveto
          -880 hmoveto
          27 0 26 7 25 14 25 14 20 18 14 21 rrcurveto
          1064 1620 rlineto
          13 21 7 20 0 20 0 13 -3 14 -6 15 -15 35 -33 18 -51 0 -27 0 -25 -7 -25 -13 -25 -14 -20 -18 -14 -21 rrcurveto
          -1064 -1620 rlineto
          -13 -21 -7 -20 0 -19 0 -14 3 -14 7 -15 14 -36 32 -18 51 0 rrcurveto
          1760 hmoveto
          27 0 26 7 25 14 25 14 20 18 14 21 rrcurveto
          1064 1620 rlineto
          13 21 7 20 0 20 0 13 -3 14 -6 15 -15 35 -33 18 -51 0 -27 0 -25 -7 -25 -13 -25 -14 -20 -18 -14 -21 rrcurveto
          -1064 -1620 rlineto
          -13 -21 -7 -20 0 -19 0 -14 3 -14 7 -15 14 -36 32 -18 51 0 rrcurveto
          endchar
        </CharString>
        <CharString name="southeastarrow">
          0 933 470 rmoveto
          -1 2 -1 1 -1 1 -20 23 -20 20 -19 19 rrcurveto
          -729 736 -154 -158 719 -725 rlineto
          19 -17 19 -18 21 -17 6 -6 5 -5 5 -4 -4 0 -6 1 -5 0 -31 2 -32 1 -34 0 rrcurveto
          -415 -196 880 870 -210 -418 hlineto
          0 -34 2 -33 4 -31 rrcurveto
          endchar
        </CharString>
        <CharString name="southwestarrow">
          0 418 322 rmoveto
          5 4 6 5 7 6 21 17 19 18 17 18 rrcurveto
          719 724 -152 154 -729 -736 rlineto
          -19 -19 -19 -20 -19 -23 -2 -2 -2 -2 -2 -3 1 6 0 7 1 7 3 32 2 33 0 34 rrcurveto
          418 -210 -870 880 196 -415 vlineto
          -34 0 -32 -1 -30 -2 rrcurveto
          endchar
        </CharString>
        <CharString name="space">
          0 endchar
        </CharString>
        <CharString name="t">
          0 584 -50 rmoveto
          90 0 87 23 84 47 84 47 92 78 101 110 13 14 6 18 0 22 0 18 -8 18 -15 15 -15 16 -21 8 -26 0 -24 0 -20 -7 -16 -15 -65 -63 -53 -45 -41 -26 -41 -26 -46 -13 -50 0 rrcurveto
          -38 0 -20 20 -1 40 1 33 18 85 37 139 rrcurveto
          75 290 rlineto
          4 20 9 10 12 0 rrcurveto
          309 hlineto
          34 0 31 11 27 21 34 29 17 35 0 43 0 18 -6 17 -12 15 -18 23 -27 12 -34 0 rrcurveto
          -309 hlineto
          -9 0 -5 3 0 6 0 3 8 33 15 62 rrcurveto
          32 134 rlineto
          0 23 -7 19 -13 15 -19 22 -25 11 -33 0 -31 0 -28 -10 -27 -21 -27 -20 -17 -26 -8 -31 rrcurveto
          -49 -195 rlineto
          -4 -19 -10 -9 -15 0 rrcurveto
          -160 hlineto
          -31 0 -30 -11 -28 -22 -36 -28 -18 -34 -1 -41 0 -20 6 -17 13 -16 18 -23 26 -12 34 0 rrcurveto
          163 hlineto
          6 0 3 -4 0 -7 0 -1 -25 -101 -50 -199 -48 -170 -23 -123 0 -78 0 -129 65 -64 129 0 rrcurveto
          endchar
        </CharString>
        <CharString name="tag_todo">
          0 -3073 175 rmoveto
          97 0 81 59 67 119 52 93 41 115 29 139 20 98 11 86 0 74 0 178 -59 89 -116 0 -95 0 -81 -58 -67 -117 -52 -91 -41 -116 -30 -143 -21 -99 -11 -88 0 -75 0 -31 2 -30 4 -27 rrcurveto
          16 -117 56 -58 97 0 rrcurveto
          2540 hmoveto
          97 0 81 59 67 119 52 93 41 115 29 139 20 98 11 86 0 74 0 178 -59 89 -116 0 -95 0 -81 -58 -67 -117 -52 -91 -41 -116 -30 -143 -21 -99 -11 -88 0 -75 0 -31 2 -30 4 -27 rrcurveto
          16 -117 56 -58 97 0 rrcurveto
          -1418 30 rmoveto
          151 0 115 34 79 68 78 67 56 115 35 163 30 142 15 107 0 71 0 100 -41 65 -82 30 -34 13 -39 7 -43 3 -43 3 -48 1 -51 0 -12 0 -7 -6 -3 -11 -136 -637 -67 -320 0 -2 rrcurveto
          0 -9 5 -4 10 0 rrcurveto
          -1139 -260 rmoveto
          -241 0 -120 148 0 297 0 152 30 168 60 185 50 156 69 127 88 99 105 119 129 59 152 0 240 0 120 -149 0 -299 0 -147 -29 -168 -60 -186 -50 -158 -68 -127 -87 -98 -104 -119 -130 -59 -154 0 rrcurveto
          2540 hmoveto
          -241 0 -120 148 0 297 0 152 30 168 60 185 50 156 69 127 88 99 105 119 129 59 152 0 240 0 120 -149 0 -299 0 -147 -29 -168 -60 -186 -50 -158 -68 -127 -87 -98 -104 -119 -130 -59 -154 0 rrcurveto
          -1418 30 rmoveto
          -161 hlineto
          -31 0 -24 10 -17 21 -16 21 -9 22 0 22 0 7 87 412 174 816 6 31 18 27 29 25 29 24 31 12 31 0 rrcurveto
          200 hlineto
          201 0 133 -42 67 -83 66 -83 33 -98 0 -112 0 -65 -9 -73 -17 -81 rrcurveto
          -28 -136 rlineto
          -35 -161 -51 -130 -68 -99 -68 -99 -87 -73 -105 -46 -106 -46 -126 -23 -147 0 rrcurveto
          -2292 -30 rmoveto
          -30 0 -23 10 -16 21 -16 20 -8 21 0 20 0 8 1 7 2 8 159 746 79 378 0 8 -2 2 -87 1 -173 0 -30 0 -23 10 -16 20 -16 21 -8 20 0 22 0 37 18 34 37 31 rrcurveto
          28 23 29 12 30 0 rrcurveto
          760 hlineto
          30 0 23 -10 16 -21 16 -20 8 -21 0 -20 0 -40 -18 -34 -36 -29 -29 -23 -29 -12 -30 0 -171 0 -87 -1 -3 -2 -3 -3 -3 -5 -2 -7 rrcurveto
          -237 -1117 rlineto
          -7 -29 -17 -27 -28 -23 -29 -24 -29 -12 -30 0 rrcurveto
          4406 -215 rmoveto
          198 97 149 103 99 108 173 191 113 217 51 243 rrcurveto
          10 46 rlineto
          17 79 8 77 0 74 0 141 -30 132 -60 125 -69 141 -106 103 -141 65 rrcurveto
          -5487 -2 rlineto
          -26 0 -24 -9 -22 -18 -23 -19 -14 -22 -5 -25 -250 -1176 -125 -591 0 -6 0 -18 5 -15 11 -13 15 -19 20 -9 26 0 rrcurveto
          endchar
        </CharString>
        <CharString name="three">
          0 605 -50 rmoveto
          172 0 139 64 105 127 54 64 39 87 24 108 5 26 3 24 0 23 0 131 -53 89 -106 45 -5 3 -3 5 0 6 0 11 6 9 11 7 157 96 79 127 0 159 0 75 -25 61 -49 49 rrcurveto
          -68 69 -108 35 -147 0 -86 -1 -77 -21 -67 -41 -96 -60 -48 -65 0 -72 0 -47 30 -24 61 0 32 0 34 20 36 39 35 39 54 19 74 0 115 0 57 -45 0 -91 0 -70 -46 -66 -93 -62 rrcurveto
          -55 -36 -82 -18 -110 0 -29 0 -26 -8 -21 -17 -31 -24 -16 -32 0 -42 0 -20 5 -16 11 -14 17 -21 23 -11 30 0 219 -1 110 -59 0 -119 0 -15 -2 -14 -3 -15 -40 -165 -101 -83 -162 -2 rrcurveto
          -126 1 -88 40 -48 79 -27 45 -28 22 -29 0 -42 0 -21 -32 0 -64 0 -32 4 -25 8 -16 72 -155 129 -79 186 -4 rrcurveto
          endchar
        </CharString>
        <CharString name="two">
          0 359 140 rmoveto
          -3 hlineto
          -35 0 -17 9 0 18 0 53 19 26 38 0 19 0 32 -17 44 -35 -46 -36 -32 -18 -19 0 rrcurveto
          -20 -190 rmoveto
          116 0 94 37 72 73 83 -58 79 -29 75 0 115 1 87 27 59 51 49 46 35 60 19 73 1 7 1 7 0 7 0 49 -23 24 -47 0 -25 0 -27 -18 -27 -35 -28 -36 -23 -23 -19 -9 rrcurveto
          -19 -10 -27 -5 -37 0 -45 0 -48 13 -50 25 28 22 21 19 14 15 220 221 115 254 12 289 rrcurveto
          2 79 rlineto
          0 121 -36 87 -73 53 -57 41 -73 21 -90 0 -134 0 -110 -37 -88 -73 -76 -65 -38 -64 0 -62 1 -56 27 -28 53 0 55 0 44 22 33 43 33 44 32 28 30 13 30 13 24 6 18 0 rrcurveto
          105 0 53 -62 0 -124 -10 -278 -120 -229 -228 -180 -69 57 -75 29 -80 0 -79 0 -70 -26 -59 -52 -60 -52 -30 -70 0 -87 0 -62 25 -51 51 -38 51 -39 63 -19 75 0 rrcurveto
          endchar
        </CharString>
        <CharString name="u">
          0 1003 -50 rmoveto
          50 0 46 11 39 23 51 28 25 29 0 27 0 44 -24 22 -49 0 -17 0 -15 -5 -13 -10 -13 -10 -10 -5 -7 0 -19 0 -9 18 0 35 0 9 2 13 3 16 113 536 57 272 0 8 rrcurveto
          0 21 -6 18 -12 15 -18 23 -28 12 -36 0 -36 0 -29 -10 -23 -21 -23 -20 -15 -27 -7 -33 rrcurveto
          -117 -547 rlineto
          -17 -86 -48 -66 -77 -45 -65 -36 -56 -19 -49 -1 -95 0 -48 48 0 97 0 24 3 27 6 29 83 389 41 199 0 9 0 21 -6 18 -12 15 -18 23 -28 12 -36 0 -36 0 -29 -10 -23 -21 rrcurveto
          -22 -20 -15 -27 -7 -33 rrcurveto
          -124 -580 rlineto
          -13 -64 -7 -57 0 -50 0 -75 16 -60 31 -44 50 -72 91 -36 131 0 98 1 109 53 120 104 1 0 0 0 1 -1 1 -1 0 -1 0 -3 1 -12 0 -10 0 -9 0 -24 9 -23 17 -22 rrcurveto
          17 -22 21 -14 23 -7 24 -7 34 -3 43 0 rrcurveto
          endchar
        </CharString>
        <CharString name="underscore">
          0 863 -290 rmoveto
          31 0 29 11 26 21 25 21 16 25 6 28 7 30 -6 27 -18 23 -18 23 -26 11 -34 0 rrcurveto
          -640 hlineto
          -32 0 -28 -11 -26 -21 -26 -21 -16 -25 -6 -28 -6 -30 6 -27 18 -23 18 -23 26 -11 34 0 rrcurveto
          endchar
        </CharString>
        <CharString name="updownarrow">
          0 711 -11 rmoveto
          0 6 0 7 1 8 2 31 1 30 0 29 rrcurveto
          1260 vlineto
          0 29 -1 30 -2 31 -1 10 0 8 -1 7 3 -2 2 -3 3 -2 18 -19 24 -23 30 -26 rrcurveto
          415 -352 rlineto
          268 vlineto
          -605 513 -605 -515 rlineto
          -268 vlineto
          413 352 rlineto
          37 32 28 25 18 18 -1 -7 0 -7 -1 -9 -3 -30 -1 -30 0 -30 rrcurveto
          -1260 vlineto
          0 -30 1 -30 3 -30 1 -10 1 -8 0 -7 rrcurveto
          -7 7 rlineto
          -19 19 -25 23 -30 26 rrcurveto
          -415 352 rlineto
          -268 vlineto
          605 -513 605 515 rlineto
          268 vlineto
          -413 -352 rlineto
          -36 -31 -27 -24 -18 -18 rrcurveto
          endchar
        </CharString>
        <CharString name="upperhalfblock">
          0 720 vmoveto
          1200 1320 -1200 hlineto
          endchar
        </CharString>
        <CharString name="upperoneeighthblock">
          0 1710 vmoveto
          1200 330 -1200 hlineto
          endchar
        </CharString>
        <CharString name="upwardsarrow">
          0 710 1155 rmoveto
          3 -2 2 -3 3 -2 18 -19 24 -23 30 -26 rrcurveto
          415 -352 rlineto
          268 vlineto
          -603 513 -607 -515 rlineto
          -268 vlineto
          413 352 rlineto
          37 32 28 25 18 18 -1 -7 0 -7 -1 -9 -3 -30 -1 -30 0 -30 rrcurveto
          -1060 230 1060 vlineto
          0 29 -1 30 -2 31 -1 10 0 8 -1 7 rrcurveto
          endchar
        </CharString>
        <CharString name="v">
          0 587 -50 rmoveto
          66 2 54 33 42 64 330 485 165 294 0 104 0 27 -3 19 -7 12 -38 73 -81 37 -124 0 -101 0 -51 -29 0 -57 0 -50 28 -25 55 0 rrcurveto
          71 hlineto
          11 0 5 -2 0 -3 0 -81 -119 -216 -239 -350 -3 -5 -3 -3 -2 0 2 0 2 -1 0 -1 rrcurveto
          -99 745 rlineto
          -8 52 -33 26 -58 0 -34 0 -29 -11 -24 -21 -33 -29 -16 -29 0 -30 rrcurveto
          136 -922 rlineto
          13 -72 46 -36 79 0 rrcurveto
          endchar
        </CharString>
        <CharString name="w">
          0 823 -50 rmoveto
          42 0 34 13 28 26 28 26 19 29 11 33 174 480 87 294 0 110 -2 93 -85 46 -168 0 -89 0 -44 -29 0 -57 1 -50 33 -25 65 0 20 0 26 -1 30 -3 5 0 2 -3 0 -6 rrcurveto
          0 -62 -52 -183 -103 -302 -10 -30 -4 -15 1 0 1 0 0 10 -2 19 rrcurveto
          -25 349 rlineto
          -3 57 -32 29 -60 0 -54 0 -39 -26 -25 -52 rrcurveto
          -154 -340 rlineto
          -10 -25 -6 -12 -1 0 4 0 2 6 0 12 rrcurveto
          80 652 rlineto
          0 58 -32 29 -64 0 -28 0 -26 -8 -25 -15 -25 -16 -15 -24 -3 -31 rrcurveto
          -98 -945 rlineto
          0 -27 9 -25 18 -24 17 -23 28 -12 37 0 79 0 54 32 30 63 rrcurveto
          169 373 rlineto
          5 13 5 7 3 0 -1 0 0 -3 0 -7 rrcurveto
          15 -373 rlineto
          2 -31 12 -26 24 -19 23 -19 28 -10 34 0 rrcurveto
          endchar
        </CharString>
        <CharString name="x">
          0 912 -50 rmoveto
          46 0 36 6 26 13 67 29 59 59 50 88 5 7 2 10 0 13 0 13 -3 11 -5 9 -14 29 -23 15 -31 0 -31 0 -24 -14 -17 -28 -26 -45 -23 -23 -19 0 -15 0 -12 16 -10 32 rrcurveto
          -60 189 -30 100 0 8 0 17 3 13 7 7 rrcurveto
          341 373 rlineto
          31 33 15 34 0 34 0 24 -7 20 -14 18 -23 27 -29 13 -37 0 -45 0 -38 -17 -29 -35 rrcurveto
          -273 -299 rlineto
          2 1 1 1 2 0 8 0 4 -1 1 -3 rrcurveto
          -54 193 rlineto
          -7 27 -13 27 -19 26 -20 25 -26 20 -33 15 -33 15 -36 7 -38 0 -29 0 -27 -6 -27 -12 -66 -33 -56 -56 -45 -78 -9 -15 -4 -16 0 -16 0 -15 6 -14 11 -13 17 -18 20 -9 22 0 rrcurveto
          32 0 23 13 16 25 32 50 23 25 16 0 13 0 8 -3 2 -7 69 -196 34 -102 0 -6 0 -16 -4 -13 -9 -9 rrcurveto
          -376 -412 rlineto
          -29 -30 -15 -30 0 -30 0 -28 6 -23 12 -17 21 -28 31 -14 39 0 47 0 38 17 30 35 206 230 102 115 -2 -1 -1 -1 -2 0 -3 0 -8 0 -4 1 -1 3 rrcurveto
          79 -293 rlineto
          19 -71 58 -35 96 0 rrcurveto
          endchar
        </CharString>
        <CharString name="x_center">
          0 972 275 rmoveto
          33 0 30 12 25 23 33 31 17 34 0 38 0 21 -6 18 -12 17 rrcurveto
          -182 231 280 230 rlineto
          35 32 18 35 0 39 0 21 -6 19 -13 16 -18 22 -25 11 -31 0 -30 0 -29 -11 -29 -22 rrcurveto
          -279 -231 -182 231 rlineto
          -19 22 -24 11 -30 0 -31 0 -29 -11 -27 -22 -36 -30 -18 -35 0 -40 0 -21 6 -19 13 -17 rrcurveto
          182 -230 -280 -231 rlineto
          -35 -30 -18 -35 0 -40 0 -21 6 -18 13 -16 17 -23 25 -11 31 0 30 0 29 11 28 22 rrcurveto
          281 231 180 -231 rlineto
          19 -22 26 -11 32 0 rrcurveto
          endchar
        </CharString>
        <CharString name="xml_comment_begin">
          0 -2874 502 rmoveto
          -2 0 -13 15 -25 31 -24 30 -12 17 0 2 0 1 19 16 38 31 37 31 20 16 2 0 2 0 13 -15 25 -31 24 -31 12 -17 0 -1 -1 -2 -19 -16 -37 -31 -37 -31 -20 -15 -2 0 rrcurveto
          97 -475 rmoveto
          32 0 29 11 27 22 35 29 17 34 0 41 0 19 -5 19 -12 18 -61 77 -30 39 0 3 1 2 47 41 93 79 8 6 11 6 14 5 13 5 11 3 9 0 rrcurveto
          565 hlineto
          49 228 rlineto
          -564 hlineto
          -9 0 -11 3 -11 5 -11 5 -9 5 -5 7 -61 77 -30 40 0 2 1 1 47 40 93 77 35 32 17 36 0 39 0 21 -7 19 -13 16 -19 21 -24 11 -29 0 -28 0 -29 -11 -29 -21 rrcurveto
          -556 -460 rlineto
          -36 -30 -17 -35 0 -38 0 -21 6 -19 12 -19 rrcurveto
          361 -459 rlineto
          21 -21 24 -10 28 0 rrcurveto
          970 -81 rmoveto
          57 0 52 19 45 39 57 50 29 56 0 63 0 34 -10 31 -21 28 -29 39 -43 19 -57 0 -60 0 -53 -19 -46 -39 -59 -50 -30 -56 0 -61 0 -35 12 -31 22 -29 29 -39 45 -19 60 0 rrcurveto
          102 499 rmoveto
          31 0 30 11 29 22 28 21 17 24 7 25 133 544 66 275 0 8 0 24 -8 22 -18 22 -23 28 -32 14 -39 0 -40 0 -37 -14 -35 -28 -35 -29 -20 -30 -7 -31 -99 -540 -49 -273 0 -4 rrcurveto
          0 -21 8 -19 17 -18 19 -22 26 -11 31 0 rrcurveto
          2748 41 rmoveto
          31 0 30 11 27 23 36 29 18 35 0 41 0 21 -6 19 -13 16 -18 22 -25 11 -31 0 rrcurveto
          -2464 hlineto
          -49 -228 rlineto
          endchar
        </CharString>
        <CharString name="xml_comment_empty">
          0 -2874 503 rmoveto
          -2 0 -24 30 -47 60 -1 1 -1 1 0 1 0 0 0 1 0 0 0 1 36 30 73 61 3 1 2 1 1 0 2 0 25 -30 47 -61 1 -1 0 -1 0 -1 -1 -2 -36 -31 -73 -59 rrcurveto
          -2 -1 -2 -1 -1 0 rrcurveto
          97 -477 rmoveto
          32 0 30 11 27 23 35 29 17 34 0 40 0 20 -6 19 -12 19 -60 76 -30 39 0 3 1 2 47 40 93 79 8 7 11 6 13 5 13 5 11 2 9 0 rrcurveto
          566 hlineto
          49 230 rlineto
          -565 hlineto
          -9 0 -10 3 -11 5 -11 5 -9 5 -6 7 -60 77 -30 39 0 2 1 1 46 39 93 77 35 33 18 36 0 39 0 22 -7 19 -13 16 -19 21 -24 11 -30 0 -28 0 -29 -11 -30 -22 rrcurveto
          -556 -460 rlineto
          -36 -30 -17 -35 0 -38 0 -21 6 -20 13 -19 rrcurveto
          360 -458 rlineto
          21 -21 25 -11 28 0 rrcurveto
          970 -80 rmoveto
          57 0 52 19 45 39 57 50 29 56 0 63 0 34 -10 31 -21 28 -29 39 -43 19 -57 0 -60 0 -53 -19 -46 -39 -59 -50 -30 -56 0 -61 0 -35 12 -31 22 -29 29 -39 45 -19 60 0 rrcurveto
          102 499 rmoveto
          31 0 30 11 29 22 28 21 17 24 7 25 133 544 66 275 0 8 0 24 -8 22 -18 22 -23 28 -32 14 -39 0 -40 0 -37 -14 -35 -28 -35 -29 -20 -30 -7 -31 -99 -540 -49 -273 0 -4 rrcurveto
          0 -21 8 -19 17 -18 19 -22 26 -11 31 0 rrcurveto
          3213 40 rmoveto
          -13 25 -6 26 0 26 0 33 7 32 15 30 7 15 13 19 19 24 rrcurveto
          -2923 hlineto
          -49 -230 rlineto
          endchar
        </CharString>
        <CharString name="y">
          0 423 -500 rmoveto
          136 0 120 41 104 81 103 82 69 110 35 139 161 696 81 353 0 10 0 59 -31 29 -62 0 -33 0 -30 -12 -27 -23 -27 -24 -18 -27 -9 -31 rrcurveto
          -131 -573 rlineto
          -8 -36 -33 -46 -60 -56 -12 -11 -14 -11 -17 -11 -26 -17 -23 -13 -22 -9 -22 -9 -20 -4 -18 0 -80 0 -40 55 0 111 0 125 42 207 85 289 2 10 1 10 0 10 -1 21 -7 20 -14 17 rrcurveto
          -21 27 -28 13 -34 0 -51 0 -35 -24 -19 -48 -99 -322 -50 -244 0 -165 0 -85 12 -66 24 -47 40 -81 78 -40 115 0 24 0 26 1 25 3 66 8 67 29 67 51 43 33 22 16 2 0 rrcurveto
          -7 0 -4 3 0 7 rrcurveto
          -1 -4 rlineto
          -17 -82 -30 -76 -41 -70 -71 -123 -97 -62 -123 0 -51 0 -38 8 -26 16 -26 15 -25 28 -26 40 -18 22 -25 11 -32 0 -41 0 -32 -12 -24 -25 -25 -24 -12 -29 0 -35 0 -22 5 -18 11 -13 rrcurveto
          84 -117 116 -59 148 0 rrcurveto
          endchar
        </CharString>
        <CharString name="z">
          0 976 -20 rmoveto
          33 0 28 10 25 19 36 29 18 40 0 51 0 48 -10 42 -19 37 -41 77 -47 38 -53 0 -47 0 -23 -20 0 -41 0 -11 6 -16 11 -19 21 -28 11 -20 0 -14 0 -1 3 -1 5 0 rrcurveto
          -416 hlineto
          -6 0 -3 4 0 9 0 11 3 8 7 6 rrcurveto
          669 601 rlineto
          39 36 20 35 0 35 0 30 -8 25 -16 21 -25 33 -35 16 -47 0 rrcurveto
          -631 hlineto
          -96 0 -48 -38 0 -75 0 -72 48 -36 97 -2 rrcurveto
          387 hlineto
          5 0 3 -4 0 -9 0 -8 -4 -7 -7 -7 rrcurveto
          -667 -581 rlineto
          -40 -36 -20 -42 0 -48 0 -27 8 -26 17 -23 25 -33 36 -16 47 0 rrcurveto
          endchar
        </CharString>
        <CharString name="zero">
          0 500 721 rmoveto
          -1 -5 rlineto
          45 174 54 129 62 84 63 84 67 42 72 0 57 0 42 -14 25 -29 25 -28 14 -43 3 -57 -105 -39 -107 -57 -109 -77 -108 -76 -69 -55 -30 -33 rrcurveto
          130 -550 rmoveto
          -34 0 -27 6 -21 12 -20 12 -15 15 -10 20 -9 19 -5 20 0 22 0 157 174 172 348 186 -31 -200 -50 -157 -69 -114 -69 -113 -77 -57 -85 0 rrcurveto
          -49 -221 rmoveto
          146 0 126 62 108 124 87 103 67 124 49 147 49 147 29 141 11 136 39 18 34 18 31 20 31 20 16 23 0 27 0 18 -8 14 -17 9 -16 9 -19 5 -20 0 -31 0 -23 -1 -15 -2 rrcurveto
          -6 106 -32 83 -57 59 -57 60 -83 30 -107 0 -150 0 -128 -59 -106 -117 -91 -111 -71 -143 -53 -175 -52 -175 -26 -159 0 -143 1 -279 115 -139 229 0 rrcurveto
          endchar
        </CharString>
</ttFont>
